<svg version="1.1" viewBox="0.0 0.0 336.0 336.0" fill="none" stroke="none" stroke-linecap="square" stroke-miterlimit="10" xmlns:xlink="http://www.w3.org/1999/xlink" xmlns="http://www.w3.org/2000/svg"><clipPath id="p.0"><path d="m0 0l336.0 0l0 336.0l-336.0 0l0 -336.0z" clip-rule="nonzero"/></clipPath><g clip-path="url(#p.0)"><path fill="#000000" fill-opacity="0.0" d="m0 0l336.0 0l0 336.0l-336.0 0z" fill-rule="evenodd"/><path fill="#000000" fill-opacity="0.0" d="m12.226348 168.00063l0 0c0 -86.03118 69.74206 -155.77324 155.77325 -155.77324l0 0c41.31363 0 80.935165 16.411777 110.148315 45.62493c29.213165 29.21315 45.62494 68.83469 45.62494 110.148315l0 0c0 86.03119 -69.742065 155.77327 -155.77325 155.77327l0 0c-86.0312 0 -155.77325 -69.74208 -155.77325 -155.77327z" fill-rule="evenodd"/><path stroke="#f2f2f2" stroke-width="4.0" stroke-linejoin="round" stroke-linecap="butt" d="m12.226348 168.00063l0 0c0 -86.03118 69.74206 -155.77324 155.77325 -155.77324l0 0c41.31363 0 80.935165 16.411777 110.148315 45.62493c29.213165 29.21315 45.62494 68.83469 45.62494 110.148315l0 0c0 86.03119 -69.742065 155.77327 -155.77325 155.77327l0 0c-86.0312 0 -155.77325 -69.74208 -155.77325 -155.77327z" fill-rule="evenodd"/><path fill="#000000" fill-opacity="0.0" d="m71.5111 264.48914l22.266449 -22.266449" fill-rule="evenodd"/><path stroke="#f2f2f2" stroke-width="4.0" stroke-linejoin="round" stroke-linecap="butt" d="m71.5111 264.48914l22.266449 -22.266449" fill-rule="evenodd"/><path fill="#000000" fill-opacity="0.0" d="m264.4881 264.48914l-22.266449 -22.266449" fill-rule="evenodd"/><path stroke="#f2f2f2" stroke-width="4.0" stroke-linejoin="round" stroke-linecap="butt" d="m264.4881 264.48914l-22.266449 -22.266449" fill-rule="evenodd"/><path fill="#000000" fill-opacity="0.0" d="m242.22357 94.16553l22.266449 -22.266441" fill-rule="evenodd"/><path stroke="#f2f2f2" stroke-width="4.0" stroke-linejoin="round" stroke-linecap="butt" d="m242.22357 94.16553l22.266449 -22.266441" fill-rule="evenodd"/><path fill="#000000" fill-opacity="0.0" d="m93.77563 94.16553l-22.266441 -22.266441" fill-rule="evenodd"/><path stroke="#f2f2f2" stroke-width="4.0" stroke-linejoin="round" stroke-linecap="butt" d="m93.77563 94.16553l-22.266441 -22.266441" fill-rule="evenodd"/><path fill="#000000" fill-opacity="0.0" d="m50.168407 168.00063l15.395443 0" fill-rule="evenodd"/><path stroke="#f2f2f2" stroke-width="4.0" stroke-linejoin="round" stroke-linecap="butt" d="m50.168407 168.00063l15.395443 0" fill-rule="evenodd"/><path fill="#000000" fill-opacity="0.0" d="m167.9996 50.169437l0 15.24847" fill-rule="evenodd"/><path stroke="#f2f2f2" stroke-width="4.0" stroke-linejoin="round" stroke-linecap="butt" d="m167.9996 50.169437l0 15.24847" fill-rule="evenodd"/><path fill="#000000" fill-opacity="0.0" d="m270.43533 168.00063l15.395447 0" fill-rule="evenodd"/><path stroke="#f2f2f2" stroke-width="4.0" stroke-linejoin="round" stroke-linecap="butt" d="m270.43533 168.00063l15.395447 0" fill-rule="evenodd"/><path fill="#000000" fill-opacity="0.0" d="m161.88336 168.00063l0 0c0 -3.3787384 2.739029 -6.117752 6.1177673 -6.117752l0 0c1.6225281 0 3.1786041 0.6445465 4.3259125 1.7918549c1.1473083 1.1472931 1.7918549 2.7033691 1.7918549 4.325897l0 0c0 3.3787537 -2.7390137 6.1177673 -6.1177673 6.1177673l0 0c-3.3787384 0 -6.1177673 -2.7390137 -6.1177673 -6.1177673z" fill-rule="evenodd"/><path stroke="#f2f2f2" stroke-width="4.0" stroke-linejoin="round" stroke-linecap="butt" d="m161.88336 168.00063l0 0c0 -3.3787384 2.739029 -6.117752 6.1177673 -6.117752l0 0c1.6225281 0 3.1786041 0.6445465 4.3259125 1.7918549c1.1473083 1.1472931 1.7918549 2.7033691 1.7918549 4.325897l0 0c0 3.3787537 -2.7390137 6.1177673 -6.1177673 6.1177673l0 0c-3.3787384 0 -6.1177673 -2.7390137 -6.1177673 -6.1177673z" fill-rule="evenodd"/><path fill="#000000" fill-opacity="0.0" d="m27.419706 168.00063l0 0c0 -77.64012 62.93976 -140.5799 140.5799 -140.5799l0 0c37.284103 0 73.04115 14.811054 99.405 41.174896c26.36383 26.363846 41.174896 62.120888 41.174896 99.40499l0 0c0 77.64014 -62.939774 140.57991 -140.5799 140.57991l0 0c-77.64014 0 -140.5799 -62.939774 -140.5799 -140.57991z" fill-rule="evenodd"/><path stroke="#f2f2f2" stroke-width="4.0" stroke-linejoin="round" stroke-linecap="butt" d="m27.419706 168.00063l0 0c0 -77.64012 62.93976 -140.5799 140.5799 -140.5799l0 0c37.284103 0 73.04115 14.811054 99.405 41.174896c26.36383 26.363846 41.174896 62.120888 41.174896 99.40499l0 0c0 77.64014 -62.939774 140.57991 -140.5799 140.57991l0 0c-77.64014 0 -140.5799 -62.939774 -140.5799 -140.57991z" fill-rule="evenodd"/><path fill="#000000" fill-opacity="0.0" d="m83.862404 212.93573l40.220474 0l0 39.212585l-40.220474 0z" fill-rule="evenodd"/><path fill="#f2f2f2" d="m103.966965 239.68077q-1.625 0 -2.890625 -0.796875q-1.265625 -0.796875 -1.984375 -2.3125q-0.71875 -1.53125 -0.71875 -3.640625q0 -2.109375 0.71875 -3.625q0.71875 -1.515625 1.984375 -2.3125q1.265625 -0.8125 2.890625 -0.8125q1.625 0 2.890625 0.8125q1.265625 0.796875 1.984375 2.3125q0.71875 1.515625 0.71875 3.625q0 2.109375 -0.71875 3.640625q-0.71875 1.515625 -1.984375 2.3125q-1.265625 0.796875 -2.890625 0.796875zm0 -2.546875q1.1875 0 1.859375 -1.03125q0.6875 -1.03125 0.6875 -3.171875q0 -2.140625 -0.6875 -3.171875q-0.671875 -1.03125 -1.859375 -1.03125q-1.171875 0 -1.859375 1.03125q-0.6875 1.03125 -0.6875 3.171875q0 2.140625 0.6875 3.171875q0.6875 1.03125 1.859375 1.03125z" fill-rule="nonzero"/><path fill="#000000" fill-opacity="0.0" d="m205.58688 211.1858l48.18898 0l0 39.2126l-48.18898 0z" fill-rule="evenodd"/><path fill="#f2f2f2" d="m225.45657 224.6496l0 13.0625l-3.015625 0l0 -10.640625l-2.625 0l0 -2.421875l5.640625 0zm7.8757477 13.28125q-1.625 0 -2.890625 -0.796875q-1.265625 -0.796875 -1.984375 -2.3125q-0.71875 -1.53125 -0.71875 -3.640625q0 -2.109375 0.71875 -3.625q0.71875 -1.515625 1.984375 -2.3125q1.265625 -0.8125 2.890625 -0.8125q1.625 0 2.890625 0.8125q1.265625 0.796875 1.984375 2.3125q0.71875 1.515625 0.71875 3.625q0 2.109375 -0.71875 3.640625q-0.71875 1.515625 -1.984375 2.3125q-1.265625 0.796875 -2.890625 0.796875zm0 -2.546875q1.1875 0 1.859375 -1.03125q0.6875 -1.03125 0.6875 -3.171875q0 -2.140625 -0.6875 -3.171875q-0.671875 -1.03125 -1.859375 -1.03125q-1.171875 0 -1.859375 1.03125q-0.6875 1.03125 -0.6875 3.171875q0 2.140625 0.6875 3.171875q0.6875 1.03125 1.859375 1.03125z" fill-rule="nonzero"/><path fill="#000000" fill-opacity="0.0" d="m70.789085 88.33329l74.551186 0l0 39.2126l-74.551186 0z" fill-rule="evenodd"/><path fill="#f2f2f2" d="m91.06236 115.01584q-0.765625 0 -1.28125 -0.515625q-0.515625 -0.53125 -0.515625 -1.3125q0 -0.8125 0.515625 -1.296875q0.515625 -0.5 1.28125 -0.5q0.765625 0 1.28125 0.5q0.53125 0.484375 0.53125 1.296875q0 0.78125 -0.53125 1.3125q-0.515625 0.515625 -1.28125 0.515625zm9.466064 -8.34375q1.25 0 2.265625 0.5q1.03125 0.5 1.625 1.4375q0.609375 0.921875 0.609375 2.125q0 1.3125 -0.65625 2.296875q-0.65625 0.984375 -1.78125 1.515625q-1.125 0.53125 -2.515625 0.53125q-2.734375 0 -4.28125 -1.671875q-1.546875 -1.6875 -1.546875 -4.796875q0 -2.21875 0.828125 -3.796875q0.84375 -1.59375 2.34375 -2.40625q1.5 -0.828125 3.484375 -0.828125q1.046875 0 2.0 0.234375q0.96875 0.234375 1.640625 0.65625l-1.125 2.21875q-0.96875 -0.65625 -2.4375 -0.65625q-1.671875 0 -2.640625 0.984375q-0.96875 0.96875 -1.046875 2.8125q1.15625 -1.15625 3.234375 -1.15625zm-0.609375 6.15625q0.96875 0 1.5625 -0.515625q0.609375 -0.53125 0.609375 -1.421875q0 -0.90625 -0.609375 -1.4375q-0.59375 -0.53125 -1.609375 -0.53125q-0.984375 0 -1.625 0.5625q-0.625 0.546875 -0.625 1.40625q0 0.859375 0.609375 1.40625q0.609375 0.53125 1.6875 0.53125zm15.962158 -0.4375l0 2.46875l-9.875 0l0 -1.953125l5.046875 -4.765625q0.796875 -0.765625 1.078125 -1.3125q0.28125 -0.546875 0.28125 -1.09375q0 -0.78125 -0.53125 -1.203125q-0.53125 -0.421875 -1.5625 -0.421875q-0.859375 0 -1.546875 0.328125q-0.6875 0.328125 -1.15625 0.984375l-2.203125 -1.421875q0.765625 -1.140625 2.109375 -1.78125q1.34375 -0.640625 3.078125 -0.640625q1.453125 0 2.546875 0.484375q1.09375 0.46875 1.703125 1.34375q0.609375 0.859375 0.609375 2.03125q0 1.0625 -0.453125 2.0q-0.453125 0.921875 -1.734375 2.125l-3.0 2.828125l5.609375 0zm5.725937 -5.6875q2.765625 0 4.078125 1.109375q1.3125 1.09375 1.3125 2.9375q0 1.203125 -0.59375 2.1875q-0.59375 0.96875 -1.828125 1.5625q-1.21875 0.578125 -3.0 0.578125q-1.390625 0 -2.71875 -0.359375q-1.328125 -0.359375 -2.265625 -1.03125l1.1875 -2.3125q0.75 0.5625 1.71875 0.875q0.96875 0.296875 2.0 0.296875q1.140625 0 1.78125 -0.4375q0.65625 -0.453125 0.65625 -1.265625q0 -0.828125 -0.6875 -1.25q-0.671875 -0.4375 -2.34375 -0.4375l-3.34375 0l0.671875 -7.359375l7.96875 0l0 2.421875l-5.453125 0l-0.203125 2.484375l1.0625 0z" fill-rule="nonzero"/><path fill="#000000" fill-opacity="0.0" d="m197.79768 88.916595l59.11812 0l0 39.2126l-59.11812 0z" fill-rule="evenodd"/><path fill="#f2f2f2" d="m224.34332 112.974144l0 2.46875l-9.875 0l0 -1.953125l5.046875 -4.765625q0.796875 -0.765625 1.078125 -1.3125q0.28125 -0.546875 0.28125 -1.09375q0 -0.78125 -0.53125 -1.203125q-0.53125 -0.421875 -1.5625 -0.421875q-0.859375 0 -1.546875 0.328125q-0.6875 0.328125 -1.15625 0.984375l-2.203125 -1.421875q0.765625 -1.140625 2.109375 -1.78125q1.34375 -0.640625 3.078125 -0.640625q1.453125 0 2.546875 0.484375q1.09375 0.46875 1.703125 1.34375q0.609375 0.859375 0.609375 2.03125q0 1.0625 -0.453125 2.0q-0.453125 0.921875 -1.734375 2.125l-3.0 2.828125l5.609375 0zm2.960312 2.625q-0.765625 0 -1.28125 -0.515625q-0.515625 -0.53125 -0.515625 -1.3125q0 -0.8125 0.515625 -1.296875q0.515625 -0.5 1.28125 -0.5q0.765625 0 1.28125 0.5q0.53125 0.484375 0.53125 1.296875q0 0.78125 -0.53125 1.3125q-0.515625 0.515625 -1.28125 0.515625zm7.6535645 -8.3125q2.765625 0 4.078125 1.109375q1.3125 1.09375 1.3125 2.9375q0 1.203125 -0.59375 2.1875q-0.59375 0.96875 -1.828125 1.5625q-1.21875 0.578125 -3.0 0.578125q-1.390625 0 -2.71875 -0.359375q-1.328125 -0.359375 -2.265625 -1.03125l1.1875 -2.3125q0.75 0.5625 1.71875 0.875q0.96875 0.296875 2.0 0.296875q1.140625 0 1.78125 -0.4375q0.65625 -0.453125 0.65625 -1.265625q0 -0.828125 -0.6875 -1.25q-0.671875 -0.4375 -2.34375 -0.4375l-3.34375 0l0.671875 -7.359375l7.96875 0l0 2.421875l-5.453125 0l-0.203125 2.484375l1.0625 0z" fill-rule="nonzero"/><path fill="#000000" fill-opacity="0.0" d="m57.40083 148.59294l108.53543 0l0 39.2126l-108.53543 0z" fill-rule="evenodd"/><path fill="#f2f2f2" d="m68.838326 175.27548q-0.765625 0 -1.28125 -0.515625q-0.515625 -0.53125 -0.515625 -1.3125q0 -0.8125 0.515625 -1.296875q0.515625 -0.5 1.28125 -0.5q0.765625 0 1.28125 0.5q0.53125 0.484375 0.53125 1.296875q0 0.78125 -0.53125 1.3125q-0.515625 0.515625 -1.28125 0.515625zm9.278564 -7.90625q1.71875 0.28125 2.625 1.28125q0.921875 1.0 0.921875 2.46875q0 1.140625 -0.609375 2.109375q-0.59375 0.953125 -1.8125 1.53125q-1.21875 0.578125 -2.984375 0.578125q-1.390625 0 -2.71875 -0.359375q-1.328125 -0.359375 -2.265625 -1.03125l1.171875 -2.3125q0.75 0.5625 1.71875 0.875q0.984375 0.296875 2.015625 0.296875q1.140625 0 1.78125 -0.4375q0.65625 -0.4375 0.65625 -1.25q0 -1.59375 -2.4375 -1.59375l-1.390625 0l0 -2.0l2.6875 -3.046875l-5.546875 0l0 -2.421875l9.140625 0l0 1.96875l-2.953125 3.34375zm9.98201 -5.3125l0 13.0625l-3.015625 0l0 -10.640625l-2.625 0l0 -2.421875l5.640625 0zm12.031998 10.59375l0 2.46875l-9.875 0l0 -1.953125l5.046875 -4.765625q0.796875 -0.765625 1.078125 -1.3125q0.28125 -0.546875 0.28125 -1.09375q0 -0.78125 -0.53125 -1.203125q-0.53125 -0.421875 -1.5625 -0.421875q-0.859375 0 -1.546875 0.328125q-0.6875 0.328125 -1.15625 0.984375l-2.203125 -1.421875q0.765625 -1.140625 2.109375 -1.78125q1.34375 -0.640625 3.078125 -0.640625q1.453125 0 2.546875 0.484375q1.09375 0.46875 1.703125 1.34375q0.609375 0.859375 0.609375 2.03125q0 1.0625 -0.453125 2.0q-0.453125 0.921875 -1.734375 2.125l-3.0 2.828125l5.609375 0zm5.725937 -5.6875q2.765625 0 4.078125 1.109375q1.3125 1.09375 1.3125 2.9375q0 1.203125 -0.59375 2.1875q-0.59375 0.96875 -1.828125 1.5625q-1.21875 0.578125 -3.0 0.578125q-1.390625 0 -2.71875 -0.359375q-1.328125 -0.359375 -2.265625 -1.03125l1.1875 -2.3125q0.75 0.5625 1.71875 0.875q0.96875 0.296875 2.0 0.296875q1.140625 0 1.78125 -0.4375q0.65625 -0.453125 0.65625 -1.265625q0 -0.828125 -0.6875 -1.25q-0.671875 -0.4375 -2.34375 -0.4375l-3.34375 0l0.671875 -7.359375l7.96875 0l0 2.421875l-5.453125 0l-0.203125 2.484375l1.0625 0z" fill-rule="nonzero"/><path fill="#000000" fill-opacity="0.0" d="m240.70589 148.5914l40.220474 0l0 39.2126l-40.220474 0z" fill-rule="evenodd"/><path fill="#f2f2f2" d="m260.46902 166.96146q2.765625 0 4.078125 1.109375q1.3125 1.09375 1.3125 2.9375q0 1.203125 -0.59375 2.1875q-0.59375 0.96875 -1.828125 1.5625q-1.21875 0.578125 -3.0 0.578125q-1.390625 0 -2.71875 -0.359375q-1.328125 -0.359375 -2.265625 -1.03125l1.1875 -2.3125q0.75 0.5625 1.71875 0.875q0.96875 0.296875 2.0 0.296875q1.140625 0 1.78125 -0.4375q0.65625 -0.453125 0.65625 -1.265625q0 -0.828125 -0.6875 -1.25q-0.671875 -0.4375 -2.34375 -0.4375l-3.34375 0l0.671875 -7.359375l7.96875 0l0 2.421875l-5.453125 0l-0.203125 2.484375l1.0625 0z" fill-rule="nonzero"/><path fill="#000000" fill-opacity="0.0" d="m136.77025 59.066944l62.48819 0l0 39.212597l-62.48819 0z" fill-rule="evenodd"/><path fill="#f2f2f2" d="m156.62555 72.53075l0 13.0625l-3.015625 0l0 -10.640625l-2.625 0l0 -2.421875l5.640625 0zm3.9851227 13.21875q-0.765625 0 -1.28125 -0.515625q-0.515625 -0.53125 -0.515625 -1.3125q0 -0.8125 0.515625 -1.296875q0.515625 -0.5 1.28125 -0.5q0.765625 0 1.28125 0.5q0.53125 0.484375 0.53125 1.296875q0 0.78125 -0.53125 1.3125q-0.515625 0.515625 -1.28125 0.515625zm12.934814 -2.625l0 2.46875l-9.875 0l0 -1.953125l5.046875 -4.765625q0.796875 -0.765625 1.078125 -1.3125q0.28125 -0.546875 0.28125 -1.09375q0 -0.78125 -0.53125 -1.203125q-0.53125 -0.421875 -1.5625 -0.421875q-0.859375 0 -1.546875 0.328125q-0.6875 0.328125 -1.15625 0.984375l-2.203125 -1.421875q0.765625 -1.140625 2.109375 -1.78125q1.34375 -0.640625 3.078125 -0.640625q1.453125 0 2.546875 0.484375q1.09375 0.46875 1.703125 1.34375q0.609375 0.859375 0.609375 2.03125q0 1.0625 -0.453125 2.0q-0.453125 0.921875 -1.734375 2.125l-3.0 2.828125l5.609375 0zm5.725937 -5.6875q2.765625 0 4.078125 1.109375q1.3125 1.09375 1.3125 2.9375q0 1.203125 -0.59375 2.1875q-0.59375 0.96875 -1.828125 1.5625q-1.21875 0.578125 -3.0 0.578125q-1.390625 0 -2.71875 -0.359375q-1.328125 -0.359375 -2.265625 -1.03125l1.1875 -2.3125q0.75 0.5625 1.71875 0.875q0.96875 0.296875 2.0 0.296875q1.140625 0 1.78125 -0.4375q0.65625 -0.453125 0.65625 -1.265625q0 -0.828125 -0.6875 -1.25q-0.671875 -0.4375 -2.34375 -0.4375l-3.34375 0l0.671875 -7.359375l7.96875 0l0 2.421875l-5.453125 0l-0.203125 2.484375l1.0625 0z" fill-rule="nonzero"/><path fill="#000000" fill-opacity="0.0" d="m130.72351 220.25278l74.55217 0l0 39.20511l-74.55217 0z" fill-rule="evenodd"/><path fill="#f2f2f2" d="m158.35223 243.97845l-6.078125 0l-1.15625 2.796875l-3.09375 0l5.828125 -13.0625l2.984375 0l5.84375 13.0625l-3.171875 0l-1.15625 -2.796875zm-0.953125 -2.296875l-2.078125 -5.0l-2.0625 5.0l4.140625 0zm12.90007 4.609375q-0.421875 0.3125 -1.046875 0.484375q-0.625 0.15625 -1.3125 0.15625q-1.796875 0 -2.78125 -0.90625q-0.96875 -0.921875 -0.96875 -2.703125l0 -4.125l-1.546875 0l0 -2.234375l1.546875 0l0 -2.4375l2.90625 0l0 2.4375l2.5 0l0 2.234375l-2.5 0l0 4.09375q0 0.625 0.328125 0.96875q0.328125 0.34375 0.921875 0.34375q0.6875 0 1.171875 -0.359375l0.78125 2.046875zm5.9592133 -3.453125l-1.40625 1.375l0 2.5625l-2.90625 0l0 -13.84375l2.90625 0l0 7.84375l4.25 -4.03125l3.484375 0l-4.1875 4.25l4.546875 5.78125l-3.515625 0l-3.171875 -3.9375zm9.094376 4.09375q-0.765625 0 -1.28125 -0.515625q-0.515625 -0.53125 -0.515625 -1.3125q0 -0.8125 0.515625 -1.296875q0.515625 -0.5 1.28125 -0.5q0.765625 0 1.28125 0.5q0.53125 0.484375 0.53125 1.296875q0 0.78125 -0.53125 1.3125q-0.515625 0.515625 -1.28125 0.515625z" fill-rule="nonzero"/><path fill="#000000" fill-opacity="0.0" d="m136.76779 238.51419l62.463623 0l0 39.20511l-62.463623 0z" fill-rule="evenodd"/><path fill="#f2f2f2" d="m167.57736 255.19675q1.484375 0 2.34375 0.875q0.875 0.859375 0.875 2.609375l0 4.515625l-2.28125 0l0 -4.15625q0 -0.9375 -0.390625 -1.40625q-0.390625 -0.46875 -1.109375 -0.46875q-0.796875 0 -1.265625 0.53125q-0.46875 0.515625 -0.46875 1.546875l0 3.953125l-2.296875 0l0 -4.15625q0 -1.875 -1.484375 -1.875q-0.796875 0 -1.265625 0.53125q-0.46875 0.515625 -0.46875 1.546875l0 3.953125l-2.28125 0l0 -7.890625l2.171875 0l0 0.921875q0.4375 -0.5 1.078125 -0.765625q0.640625 -0.265625 1.40625 -0.265625q0.828125 0 1.5 0.328125q0.6875 0.328125 1.09375 0.953125q0.484375 -0.609375 1.21875 -0.9375q0.75 -0.34375 1.625 -0.34375zm7.921341 8.125q-0.984375 0 -1.921875 -0.234375q-0.9375 -0.25 -1.484375 -0.625l0.765625 -1.640625q0.515625 0.34375 1.265625 0.5625q0.75 0.203125 1.46875 0.203125q1.453125 0 1.453125 -0.71875q0 -0.34375 -0.40625 -0.484375q-0.390625 -0.140625 -1.203125 -0.25q-0.96875 -0.140625 -1.609375 -0.328125q-0.625 -0.203125 -1.09375 -0.6875q-0.453125 -0.484375 -0.453125 -1.375q0 -0.75 0.421875 -1.328125q0.4375 -0.578125 1.265625 -0.890625q0.828125 -0.328125 1.96875 -0.328125q0.828125 0 1.65625 0.1875q0.828125 0.171875 1.375 0.5l-0.765625 1.625q-1.046875 -0.578125 -2.265625 -0.578125q-0.734375 0 -1.109375 0.203125q-0.359375 0.203125 -0.359375 0.515625q0 0.375 0.390625 0.53125q0.390625 0.140625 1.265625 0.265625q0.96875 0.15625 1.578125 0.34375q0.609375 0.1875 1.0625 0.671875q0.46875 0.484375 0.46875 1.34375q0 0.734375 -0.453125 1.3125q-0.4375 0.5625 -1.28125 0.890625q-0.84375 0.3125 -2.0 0.3125z" fill-rule="nonzero"/></g></svg>