<svg version="1.1" viewBox="0.0 0.0 240.0 240.0" fill="none" stroke="none" stroke-linecap="square" stroke-miterlimit="10" xmlns:xlink="http://www.w3.org/1999/xlink" xmlns="http://www.w3.org/2000/svg"><clipPath id="p.0"><path d="m0 0l240.0 0l0 240.0l-240.0 0l0 -240.0z" clip-rule="nonzero"/></clipPath><g clip-path="url(#p.0)"><path fill="#000000" fill-opacity="0.0" d="m0 0l240.0 0l0 240.0l-240.0 0z" fill-rule="evenodd"/><path fill="#000000" fill-opacity="0.0" d="m231.75633 119.74132l0 0c0 -61.714783 -50.02971 -111.7445 -111.74449 -111.7445l0 0c-29.636482 0 -58.05913 11.773047 -79.01529 32.729206c-20.95616 20.956158 -32.729206 49.37881 -32.729206 79.01529l0 0c0 61.714783 50.029716 111.74449 111.74449 111.74449l0 0c61.714783 0 111.74449 -50.02971 111.74449 -111.74449z" fill-rule="evenodd"/><path stroke="#f2f2f2" stroke-width="4.0" stroke-linejoin="round" stroke-linecap="butt" d="m231.75633 119.74132l0 0c0 -61.714783 -50.02971 -111.7445 -111.74449 -111.7445l0 0c-29.636482 0 -58.05913 11.773047 -79.01529 32.729206c-20.95616 20.956158 -32.729206 49.37881 -32.729206 79.01529l0 0c0 61.714783 50.029716 111.74449 111.74449 111.74449l0 0c61.714783 0 111.74449 -50.02971 111.74449 -111.74449z" fill-rule="evenodd"/><path fill="#000000" fill-opacity="0.0" d="m218.06337 119.74371l0 0c0 -54.160446 -43.905716 -98.06616 -98.06617 -98.06616l0 0c-26.008766 0 -50.95228 10.331942 -69.34325 28.722914c-18.390976 18.390972 -28.722918 43.33449 -28.722918 69.34325l0 0c0 54.160446 43.905724 98.06618 98.06617 98.06618l0 0c54.160454 0 98.06617 -43.90573 98.06617 -98.06618z" fill-rule="evenodd"/><path stroke="#f2f2f2" stroke-width="4.0" stroke-linejoin="round" stroke-linecap="butt" d="m218.06337 119.74371l0 0c0 -54.160446 -43.905716 -98.06616 -98.06617 -98.06616l0 0c-26.008766 0 -50.95228 10.331942 -69.34325 28.722914c-18.390976 18.390972 -28.722918 43.33449 -28.722918 69.34325l0 0c0 54.160446 43.905724 98.06618 98.06617 98.06618l0 0c54.160454 0 98.06617 -43.90573 98.06617 -98.06618z" fill-rule="evenodd"/><path fill="#000000" fill-opacity="0.0" d="m126.392975 126.712616c4.7266846 0 19.326431 4.4418335 28.360092 0c9.033676 -4.441841 15.622543 -22.209206 25.841888 -26.65104c10.21936 -4.441841 29.56186 0 35.474228 0" fill-rule="evenodd"/><path stroke="#f2f2f2" stroke-width="4.0" stroke-linejoin="round" stroke-linecap="butt" d="m126.392975 126.712616c4.7266846 0 19.326431 4.4418335 28.360092 0c9.033676 -4.441841 15.622543 -22.209206 25.841888 -26.65104c10.21936 -4.441841 29.56186 0 35.474228 0" fill-rule="evenodd"/><path fill="#000000" fill-opacity="0.0" d="m124.49639 139.14304c5.029808 0.02961731 20.272026 4.5899353 30.17881 0.17770386c9.906769 -4.412216 18.727432 -22.209198 29.261887 -26.65104c10.534439 -4.441841 28.287308 0 33.944763 0" fill-rule="evenodd"/><path stroke="#f2f2f2" stroke-width="4.0" stroke-linejoin="round" stroke-linecap="butt" d="m124.49639 139.14304c5.029808 0.02961731 20.272026 4.5899353 30.17881 0.17770386c9.906769 -4.412216 18.727432 -22.209198 29.261887 -26.65104c10.534439 -4.441841 28.287308 0 33.944763 0" fill-rule="evenodd"/><path fill="#000000" fill-opacity="0.0" d="m138.71336 140.99236c-3.121292 -0.2775879 -14.510902 -2.6335297 -18.727768 -1.6655731c-4.2168655 0.9679718 -5.463051 4.8171234 -6.573433 7.473343c-1.1103821 2.6562195 -0.074043274 7.053314 -0.08885193 8.463974" fill-rule="evenodd"/><path stroke="#f2f2f2" stroke-width="4.0" stroke-linejoin="round" stroke-linecap="butt" d="m138.71336 140.99236c-3.121292 -0.2775879 -14.510902 -2.6335297 -18.727768 -1.6655731c-4.2168655 0.9679718 -5.463051 4.8171234 -6.573433 7.473343c-1.1103821 2.6562195 -0.074043274 7.053314 -0.08885193 8.463974" fill-rule="evenodd"/><path fill="#000000" fill-opacity="0.0" d="m126.7501 113.385895c0 -4.7266846 4.441841 -19.326431 0 -28.3601c-4.441841 -9.033661 -22.209206 -15.622536 -26.65104 -25.841885c-4.441841 -10.219353 0 -29.561855 0 -35.474228" fill-rule="evenodd"/><path stroke="#f2f2f2" stroke-width="4.0" stroke-linejoin="round" stroke-linecap="butt" d="m126.7501 113.385895c0 -4.7266846 4.441841 -19.326431 0 -28.3601c-4.441841 -9.033661 -22.209206 -15.622536 -26.65104 -25.841885c-4.441841 -10.219353 0 -29.561855 0 -35.474228" fill-rule="evenodd"/><path fill="#000000" fill-opacity="0.0" d="m139.18059 115.28294c0.02961731 -5.0298004 4.58992 -20.272018 0.17770386 -30.178802c-4.412216 -9.906784 -22.209198 -18.72744 -26.65104 -29.261887c-4.441841 -10.534443 0 -28.28731 0 -33.94477" fill-rule="evenodd"/><path stroke="#f2f2f2" stroke-width="4.0" stroke-linejoin="round" stroke-linecap="butt" d="m139.18059 115.28294c0.02961731 -5.0298004 4.58992 -20.272018 0.17770386 -30.178802c-4.412216 -9.906784 -22.209198 -18.72744 -26.65104 -29.261887c-4.441841 -10.534443 0 -28.28731 0 -33.94477" fill-rule="evenodd"/><path fill="#000000" fill-opacity="0.0" d="m141.03006 101.065575c-0.27760315 3.121292 -2.633545 14.510895 -1.6655731 18.72776c0.96795654 4.2168655 4.817108 5.463051 7.4733276 6.573433c2.6562195 1.1103821 7.053314 0.074043274 8.463974 0.08885193" fill-rule="evenodd"/><path stroke="#f2f2f2" stroke-width="4.0" stroke-linejoin="round" stroke-linecap="butt" d="m141.03006 101.065575c-0.27760315 3.121292 -2.633545 14.510895 -1.6655731 18.72776c0.96795654 4.2168655 4.817108 5.463051 7.4733276 6.573433c2.6562195 1.1103821 7.053314 0.074043274 8.463974 0.08885193" fill-rule="evenodd"/><path fill="#000000" fill-opacity="0.0" d="m113.53665 112.83035c-4.7266846 0 -19.326439 -4.441841 -28.3601 0c-9.033661 4.4418335 -15.622536 22.209198 -25.841888 26.651031c-10.219353 4.4418488 -29.561853 0 -35.474224 0" fill-rule="evenodd"/><path stroke="#f2f2f2" stroke-width="4.0" stroke-linejoin="round" stroke-linecap="butt" d="m113.53665 112.83035c-4.7266846 0 -19.326439 -4.441841 -28.3601 0c-9.033661 4.4418335 -15.622536 22.209198 -25.841888 26.651031c-10.219353 4.4418488 -29.561853 0 -35.474224 0" fill-rule="evenodd"/><path fill="#000000" fill-opacity="0.0" d="m115.433235 100.39993c-5.0298004 -0.02961731 -20.272026 -4.5899353 -30.178802 -0.17771149c-9.906784 4.412224 -18.727448 22.209198 -29.26189 26.65104c-10.534443 4.4418488 -28.287312 0 -33.94477 0" fill-rule="evenodd"/><path stroke="#f2f2f2" stroke-width="4.0" stroke-linejoin="round" stroke-linecap="butt" d="m115.433235 100.39993c-5.0298004 -0.02961731 -20.272026 -4.5899353 -30.178802 -0.17771149c-9.906784 4.412224 -18.727448 22.209198 -29.26189 26.65104c-10.534443 4.4418488 -28.287312 0 -33.94477 0" fill-rule="evenodd"/><path fill="#000000" fill-opacity="0.0" d="m101.21627 98.550606c3.121292 0.27759552 14.510887 2.6335297 18.727753 1.6655731c4.2168655 -0.9679642 5.463051 -4.817116 6.573433 -7.4733353c1.1103821 -2.6562195 0.0740509 -7.053314 0.08885956 -8.463982" fill-rule="evenodd"/><path stroke="#f2f2f2" stroke-width="4.0" stroke-linejoin="round" stroke-linecap="butt" d="m101.21627 98.550606c3.121292 0.27759552 14.510887 2.6335297 18.727753 1.6655731c4.2168655 -0.9679642 5.463051 -4.817116 6.573433 -7.4733353c1.1103821 -2.6562195 0.0740509 -7.053314 0.08885956 -8.463982" fill-rule="evenodd"/><path fill="#000000" fill-opacity="0.0" d="m113.17953 126.157074c0 4.7266846 -4.441841 19.326431 0 28.360092c4.441841 9.033661 22.209206 15.622543 26.65104 25.841888c4.4418488 10.21936 0 29.56186 0 35.474228" fill-rule="evenodd"/><path stroke="#f2f2f2" stroke-width="4.0" stroke-linejoin="round" stroke-linecap="butt" d="m113.17953 126.157074c0 4.7266846 -4.441841 19.326431 0 28.360092c4.441841 9.033661 22.209206 15.622543 26.65104 25.841888c4.4418488 10.21936 0 29.56186 0 35.474228" fill-rule="evenodd"/><path fill="#000000" fill-opacity="0.0" d="m100.74905 124.26002c-0.02961731 5.029808 -4.5899353 20.272026 -0.17771149 30.17881c4.412216 9.906769 22.209198 18.727432 26.65104 29.261887c4.441841 10.534439 0 28.287308 0 33.944763" fill-rule="evenodd"/><path stroke="#f2f2f2" stroke-width="4.0" stroke-linejoin="round" stroke-linecap="butt" d="m100.74905 124.26002c-0.02961731 5.029808 -4.5899353 20.272026 -0.17771149 30.17881c4.412216 9.906769 22.209198 18.727432 26.65104 29.261887c4.441841 10.534439 0 28.287308 0 33.944763" fill-rule="evenodd"/><path fill="#000000" fill-opacity="0.0" d="m98.899574 138.47739c0.27759552 -3.121292 2.6335297 -14.510895 1.6655655 -18.727753c-0.96795654 -4.2168655 -4.817108 -5.4630585 -7.4733276 -6.573433c-2.6562195 -1.1103821 -7.053314 -0.0740509 -8.463982 -0.08885956" fill-rule="evenodd"/><path stroke="#f2f2f2" stroke-width="4.0" stroke-linejoin="round" stroke-linecap="butt" d="m98.899574 138.47739c0.27759552 -3.121292 2.6335297 -14.510895 1.6655655 -18.727753c-0.96795654 -4.2168655 -4.817108 -5.4630585 -7.4733276 -6.573433c-2.6562195 -1.1103821 -7.053314 -0.0740509 -8.463982 -0.08885956" fill-rule="evenodd"/><path fill="#000000" fill-opacity="0.0" d="m111.30856 119.73829l0 0c0 -4.7728195 3.869133 -8.6419525 8.6419525 -8.6419525l0 0c2.2919922 0 4.4901047 0.9104843 6.1107864 2.531166c1.6206818 1.6206818 2.531166 3.8187943 2.531166 6.1107864l0 0c0 4.7728195 -3.869133 8.64196 -8.6419525 8.64196l0 0c-4.7728195 0 -8.6419525 -3.8691406 -8.6419525 -8.64196z" fill-rule="evenodd"/><path stroke="#f2f2f2" stroke-width="4.0" stroke-linejoin="round" stroke-linecap="butt" d="m111.30856 119.73829l0 0c0 -4.7728195 3.869133 -8.6419525 8.6419525 -8.6419525l0 0c2.2919922 0 4.4901047 0.9104843 6.1107864 2.531166c1.6206818 1.6206818 2.531166 3.8187943 2.531166 6.1107864l0 0c0 4.7728195 -3.869133 8.64196 -8.6419525 8.64196l0 0c-4.7728195 0 -8.6419525 -3.8691406 -8.6419525 -8.64196z" fill-rule="evenodd"/><path fill="#000000" fill-opacity="0.0" d="m120.01184 7.9968195l0 13.6783285" fill-rule="evenodd"/><path stroke="#f2f2f2" stroke-width="4.0" stroke-linejoin="round" stroke-linecap="butt" d="m120.01184 7.9968195l0 13.6783285" fill-rule="evenodd"/><path fill="#000000" fill-opacity="0.0" d="m93.822655 12.0884285l1.8886414 12.075846" fill-rule="evenodd"/><path stroke="#f2f2f2" stroke-width="4.0" stroke-linejoin="round" stroke-linecap="butt" d="m93.822655 12.0884285l1.8886414 12.075846" fill-rule="evenodd"/><path fill="#000000" fill-opacity="0.0" d="m231.75539 119.84579l-13.678314 0" fill-rule="evenodd"/><path stroke="#f2f2f2" stroke-width="4.0" stroke-linejoin="round" stroke-linecap="butt" d="m231.75539 119.84579l-13.678314 0" fill-rule="evenodd"/><path fill="#000000" fill-opacity="0.0" d="m227.66376 93.66819l-12.075836 1.8886414" fill-rule="evenodd"/><path stroke="#f2f2f2" stroke-width="4.0" stroke-linejoin="round" stroke-linecap="butt" d="m227.66376 93.66819l-12.075836 1.8886414" fill-rule="evenodd"/><path fill="#000000" fill-opacity="0.0" d="m119.99944 232.00484l0 -13.678329" fill-rule="evenodd"/><path stroke="#f2f2f2" stroke-width="4.0" stroke-linejoin="round" stroke-linecap="butt" d="m119.99944 232.00484l0 -13.678329" fill-rule="evenodd"/><path fill="#000000" fill-opacity="0.0" d="m146.17719 227.91324l-1.8886414 -12.075851" fill-rule="evenodd"/><path stroke="#f2f2f2" stroke-width="4.0" stroke-linejoin="round" stroke-linecap="butt" d="m146.17719 227.91324l-1.8886414 -12.075851" fill-rule="evenodd"/><path fill="#000000" fill-opacity="0.0" d="m8.243499 120.23056l13.6783285 0" fill-rule="evenodd"/><path stroke="#f2f2f2" stroke-width="4.0" stroke-linejoin="round" stroke-linecap="butt" d="m8.243499 120.23056l13.6783285 0" fill-rule="evenodd"/><path fill="#000000" fill-opacity="0.0" d="m12.335129 146.40816l12.075846 -1.8886414" fill-rule="evenodd"/><path stroke="#f2f2f2" stroke-width="4.0" stroke-linejoin="round" stroke-linecap="butt" d="m12.335129 146.40816l12.075846 -1.8886414" fill-rule="evenodd"/></g></svg>