<svg version="1.1" viewBox="0.0 0.0 336.0 336.0" fill="none" stroke="none" stroke-linecap="square" stroke-miterlimit="10" xmlns:xlink="http://www.w3.org/1999/xlink" xmlns="http://www.w3.org/2000/svg"><clipPath id="p.0"><path d="m0 0l336.0 0l0 336.0l-336.0 0l0 -336.0z" clip-rule="nonzero"/></clipPath><g clip-path="url(#p.0)"><path fill="#000000" fill-opacity="0.0" d="m0 0l336.0 0l0 336.0l-336.0 0z" fill-rule="evenodd"/><path fill="#000000" fill-opacity="0.0" d="m44.621742 168.00108l0 0c0 -68.13322 55.232887 -123.366104 123.36611 -123.366104l0 0c32.71872 0 64.09738 12.997463 87.23302 36.1331c23.135635 23.135628 36.133102 54.51429 36.133102 87.23301l0 0c0 68.133224 -55.232895 123.366104 -123.36612 123.366104l0 0c-68.133224 0 -123.36611 -55.23288 -123.36611 -123.366104z" fill-rule="evenodd"/><path stroke="#f2f2f2" stroke-width="4.0" stroke-linejoin="round" stroke-linecap="butt" d="m44.621742 168.00108l0 0c0 -68.13322 55.232887 -123.366104 123.36611 -123.366104l0 0c32.71872 0 64.09738 12.997463 87.23302 36.1331c23.135635 23.135628 36.133102 54.51429 36.133102 87.23301l0 0c0 68.133224 -55.232895 123.366104 -123.36612 123.366104l0 0c-68.133224 0 -123.36611 -55.23288 -123.36611 -123.366104z" fill-rule="evenodd"/><path fill="#000000" fill-opacity="0.0" d="m91.57287 244.41608l17.634125 -17.634125" fill-rule="evenodd"/><path stroke="#f2f2f2" stroke-width="4.0" stroke-linejoin="round" stroke-linecap="butt" d="m91.57287 244.41608l17.634125 -17.634125" fill-rule="evenodd"/><path fill="#000000" fill-opacity="0.0" d="m244.40283 244.41608l-17.63411 -17.634125" fill-rule="evenodd"/><path stroke="#f2f2f2" stroke-width="4.0" stroke-linejoin="round" stroke-linecap="butt" d="m244.40283 244.41608l-17.63411 -17.634125" fill-rule="evenodd"/><path fill="#000000" fill-opacity="0.0" d="m226.77023 109.52667l17.634125 -17.634125" fill-rule="evenodd"/><path stroke="#f2f2f2" stroke-width="4.0" stroke-linejoin="round" stroke-linecap="butt" d="m226.77023 109.52667l17.634125 -17.634125" fill-rule="evenodd"/><path fill="#000000" fill-opacity="0.0" d="m109.205475 109.52667l-17.634125 -17.634125" fill-rule="evenodd"/><path stroke="#f2f2f2" stroke-width="4.0" stroke-linejoin="round" stroke-linecap="butt" d="m109.205475 109.52667l-17.634125 -17.634125" fill-rule="evenodd"/><path fill="#000000" fill-opacity="0.0" d="m74.67032 168.00108l12.192566 0" fill-rule="evenodd"/><path stroke="#f2f2f2" stroke-width="4.0" stroke-linejoin="round" stroke-linecap="butt" d="m74.67032 168.00108l12.192566 0" fill-rule="evenodd"/><path fill="#000000" fill-opacity="0.0" d="m167.98785 74.68355l0 12.076172" fill-rule="evenodd"/><path stroke="#f2f2f2" stroke-width="4.0" stroke-linejoin="round" stroke-linecap="butt" d="m167.98785 74.68355l0 12.076172" fill-rule="evenodd"/><path fill="#000000" fill-opacity="0.0" d="m249.11282 168.00108l12.192566 0" fill-rule="evenodd"/><path stroke="#f2f2f2" stroke-width="4.0" stroke-linejoin="round" stroke-linecap="butt" d="m249.11282 168.00108l12.192566 0" fill-rule="evenodd"/><path fill="#000000" fill-opacity="0.0" d="m163.14404 168.00108l0 0c0 -2.675827 2.1691895 -4.8450165 4.8450165 -4.8450165l0 0c1.2849884 0 2.517334 0.5104523 3.425949 1.4190674c0.9086151 0.9086304 1.4190826 2.140976 1.4190826 3.425949l0 0c0 2.675827 -2.1691895 4.8450165 -4.8450317 4.8450165l0 0c-2.675827 0 -4.8450165 -2.1691895 -4.8450165 -4.8450165z" fill-rule="evenodd"/><path stroke="#f2f2f2" stroke-width="4.0" stroke-linejoin="round" stroke-linecap="butt" d="m163.14404 168.00108l0 0c0 -2.675827 2.1691895 -4.8450165 4.8450165 -4.8450165l0 0c1.2849884 0 2.517334 0.5104523 3.425949 1.4190674c0.9086151 0.9086304 1.4190826 2.140976 1.4190826 3.425949l0 0c0 2.675827 -2.1691895 4.8450165 -4.8450317 4.8450165l0 0c-2.675827 0 -4.8450165 -2.1691895 -4.8450165 -4.8450165z" fill-rule="evenodd"/><path fill="#000000" fill-opacity="0.0" d="m56.654266 168.00108l0 0c0 -61.48784 49.84574 -111.33359 111.33359 -111.33359l0 0c29.527496 0 57.845642 11.729755 78.72473 32.608852c20.87909 20.879097 32.608856 49.197235 32.608856 78.72473l0 0c0 61.48784 -49.84575 111.3336 -111.33359 111.3336l0 0c-61.487846 0 -111.33359 -49.845764 -111.33359 -111.3336z" fill-rule="evenodd"/><path stroke="#f2f2f2" stroke-width="4.0" stroke-linejoin="round" stroke-linecap="butt" d="m56.654266 168.00108l0 0c0 -61.48784 49.84574 -111.33359 111.33359 -111.33359l0 0c29.527496 0 57.845642 11.729755 78.72473 32.608852c20.87909 20.879097 32.608856 49.197235 32.608856 78.72473l0 0c0 61.48784 -49.84575 111.3336 -111.33359 111.3336l0 0c-61.487846 0 -111.33359 -49.845764 -111.33359 -111.3336z" fill-rule="evenodd"/><path fill="#000000" fill-opacity="0.0" d="m101.3492 203.58047l31.874008 0l0 31.05513l-31.874008 0z" fill-rule="evenodd"/><path fill="#f2f2f2" d="m117.27914 224.35991q-1.28125 0 -2.28125 -0.625q-0.984375 -0.625 -1.546875 -1.8125q-0.5625 -1.203125 -0.5625 -2.859375q0 -1.65625 0.5625 -2.84375q0.5625 -1.203125 1.546875 -1.828125q1.0 -0.640625 2.28125 -0.640625q1.28125 0 2.265625 0.640625q1.0 0.625 1.5625 1.828125q0.5625 1.1875 0.5625 2.84375q0 1.65625 -0.5625 2.859375q-0.5625 1.1875 -1.5625 1.8125q-0.984375 0.625 -2.265625 0.625zm0 -2.0q0.9375 0 1.46875 -0.796875q0.53125 -0.8125 0.53125 -2.5q0 -1.6875 -0.53125 -2.484375q-0.53125 -0.8125 -1.46875 -0.8125q-0.921875 0 -1.46875 0.8125q-0.53125 0.796875 -0.53125 2.484375q0 1.6875 0.53125 2.5q0.546875 0.796875 1.46875 0.796875z" fill-rule="nonzero"/><path fill="#000000" fill-opacity="0.0" d="m197.74652 202.19467l38.173233 0l0 31.055115l-38.173233 0z" fill-rule="evenodd"/><path fill="#f2f2f2" d="m213.51595 212.5366l0 10.265625l-2.375 0l0 -8.359375l-2.046875 0l0 -1.90625l4.421875 0zm6.18277 10.4375q-1.28125 0 -2.28125 -0.625q-0.984375 -0.625 -1.546875 -1.8125q-0.5625 -1.203125 -0.5625 -2.859375q0 -1.65625 0.5625 -2.84375q0.5625 -1.203125 1.546875 -1.828125q1.0 -0.640625 2.28125 -0.640625q1.28125 0 2.265625 0.640625q1.0 0.625 1.5625 1.828125q0.5625 1.1875 0.5625 2.84375q0 1.65625 -0.5625 2.859375q-0.5625 1.1875 -1.5625 1.8125q-0.984375 0.625 -2.265625 0.625zm0 -2.0q0.9375 0 1.46875 -0.796875q0.53125 -0.8125 0.53125 -2.5q0 -1.6875 -0.53125 -2.484375q-0.53125 -0.8125 -1.46875 -0.8125q-0.921875 0 -1.46875 0.8125q-0.53125 0.796875 -0.53125 2.484375q0 1.6875 0.53125 2.5q0.546875 0.796875 1.46875 0.796875z" fill-rule="nonzero"/><path fill="#000000" fill-opacity="0.0" d="m90.99603 104.904015l59.055115 0l0 31.055122l-59.055115 0z" fill-rule="evenodd"/><path fill="#f2f2f2" d="m107.1736 125.63657q-0.609375 0 -1.015625 -0.40625q-0.40625 -0.421875 -0.40625 -1.03125q0 -0.640625 0.40625 -1.015625q0.40625 -0.390625 1.015625 -0.390625q0.59375 0 1.0 0.390625q0.421875 0.375 0.421875 1.015625q0 0.609375 -0.421875 1.03125q-0.40625 0.40625 -1.0 0.40625zm7.4337006 -6.5625q0.984375 0 1.78125 0.40625q0.8125 0.390625 1.28125 1.125q0.46875 0.71875 0.46875 1.671875q0 1.015625 -0.515625 1.796875q-0.515625 0.78125 -1.40625 1.203125q-0.875 0.40625 -1.96875 0.40625q-2.15625 0 -3.375 -1.3125q-1.203125 -1.328125 -1.203125 -3.765625q0 -1.75 0.65625 -2.984375q0.65625 -1.25 1.828125 -1.890625q1.1875 -0.65625 2.734375 -0.65625q0.828125 0 1.578125 0.1875q0.765625 0.1875 1.28125 0.515625l-0.875 1.75q-0.765625 -0.515625 -1.921875 -0.515625q-1.296875 0 -2.0625 0.765625q-0.765625 0.765625 -0.828125 2.203125q0.921875 -0.90625 2.546875 -0.90625zm-0.484375 4.84375q0.765625 0 1.234375 -0.40625q0.46875 -0.421875 0.46875 -1.125q0 -0.703125 -0.46875 -1.109375q-0.46875 -0.421875 -1.265625 -0.421875q-0.78125 0 -1.28125 0.4375q-0.5 0.421875 -0.5 1.09375q0 0.671875 0.484375 1.109375q0.484375 0.421875 1.328125 0.421875zm12.539185 -0.34375l0 1.9375l-7.75 0l0 -1.53125l3.953125 -3.75q0.640625 -0.59375 0.859375 -1.015625q0.21875 -0.4375 0.21875 -0.875q0 -0.609375 -0.421875 -0.9375q-0.421875 -0.328125 -1.21875 -0.328125q-0.6875 0 -1.234375 0.265625q-0.53125 0.25 -0.890625 0.75l-1.734375 -1.109375q0.59375 -0.890625 1.640625 -1.390625q1.0625 -0.515625 2.4375 -0.515625q1.140625 0 2.0 0.375q0.859375 0.375 1.328125 1.0625q0.484375 0.671875 0.484375 1.59375q0 0.84375 -0.359375 1.578125q-0.34375 0.734375 -1.359375 1.671875l-2.359375 2.21875l4.40625 0zm4.506592 -4.46875q2.171875 0 3.203125 0.875q1.03125 0.859375 1.03125 2.3125q0 0.9375 -0.46875 1.703125q-0.46875 0.765625 -1.4375 1.234375q-0.953125 0.453125 -2.359375 0.453125q-1.09375 0 -2.140625 -0.28125q-1.046875 -0.28125 -1.78125 -0.8125l0.9375 -1.8125q0.59375 0.4375 1.34375 0.6875q0.765625 0.234375 1.578125 0.234375q0.890625 0 1.40625 -0.34375q0.515625 -0.359375 0.515625 -1.0q0 -0.65625 -0.546875 -0.984375q-0.53125 -0.34375 -1.84375 -0.34375l-2.625 0l0.53125 -5.78125l6.25 0l0 1.90625l-4.265625 0l-0.171875 1.953125l0.84375 0z" fill-rule="nonzero"/><path fill="#000000" fill-opacity="0.0" d="m191.57802 105.36595l46.83464 0l0 31.055115l-46.83464 0z" fill-rule="evenodd"/><path fill="#f2f2f2" d="m212.62589 124.03601l0 1.9375l-7.75 0l0 -1.53125l3.953125 -3.75q0.640625 -0.59375 0.859375 -1.015625q0.21875 -0.4375 0.21875 -0.875q0 -0.609375 -0.421875 -0.9375q-0.421875 -0.328125 -1.21875 -0.328125q-0.6875 0 -1.234375 0.265625q-0.53125 0.25 -0.890625 0.75l-1.734375 -1.109375q0.59375 -0.890625 1.640625 -1.390625q1.0625 -0.515625 2.4375 -0.515625q1.140625 0 2.0 0.375q0.859375 0.375 1.328125 1.0625q0.484375 0.671875 0.484375 1.59375q0 0.84375 -0.359375 1.578125q-0.34375 0.734375 -1.359375 1.671875l-2.359375 2.21875l4.40625 0zm2.3347168 2.0625q-0.609375 0 -1.015625 -0.40625q-0.40625 -0.421875 -0.40625 -1.03125q0 -0.640625 0.40625 -1.015625q0.40625 -0.390625 1.015625 -0.390625q0.59375 0 1.0 0.390625q0.421875 0.375 0.421875 1.015625q0 0.609375 -0.421875 1.03125q-0.40625 0.40625 -1.0 0.40625zm6.0118256 -6.53125q2.171875 0 3.203125 0.875q1.03125 0.859375 1.03125 2.3125q0 0.9375 -0.46875 1.703125q-0.46875 0.765625 -1.4375 1.234375q-0.953125 0.453125 -2.359375 0.453125q-1.09375 0 -2.140625 -0.28125q-1.046875 -0.28125 -1.78125 -0.8125l0.9375 -1.8125q0.59375 0.4375 1.34375 0.6875q0.765625 0.234375 1.578125 0.234375q0.890625 0 1.40625 -0.34375q0.515625 -0.359375 0.515625 -1.0q0 -0.65625 -0.546875 -0.984375q-0.53125 -0.34375 -1.84375 -0.34375l-2.625 0l0.53125 -5.78125l6.25 0l0 1.90625l-4.265625 0l-0.171875 1.953125l0.84375 0z" fill-rule="nonzero"/><path fill="#000000" fill-opacity="0.0" d="m80.39346 152.62546l85.95276 0l0 31.05513l-85.95276 0z" fill-rule="evenodd"/><path fill="#f2f2f2" d="m91.31534 173.35802q-0.609375 0 -1.015625 -0.40625q-0.40625 -0.421875 -0.40625 -1.03125q0 -0.640625 0.40625 -1.015625q0.40625 -0.390625 1.015625 -0.390625q0.59375 0 1.0 0.390625q0.421875 0.375 0.421875 1.015625q0 0.609375 -0.421875 1.03125q-0.40625 0.40625 -1.0 0.40625zm7.2774506 -6.203125q1.359375 0.21875 2.078125 1.0q0.71875 0.78125 0.71875 1.9375q0 0.890625 -0.484375 1.65625q-0.46875 0.75 -1.421875 1.203125q-0.953125 0.453125 -2.34375 0.453125q-1.09375 0 -2.140625 -0.28125q-1.046875 -0.28125 -1.78125 -0.8125l0.921875 -1.8125q0.59375 0.4375 1.359375 0.6875q0.765625 0.234375 1.578125 0.234375q0.890625 0 1.40625 -0.34375q0.515625 -0.34375 0.515625 -0.984375q0 -1.25 -1.921875 -1.25l-1.09375 0l0 -1.578125l2.109375 -2.390625l-4.359375 0l0 -1.90625l7.1875 0l0 1.546875l-2.328125 2.640625zm7.848404 -4.1875l0 10.265625l-2.375 0l0 -8.359375l-2.046875 0l0 -1.90625l4.421875 0zm9.448395 8.328125l0 1.9375l-7.75 0l0 -1.53125l3.953125 -3.75q0.640625 -0.59375 0.859375 -1.015625q0.21875 -0.4375 0.21875 -0.875q0 -0.609375 -0.421875 -0.9375q-0.421875 -0.328125 -1.21875 -0.328125q-0.6875 0 -1.234375 0.265625q-0.53125 0.25 -0.890625 0.75l-1.734375 -1.109375q0.59375 -0.890625 1.640625 -1.390625q1.0625 -0.515625 2.4375 -0.515625q1.140625 0 2.0 0.375q0.859375 0.375 1.328125 1.0625q0.484375 0.671875 0.484375 1.59375q0 0.84375 -0.359375 1.578125q-0.34375 0.734375 -1.359375 1.671875l-2.359375 2.21875l4.40625 0zm4.506592 -4.46875q2.171875 0 3.203125 0.875q1.03125 0.859375 1.03125 2.3125q0 0.9375 -0.46875 1.703125q-0.46875 0.765625 -1.4375 1.234375q-0.953125 0.453125 -2.359375 0.453125q-1.09375 0 -2.140625 -0.28125q-1.046875 -0.28125 -1.78125 -0.8125l0.9375 -1.8125q0.59375 0.4375 1.34375 0.6875q0.765625 0.234375 1.578125 0.234375q0.890625 0 1.40625 -0.34375q0.515625 -0.359375 0.515625 -1.0q0 -0.65625 -0.546875 -0.984375q-0.53125 -0.34375 -1.84375 -0.34375l-2.625 0l0.53125 -5.78125l6.25 0l0 1.90625l-4.265625 0l-0.171875 1.953125l0.84375 0z" fill-rule="nonzero"/><path fill="#000000" fill-opacity="0.0" d="m225.55833 152.62425l31.874008 0l0 31.055115l-31.874008 0z" fill-rule="evenodd"/><path fill="#f2f2f2" d="m241.22884 166.82556q2.171875 0 3.203125 0.875q1.03125 0.859375 1.03125 2.3125q0 0.9375 -0.46875 1.703125q-0.46875 0.765625 -1.4375 1.234375q-0.953125 0.453125 -2.359375 0.453125q-1.09375 0 -2.140625 -0.28125q-1.046875 -0.28125 -1.78125 -0.8125l0.9375 -1.8125q0.59375 0.4375 1.34375 0.6875q0.765625 0.234375 1.578125 0.234375q0.890625 0 1.40625 -0.34375q0.515625 -0.359375 0.515625 -1.0q0 -0.65625 -0.546875 -0.984375q-0.53125 -0.34375 -1.84375 -0.34375l-2.625 0l0.53125 -5.78125l6.25 0l0 1.90625l-4.265625 0l-0.171875 1.953125l0.84375 0z" fill-rule="nonzero"/><path fill="#000000" fill-opacity="0.0" d="m143.24854 81.727104l49.480316 0l0 31.055115l-49.480316 0z" fill-rule="evenodd"/><path fill="#f2f2f2" d="m159.04347 92.06904l0 10.265625l-2.375 0l0 -8.359375l-2.046875 0l0 -1.90625l4.421875 0zm3.1358948 10.390625q-0.609375 0 -1.015625 -0.40625q-0.40625 -0.421875 -0.40625 -1.03125q0 -0.640625 0.40625 -1.015625q0.40625 -0.390625 1.015625 -0.390625q0.59375 0 1.0 0.390625q0.421875 0.375 0.421875 1.015625q0 0.609375 -0.421875 1.03125q-0.40625 0.40625 -1.0 0.40625zm10.152451 -2.0625l0 1.9375l-7.75 0l0 -1.53125l3.953125 -3.75q0.640625 -0.59375 0.859375 -1.015625q0.21875 -0.4375 0.21875 -0.875q0 -0.609375 -0.421875 -0.9375q-0.421875 -0.328125 -1.21875 -0.328125q-0.6875 0 -1.234375 0.265625q-0.53125 0.25 -0.890625 0.75l-1.734375 -1.109375q0.59375 -0.890625 1.640625 -1.390625q1.0625 -0.515625 2.4375 -0.515625q1.140625 0 2.0 0.375q0.859375 0.375 1.328125 1.0625q0.484375 0.671875 0.484375 1.59375q0 0.84375 -0.359375 1.578125q-0.34375 0.734375 -1.359375 1.671875l-2.359375 2.21875l4.40625 0zm4.506592 -4.46875q2.171875 0 3.203125 0.875q1.03125 0.859375 1.03125 2.3125q0 0.9375 -0.46875 1.703125q-0.46875 0.765625 -1.4375 1.234375q-0.953125 0.453125 -2.359375 0.453125q-1.09375 0 -2.140625 -0.28125q-1.046875 -0.28125 -1.78125 -0.8125l0.9375 -1.8125q0.59375 0.4375 1.34375 0.6875q0.765625 0.234375 1.578125 0.234375q0.890625 0 1.40625 -0.34375q0.515625 -0.359375 0.515625 -1.0q0 -0.65625 -0.546875 -0.984375q-0.53125 -0.34375 -1.84375 -0.34375l-2.625 0l0.53125 -5.78125l6.25 0l0 1.90625l-4.265625 0l-0.171875 1.953125l0.84375 0z" fill-rule="nonzero"/><path fill="#000000" fill-opacity="0.0" d="m138.4667 209.3807l59.042297 0l0 31.048859l-59.042297 0z" fill-rule="evenodd"/><path fill="#f2f2f2" d="m152.27856 219.7195l4.65625 0q1.671875 0 2.953125 0.640625q1.28125 0.640625 1.984375 1.796875q0.71875 1.15625 0.71875 2.703125q0 1.53125 -0.71875 2.6875q-0.703125 1.15625 -1.984375 1.796875q-1.28125 0.640625 -2.953125 0.640625l-4.65625 0l0 -10.265625zm4.546875 8.3125q1.53125 0 2.4375 -0.859375q0.921875 -0.859375 0.921875 -2.3125q0 -1.46875 -0.921875 -2.328125q-0.90625 -0.859375 -2.4375 -0.859375l-2.171875 0l0 6.359375l2.171875 0zm15.121735 -1.953125q0 0.03125 -0.046875 0.609375l-5.96875 0q0.171875 0.734375 0.765625 1.15625q0.609375 0.421875 1.5 0.421875q0.609375 0 1.078125 -0.171875q0.484375 -0.1875 0.890625 -0.59375l1.21875 1.328125q-1.109375 1.28125 -3.25 1.28125q-1.328125 0 -2.359375 -0.515625q-1.03125 -0.53125 -1.59375 -1.453125q-0.546875 -0.921875 -0.546875 -2.09375q0 -1.15625 0.546875 -2.09375q0.546875 -0.9375 1.5 -1.453125q0.96875 -0.515625 2.15625 -0.515625q1.15625 0 2.09375 0.5q0.9375 0.5 1.46875 1.4375q0.546875 0.921875 0.546875 2.15625zm-4.09375 -2.359375q-0.78125 0 -1.3125 0.4375q-0.515625 0.4375 -0.640625 1.203125l3.890625 0q-0.125 -0.75 -0.65625 -1.1875q-0.515625 -0.453125 -1.28125 -0.453125zm9.419998 6.390625q-1.25 0 -2.265625 -0.515625q-1.0 -0.53125 -1.5625 -1.453125q-0.5625 -0.921875 -0.5625 -2.09375q0 -1.171875 0.5625 -2.09375q0.5625 -0.9375 1.5625 -1.453125q1.015625 -0.515625 2.265625 -0.515625q1.25 0 2.171875 0.515625q0.9375 0.515625 1.359375 1.484375l-1.765625 0.953125q-0.609375 -1.078125 -1.78125 -1.078125q-0.890625 0 -1.484375 0.59375q-0.578125 0.578125 -0.578125 1.59375q0 1.0 0.578125 1.59375q0.59375 0.578125 1.484375 0.578125q1.1875 0 1.78125 -1.078125l1.765625 0.96875q-0.421875 0.9375 -1.359375 1.46875q-0.921875 0.53125 -2.171875 0.53125zm5.7243805 0q-0.609375 0 -1.015625 -0.40625q-0.40625 -0.421875 -0.40625 -1.03125q0 -0.640625 0.40625 -1.015625q0.40625 -0.390625 1.015625 -0.390625q0.59375 0 1.0 0.390625q0.421875 0.375 0.421875 1.015625q0 0.609375 -0.421875 1.03125q-0.40625 0.40625 -1.0 0.40625z" fill-rule="nonzero"/><path fill="#000000" fill-opacity="0.0" d="m143.25352 223.843l49.46866 0l0 31.048874l-49.46866 0z" fill-rule="evenodd"/><path fill="#f2f2f2" d="m167.67871 237.29494q1.078125 0 1.703125 0.640625q0.640625 0.625 0.640625 1.890625l0 3.28125l-1.65625 0l0 -3.03125q0 -0.671875 -0.28125 -1.0q-0.28125 -0.34375 -0.8125 -0.34375q-0.578125 0 -0.921875 0.375q-0.34375 0.375 -0.34375 1.125l0 2.875l-1.65625 0l0 -3.03125q0 -1.34375 -1.09375 -1.34375q-0.578125 0 -0.921875 0.375q-0.34375 0.375 -0.34375 1.125l0 2.875l-1.65625 0l0 -5.734375l1.59375 0l0 0.65625q0.3125 -0.359375 0.78125 -0.546875q0.46875 -0.1875 1.015625 -0.1875q0.609375 0 1.09375 0.234375q0.5 0.234375 0.796875 0.703125q0.34375 -0.453125 0.875 -0.6875q0.546875 -0.25 1.1875 -0.25zm5.7722626 5.890625q-0.71875 0 -1.40625 -0.171875q-0.671875 -0.171875 -1.078125 -0.4375l0.546875 -1.1875q0.390625 0.234375 0.921875 0.390625q0.546875 0.15625 1.078125 0.15625q1.046875 0 1.046875 -0.515625q0 -0.25 -0.296875 -0.359375q-0.28125 -0.109375 -0.875 -0.1875q-0.703125 -0.09375 -1.171875 -0.234375q-0.453125 -0.140625 -0.78125 -0.484375q-0.328125 -0.359375 -0.328125 -1.015625q0 -0.53125 0.3125 -0.953125q0.3125 -0.421875 0.90625 -0.65625q0.609375 -0.234375 1.421875 -0.234375q0.609375 0 1.203125 0.140625q0.609375 0.125 1.015625 0.359375l-0.5625 1.171875q-0.75 -0.421875 -1.65625 -0.421875q-0.53125 0 -0.796875 0.15625q-0.265625 0.140625 -0.265625 0.375q0 0.265625 0.28125 0.375q0.296875 0.109375 0.921875 0.203125q0.703125 0.125 1.140625 0.265625q0.453125 0.125 0.78125 0.484375q0.34375 0.34375 0.34375 0.96875q0 0.53125 -0.328125 0.953125q-0.3125 0.40625 -0.9375 0.640625q-0.609375 0.21875 -1.4375 0.21875z" fill-rule="nonzero"/><path fill="#000000" fill-opacity="0.0" d="m35.08549 13.151646c22.171837 3.6175728 88.68736 21.715652 133.03104 21.70544c44.343674 -0.010211945 110.85921 -18.138933 133.03102 -21.76672" fill-rule="evenodd"/><path stroke="#f2f2f2" stroke-width="4.0" stroke-linejoin="round" stroke-linecap="butt" d="m35.08549 13.151646c22.171837 3.6175728 88.68736 21.715652 133.03104 21.70544c44.343674 -0.010211945 110.85921 -18.138933 133.03102 -21.76672" fill-rule="evenodd"/><path fill="#000000" fill-opacity="0.0" d="m35.942184 13.139108l-25.133858 0" fill-rule="evenodd"/><path stroke="#f2f2f2" stroke-width="4.0" stroke-linejoin="round" stroke-linecap="butt" d="m35.942184 13.139108l-25.133858 0" fill-rule="evenodd"/><path fill="#000000" fill-opacity="0.0" d="m300.72116 13.13888l24.472443 0" fill-rule="evenodd"/><path stroke="#f2f2f2" stroke-width="4.0" stroke-linejoin="round" stroke-linecap="butt" d="m300.72116 13.13888l24.472443 0" fill-rule="evenodd"/><path fill="#000000" fill-opacity="0.0" d="m301.02628 322.84674c-22.171844 -3.6175842 -88.68735 -21.715668 -133.03102 -21.705444c-44.34369 0.010223389 -110.85921 18.138947 -133.03104 21.766724" fill-rule="evenodd"/><path stroke="#f2f2f2" stroke-width="4.0" stroke-linejoin="round" stroke-linecap="butt" d="m301.02628 322.84674c-22.171844 -3.6175842 -88.68735 -21.715668 -133.03102 -21.705444c-44.34369 0.010223389 -110.85921 18.138947 -133.03104 21.766724" fill-rule="evenodd"/><path fill="#000000" fill-opacity="0.0" d="m300.84244 322.8595l22.992126 0" fill-rule="evenodd"/><path stroke="#f2f2f2" stroke-width="4.0" stroke-linejoin="round" stroke-linecap="butt" d="m300.84244 322.8595l22.992126 0" fill-rule="evenodd"/><path fill="#000000" fill-opacity="0.0" d="m35.390606 322.8595l-22.992126 0" fill-rule="evenodd"/><path stroke="#f2f2f2" stroke-width="4.0" stroke-linejoin="round" stroke-linecap="butt" d="m35.390606 322.8595l-22.992126 0" fill-rule="evenodd"/><path fill="#000000" fill-opacity="0.0" d="m323.15558 35.09071c-3.6175842 22.17184 -21.715668 88.68736 -21.705444 133.03104c0.010223389 44.343674 18.138916 110.85921 21.766724 133.03105" fill-rule="evenodd"/><path stroke="#f2f2f2" stroke-width="4.0" stroke-linejoin="round" stroke-linecap="butt" d="m323.15558 35.09071c-3.6175842 22.17184 -21.715668 88.68736 -21.705444 133.03104c0.010223389 44.343674 18.138916 110.85921 21.766724 133.03105" fill-rule="evenodd"/><path fill="#000000" fill-opacity="0.0" d="m323.1679 35.884514l0 -23.59055" fill-rule="evenodd"/><path stroke="#f2f2f2" stroke-width="4.0" stroke-linejoin="round" stroke-linecap="butt" d="m323.1679 35.884514l0 -23.59055" fill-rule="evenodd"/><path fill="#000000" fill-opacity="0.0" d="m323.16833 300.72638l0 22.992126" fill-rule="evenodd"/><path stroke="#f2f2f2" stroke-width="4.0" stroke-linejoin="round" stroke-linecap="butt" d="m323.16833 300.72638l0 22.992126" fill-rule="evenodd"/><path fill="#000000" fill-opacity="0.0" d="m12.815774 300.90894c3.6175737 -22.171814 21.715656 -88.68735 21.70544 -133.03102c-0.010211945 -44.34368 -18.138931 -110.85921 -21.766718 -133.03104" fill-rule="evenodd"/><path stroke="#f2f2f2" stroke-width="4.0" stroke-linejoin="round" stroke-linecap="butt" d="m12.815774 300.90894c3.6175737 -22.171814 21.715656 -88.68735 21.70544 -133.03102c-0.010211945 -44.34368 -18.138931 -110.85921 -21.766718 -133.03104" fill-rule="evenodd"/><path fill="#000000" fill-opacity="0.0" d="m12.803008 300.72513l0 22.992126" fill-rule="evenodd"/><path stroke="#f2f2f2" stroke-width="4.0" stroke-linejoin="round" stroke-linecap="butt" d="m12.803008 300.72513l0 22.992126" fill-rule="evenodd"/><path fill="#000000" fill-opacity="0.0" d="m12.803008 35.27327l0 -22.992125" fill-rule="evenodd"/><path stroke="#f2f2f2" stroke-width="4.0" stroke-linejoin="round" stroke-linecap="butt" d="m12.803008 35.27327l0 -22.992125" fill-rule="evenodd"/><path fill="#000000" fill-opacity="0.0" d="m21.448748 30.637794l0 0c0 -5.2445297 4.2515316 -9.496061 9.496063 -9.496061l0 0c2.5185108 0 4.933874 1.0004749 6.714731 2.781332c1.7808571 1.7808571 2.78133 4.1962185 2.78133 6.7147293l0 0c0 5.2445297 -4.2515297 9.496063 -9.496061 9.496063l0 0c-5.2445316 0 -9.496063 -4.2515335 -9.496063 -9.496063z" fill-rule="evenodd"/><path stroke="#f2f2f2" stroke-width="4.0" stroke-linejoin="round" stroke-linecap="butt" d="m21.448748 30.637794l0 0c0 -5.2445297 4.2515316 -9.496061 9.496063 -9.496061l0 0c2.5185108 0 4.933874 1.0004749 6.714731 2.781332c1.7808571 1.7808571 2.78133 4.1962185 2.78133 6.7147293l0 0c0 5.2445297 -4.2515297 9.496063 -9.496061 9.496063l0 0c-5.2445316 0 -9.496063 -4.2515335 -9.496063 -9.496063z" fill-rule="evenodd"/><path fill="#000000" fill-opacity="0.0" d="m24.23008 23.923065l13.417324 13.417324" fill-rule="evenodd"/><path stroke="#f2f2f2" stroke-width="4.0" stroke-linejoin="round" stroke-linecap="butt" d="m24.23008 23.923065l13.417324 13.417324" fill-rule="evenodd"/><path fill="#000000" fill-opacity="0.0" d="m24.23008 37.352528l13.417324 -13.417324" fill-rule="evenodd"/><path stroke="#f2f2f2" stroke-width="4.0" stroke-linejoin="round" stroke-linecap="butt" d="m24.23008 37.352528l13.417324 -13.417324" fill-rule="evenodd"/><path fill="#000000" fill-opacity="0.0" d="m295.25845 30.637794l0 0c0 -5.2445297 4.251526 -9.496061 9.496063 -9.496061l0 0c2.5185242 0 4.9338684 1.0004749 6.7147217 2.781332c1.7808838 1.7808571 2.7813416 4.1962185 2.7813416 6.7147293l0 0c0 5.2445297 -4.251526 9.496063 -9.496063 9.496063l0 0c-5.2445374 0 -9.496063 -4.2515335 -9.496063 -9.496063z" fill-rule="evenodd"/><path stroke="#f2f2f2" stroke-width="4.0" stroke-linejoin="round" stroke-linecap="butt" d="m295.25845 30.637794l0 0c0 -5.2445297 4.251526 -9.496061 9.496063 -9.496061l0 0c2.5185242 0 4.9338684 1.0004749 6.7147217 2.781332c1.7808838 1.7808571 2.7813416 4.1962185 2.7813416 6.7147293l0 0c0 5.2445297 -4.251526 9.496063 -9.496063 9.496063l0 0c-5.2445374 0 -9.496063 -4.2515335 -9.496063 -9.496063z" fill-rule="evenodd"/><path fill="#000000" fill-opacity="0.0" d="m298.0398 23.923065l13.417328 13.417324" fill-rule="evenodd"/><path stroke="#f2f2f2" stroke-width="4.0" stroke-linejoin="round" stroke-linecap="butt" d="m298.0398 23.923065l13.417328 13.417324" fill-rule="evenodd"/><path fill="#000000" fill-opacity="0.0" d="m298.0398 37.352528l13.417328 -13.417324" fill-rule="evenodd"/><path stroke="#f2f2f2" stroke-width="4.0" stroke-linejoin="round" stroke-linecap="butt" d="m298.0398 37.352528l13.417328 -13.417324" fill-rule="evenodd"/><path fill="#000000" fill-opacity="0.0" d="m295.25845 304.88715l0 0c0 -5.2445374 4.251526 -9.496063 9.496063 -9.496063l0 0c2.5185242 0 4.9338684 1.0004578 6.7147217 2.781311c1.7808838 1.7808838 2.7813416 4.196228 2.7813416 6.714752l0 0c0 5.2445374 -4.251526 9.496063 -9.496063 9.496063l0 0c-5.2445374 0 -9.496063 -4.251526 -9.496063 -9.496063z" fill-rule="evenodd"/><path stroke="#f2f2f2" stroke-width="4.0" stroke-linejoin="round" stroke-linecap="butt" d="m295.25845 304.88715l0 0c0 -5.2445374 4.251526 -9.496063 9.496063 -9.496063l0 0c2.5185242 0 4.9338684 1.0004578 6.7147217 2.781311c1.7808838 1.7808838 2.7813416 4.196228 2.7813416 6.714752l0 0c0 5.2445374 -4.251526 9.496063 -9.496063 9.496063l0 0c-5.2445374 0 -9.496063 -4.251526 -9.496063 -9.496063z" fill-rule="evenodd"/><path fill="#000000" fill-opacity="0.0" d="m298.0398 298.1724l13.417328 13.417328" fill-rule="evenodd"/><path stroke="#f2f2f2" stroke-width="4.0" stroke-linejoin="round" stroke-linecap="butt" d="m298.0398 298.1724l13.417328 13.417328" fill-rule="evenodd"/><path fill="#000000" fill-opacity="0.0" d="m298.0398 311.60187l13.417328 -13.417328" fill-rule="evenodd"/><path stroke="#f2f2f2" stroke-width="4.0" stroke-linejoin="round" stroke-linecap="butt" d="m298.0398 311.60187l13.417328 -13.417328" fill-rule="evenodd"/><path fill="#000000" fill-opacity="0.0" d="m21.447435 304.88715l0 0c0 -5.2445374 4.2515316 -9.496063 9.496063 -9.496063l0 0c2.5185108 0 4.933874 1.0004578 6.714731 2.781311c1.7808571 1.7808838 2.78133 4.196228 2.78133 6.714752l0 0c0 5.2445374 -4.2515297 9.496063 -9.496061 9.496063l0 0c-5.2445316 0 -9.496063 -4.251526 -9.496063 -9.496063z" fill-rule="evenodd"/><path stroke="#f2f2f2" stroke-width="4.0" stroke-linejoin="round" stroke-linecap="butt" d="m21.447435 304.88715l0 0c0 -5.2445374 4.2515316 -9.496063 9.496063 -9.496063l0 0c2.5185108 0 4.933874 1.0004578 6.714731 2.781311c1.7808571 1.7808838 2.78133 4.196228 2.78133 6.714752l0 0c0 5.2445374 -4.2515297 9.496063 -9.496061 9.496063l0 0c-5.2445316 0 -9.496063 -4.251526 -9.496063 -9.496063z" fill-rule="evenodd"/><path fill="#000000" fill-opacity="0.0" d="m24.228767 298.1724l13.417324 13.417328" fill-rule="evenodd"/><path stroke="#f2f2f2" stroke-width="4.0" stroke-linejoin="round" stroke-linecap="butt" d="m24.228767 298.1724l13.417324 13.417328" fill-rule="evenodd"/><path fill="#000000" fill-opacity="0.0" d="m24.228767 311.60187l13.417324 -13.417328" fill-rule="evenodd"/><path stroke="#f2f2f2" stroke-width="4.0" stroke-linejoin="round" stroke-linecap="butt" d="m24.228767 311.60187l13.417324 -13.417328" fill-rule="evenodd"/></g></svg>