<svg version="1.1" viewBox="0.0 0.0 504.0 124.8005249343832" fill="none" stroke="none" stroke-linecap="square" stroke-miterlimit="10" xmlns:xlink="http://www.w3.org/1999/xlink" xmlns="http://www.w3.org/2000/svg"><clipPath id="p.0"><path d="m0 0l504.0 0l0 124.80052l-504.0 0l0 -124.80052z" clip-rule="nonzero"/></clipPath><g clip-path="url(#p.0)"><path fill="#000000" fill-opacity="0.0" d="m0 0l504.0 0l0 124.80052l-504.0 0z" fill-rule="evenodd"/><path fill="#000000" fill-opacity="0.0" d="m14.503937 13.896325l474.99213 0l0 97.00787l-474.99213 0z" fill-rule="evenodd"/><path stroke="#f2f2f2" stroke-width="4.0" stroke-linejoin="round" stroke-linecap="butt" d="m14.503937 13.896325l474.99213 0l0 97.00787l-474.99213 0z" fill-rule="evenodd"/><path fill="#000000" fill-opacity="0.0" d="m27.496063 25.3084l449.00787 0l0 36.0l-449.00787 0z" fill-rule="evenodd"/><path stroke="#f2f2f2" stroke-width="2.0" stroke-linejoin="round" stroke-linecap="butt" d="m27.496063 25.3084l449.00787 0l0 36.0l-449.00787 0z" fill-rule="evenodd"/><path fill="#000000" fill-opacity="0.0" d="m31.496063 28.89895l441.00787 0" fill-rule="evenodd"/><path stroke="#f2f2f2" stroke-width="1.0" stroke-linejoin="round" stroke-linecap="butt" d="m31.496063 28.89895l441.00787 0" fill-rule="evenodd"/><path fill="#000000" fill-opacity="0.0" d="m31.496063 28.89895l0 17.511812" fill-rule="evenodd"/><path stroke="#f2f2f2" stroke-width="1.0" stroke-linejoin="round" stroke-linecap="butt" d="m31.496063 28.89895l0 17.511812" fill-rule="evenodd"/><path fill="#000000" fill-opacity="0.0" d="m53.546455 28.89895l0 7.7480297" fill-rule="evenodd"/><path stroke="#f2f2f2" stroke-width="1.0" stroke-linejoin="round" stroke-linecap="butt" d="m53.546455 28.89895l0 7.7480297" fill-rule="evenodd"/><path fill="#000000" fill-opacity="0.0" d="m75.59685 28.89895l0 7.4960613" fill-rule="evenodd"/><path stroke="#f2f2f2" stroke-width="1.0" stroke-linejoin="round" stroke-linecap="butt" d="m75.59685 28.89895l0 7.4960613" fill-rule="evenodd"/><path fill="#000000" fill-opacity="0.0" d="m97.64725 28.89895l0 7.4960613" fill-rule="evenodd"/><path stroke="#f2f2f2" stroke-width="1.0" stroke-linejoin="round" stroke-linecap="butt" d="m97.64725 28.89895l0 7.4960613" fill-rule="evenodd"/><path fill="#000000" fill-opacity="0.0" d="m119.69764 28.89895l0 7.7480297" fill-rule="evenodd"/><path stroke="#f2f2f2" stroke-width="1.0" stroke-linejoin="round" stroke-linecap="butt" d="m119.69764 28.89895l0 7.7480297" fill-rule="evenodd"/><path fill="#000000" fill-opacity="0.0" d="m141.74803 28.89895l0 12.503935" fill-rule="evenodd"/><path stroke="#f2f2f2" stroke-width="1.0" stroke-linejoin="round" stroke-linecap="butt" d="m141.74803 28.89895l0 12.503935" fill-rule="evenodd"/><path fill="#000000" fill-opacity="0.0" d="m163.79843 28.89895l0 7.999998" fill-rule="evenodd"/><path stroke="#f2f2f2" stroke-width="1.0" stroke-linejoin="round" stroke-linecap="butt" d="m163.79843 28.89895l0 7.999998" fill-rule="evenodd"/><path fill="#000000" fill-opacity="0.0" d="m185.84882 28.89895l0 7.999998" fill-rule="evenodd"/><path stroke="#f2f2f2" stroke-width="1.0" stroke-linejoin="round" stroke-linecap="butt" d="m185.84882 28.89895l0 7.999998" fill-rule="evenodd"/><path fill="#000000" fill-opacity="0.0" d="m207.89922 28.89895l0 7.999998" fill-rule="evenodd"/><path stroke="#f2f2f2" stroke-width="1.0" stroke-linejoin="round" stroke-linecap="butt" d="m207.89922 28.89895l0 7.999998" fill-rule="evenodd"/><path fill="#000000" fill-opacity="0.0" d="m229.9496 28.89895l0 7.7480297" fill-rule="evenodd"/><path stroke="#f2f2f2" stroke-width="1.0" stroke-linejoin="round" stroke-linecap="butt" d="m229.9496 28.89895l0 7.7480297" fill-rule="evenodd"/><path fill="#000000" fill-opacity="0.0" d="m252.0 28.89895l0 16.503935" fill-rule="evenodd"/><path stroke="#f2f2f2" stroke-width="1.0" stroke-linejoin="round" stroke-linecap="butt" d="m252.0 28.89895l0 16.503935" fill-rule="evenodd"/><path fill="#000000" fill-opacity="0.0" d="m274.05038 28.89895l0 7.7480297" fill-rule="evenodd"/><path stroke="#f2f2f2" stroke-width="1.0" stroke-linejoin="round" stroke-linecap="butt" d="m274.05038 28.89895l0 7.7480297" fill-rule="evenodd"/><path fill="#000000" fill-opacity="0.0" d="m296.1008 28.89895l0 7.4960613" fill-rule="evenodd"/><path stroke="#f2f2f2" stroke-width="1.0" stroke-linejoin="round" stroke-linecap="butt" d="m296.1008 28.89895l0 7.4960613" fill-rule="evenodd"/><path fill="#000000" fill-opacity="0.0" d="m318.15118 28.89895l0 7.999998" fill-rule="evenodd"/><path stroke="#f2f2f2" stroke-width="1.0" stroke-linejoin="round" stroke-linecap="butt" d="m318.15118 28.89895l0 7.999998" fill-rule="evenodd"/><path fill="#000000" fill-opacity="0.0" d="m340.20157 28.89895l0 7.7480297" fill-rule="evenodd"/><path stroke="#f2f2f2" stroke-width="1.0" stroke-linejoin="round" stroke-linecap="butt" d="m340.20157 28.89895l0 7.7480297" fill-rule="evenodd"/><path fill="#000000" fill-opacity="0.0" d="m362.25198 28.89895l0 12.503935" fill-rule="evenodd"/><path stroke="#f2f2f2" stroke-width="1.0" stroke-linejoin="round" stroke-linecap="butt" d="m362.25198 28.89895l0 12.503935" fill-rule="evenodd"/><path fill="#000000" fill-opacity="0.0" d="m384.30237 28.89895l0 7.7480297" fill-rule="evenodd"/><path stroke="#f2f2f2" stroke-width="1.0" stroke-linejoin="round" stroke-linecap="butt" d="m384.30237 28.89895l0 7.7480297" fill-rule="evenodd"/><path fill="#000000" fill-opacity="0.0" d="m406.35275 28.89895l0 7.999998" fill-rule="evenodd"/><path stroke="#f2f2f2" stroke-width="1.0" stroke-linejoin="round" stroke-linecap="butt" d="m406.35275 28.89895l0 7.999998" fill-rule="evenodd"/><path fill="#000000" fill-opacity="0.0" d="m428.40314 28.89895l0 7.4960613" fill-rule="evenodd"/><path stroke="#f2f2f2" stroke-width="1.0" stroke-linejoin="round" stroke-linecap="butt" d="m428.40314 28.89895l0 7.4960613" fill-rule="evenodd"/><path fill="#000000" fill-opacity="0.0" d="m450.45355 28.89895l0 7.244093" fill-rule="evenodd"/><path stroke="#f2f2f2" stroke-width="1.0" stroke-linejoin="round" stroke-linecap="butt" d="m450.45355 28.89895l0 7.244093" fill-rule="evenodd"/><path fill="#000000" fill-opacity="0.0" d="m472.50394 28.89895l0 17.511812" fill-rule="evenodd"/><path stroke="#f2f2f2" stroke-width="1.0" stroke-linejoin="round" stroke-linecap="butt" d="m472.50394 28.89895l0 17.511812" fill-rule="evenodd"/><path fill="#000000" fill-opacity="0.0" d="m227.49606 45.402885l49.007874 0l0 16.50394l-49.007874 0z" fill-rule="evenodd"/><path fill="#f2f2f2" d="m251.99466 58.532978q-1.078125 0 -1.921875 -0.5625q-0.84375 -0.578125 -1.328125 -1.65625q-0.46875 -1.078125 -0.46875 -2.53125q0 -1.453125 0.46875 -2.515625q0.484375 -1.078125 1.328125 -1.640625q0.84375 -0.578125 1.921875 -0.578125q1.078125 0 1.921875 0.578125q0.859375 0.5625 1.328125 1.640625q0.484375 1.0625 0.484375 2.515625q0 1.453125 -0.484375 2.53125q-0.46875 1.078125 -1.328125 1.65625q-0.84375 0.5625 -1.921875 0.5625zm0 -0.875q0.8125 0 1.4375 -0.453125q0.625 -0.453125 0.96875 -1.3125q0.34375 -0.875 0.34375 -2.109375q0 -1.21875 -0.34375 -2.078125q-0.34375 -0.875 -0.96875 -1.328125q-0.625 -0.453125 -1.4375 -0.453125q-0.8125 0 -1.4375 0.453125q-0.609375 0.453125 -0.953125 1.328125q-0.34375 0.859375 -0.34375 2.078125q0 1.234375 0.34375 2.109375q0.34375 0.859375 0.953125 1.3125q0.625 0.453125 1.4375 0.453125z" fill-rule="nonzero"/><path fill="#000000" fill-opacity="0.0" d="m338.24802 45.402885l49.007904 0l0 16.50394l-49.007904 0z" fill-rule="evenodd"/><path fill="#f2f2f2" d="m357.70917 52.954853q2.03125 0 2.953125 0.734375q0.9375 0.71875 0.9375 2.015625q0 0.8125 -0.390625 1.453125q-0.375 0.640625 -1.140625 1.015625q-0.75 0.359375 -1.859375 0.359375q-1.0 0 -1.90625 -0.328125q-0.890625 -0.328125 -1.4375 -0.875l0.46875 -0.75q0.453125 0.46875 1.21875 0.78125q0.765625 0.296875 1.640625 0.296875q1.15625 0 1.78125 -0.515625q0.640625 -0.53125 0.640625 -1.390625q0 -0.96875 -0.71875 -1.453125q-0.703125 -0.5 -2.390625 -0.5l-1.984375 0l0.46875 -4.671875l5.109375 0l0 0.84375l-4.265625 0l-0.3125 2.984375l1.1875 0zm8.809296 5.578125q-1.078125 0 -1.921875 -0.5625q-0.84375 -0.578125 -1.328125 -1.65625q-0.46875 -1.078125 -0.46875 -2.53125q0 -1.453125 0.46875 -2.515625q0.484375 -1.078125 1.328125 -1.640625q0.84375 -0.578125 1.921875 -0.578125q1.078125 0 1.921875 0.578125q0.859375 0.5625 1.328125 1.640625q0.484375 1.0625 0.484375 2.515625q0 1.453125 -0.484375 2.53125q-0.46875 1.078125 -1.328125 1.65625q-0.84375 0.5625 -1.921875 0.5625zm0 -0.875q0.8125 0 1.4375 -0.453125q0.625 -0.453125 0.96875 -1.3125q0.34375 -0.875 0.34375 -2.109375q0 -1.21875 -0.34375 -2.078125q-0.34375 -0.875 -0.96875 -1.328125q-0.625 -0.453125 -1.4375 -0.453125q-0.8125 0 -1.4375 0.453125q-0.609375 0.453125 -0.953125 1.328125q-0.34375 0.859375 -0.34375 2.078125q0 1.234375 0.34375 2.109375q0.34375 0.859375 0.953125 1.3125q0.625 0.453125 1.4375 0.453125z" fill-rule="nonzero"/><path fill="#000000" fill-opacity="0.0" d="m438.95013 45.402885l49.007874 0l0 16.50394l-49.007874 0z" fill-rule="evenodd"/><path fill="#f2f2f2" d="m455.5064 49.126728l0 9.328125l-0.96875 0l0 -8.484375l-2.1875 0l0 -0.84375l3.15625 0zm5.936432 9.40625q-1.078125 0 -1.921875 -0.5625q-0.84375 -0.578125 -1.328125 -1.65625q-0.46875 -1.078125 -0.46875 -2.53125q0 -1.453125 0.46875 -2.515625q0.484375 -1.078125 1.328125 -1.640625q0.84375 -0.578125 1.921875 -0.578125q1.078125 0 1.921875 0.578125q0.859375 0.5625 1.328125 1.640625q0.484375 1.0625 0.484375 2.515625q0 1.453125 -0.484375 2.53125q-0.46875 1.078125 -1.328125 1.65625q-0.84375 0.5625 -1.921875 0.5625zm0 -0.875q0.8125 0 1.4375 -0.453125q0.625 -0.453125 0.96875 -1.3125q0.34375 -0.875 0.34375 -2.109375q0 -1.21875 -0.34375 -2.078125q-0.34375 -0.875 -0.96875 -1.328125q-0.625 -0.453125 -1.4375 -0.453125q-0.8125 0 -1.4375 0.453125q-0.609375 0.453125 -0.953125 1.328125q-0.34375 0.859375 -0.34375 2.078125q0 1.234375 0.34375 2.109375q0.34375 0.859375 0.953125 1.3125q0.625 0.453125 1.4375 0.453125zm8.823181 0.875q-1.078125 0 -1.921875 -0.5625q-0.84375 -0.578125 -1.328125 -1.65625q-0.46875 -1.078125 -0.46875 -2.53125q0 -1.453125 0.46875 -2.515625q0.484375 -1.078125 1.328125 -1.640625q0.84375 -0.578125 1.921875 -0.578125q1.078125 0 1.921875 0.578125q0.859375 0.5625 1.328125 1.640625q0.484375 1.0625 0.484375 2.515625q0 1.453125 -0.484375 2.53125q-0.46875 1.078125 -1.328125 1.65625q-0.84375 0.5625 -1.921875 0.5625zm0 -0.875q0.8125 0 1.4375 -0.453125q0.625 -0.453125 0.96875 -1.3125q0.34375 -0.875 0.34375 -2.109375q0 -1.21875 -0.34375 -2.078125q-0.34375 -0.875 -0.96875 -1.328125q-0.625 -0.453125 -1.4375 -0.453125q-0.8125 0 -1.4375 0.453125q-0.609375 0.453125 -0.953125 1.328125q-0.34375 0.859375 -0.34375 2.078125q0 1.234375 0.34375 2.109375q0.34375 0.859375 0.953125 1.3125q0.625 0.453125 1.4375 0.453125z" fill-rule="nonzero"/><path fill="#000000" fill-opacity="0.0" d="m18.496063 45.402885l49.007874 0l0 16.50394l-49.007874 0z" fill-rule="evenodd"/><path fill="#f2f2f2" d="m30.022316 54.423603l3.5 0l0 0.828125l-3.5 0l0 -0.828125zm7.575699 -5.296875l0 9.328125l-0.96875 0l0 -8.484375l-2.1875 0l0 -0.84375l3.15625 0zm5.936432 9.40625q-1.078125 0 -1.921875 -0.5625q-0.84375 -0.578125 -1.328125 -1.65625q-0.46875 -1.078125 -0.46875 -2.53125q0 -1.453125 0.46875 -2.515625q0.484375 -1.078125 1.328125 -1.640625q0.84375 -0.578125 1.921875 -0.578125q1.078125 0 1.921875 0.578125q0.859375 0.5625 1.328125 1.640625q0.484375 1.0625 0.484375 2.515625q0 1.453125 -0.484375 2.53125q-0.46875 1.078125 -1.328125 1.65625q-0.84375 0.5625 -1.921875 0.5625zm0 -0.875q0.8125 0 1.4375 -0.453125q0.625 -0.453125 0.96875 -1.3125q0.34375 -0.875 0.34375 -2.109375q0 -1.21875 -0.34375 -2.078125q-0.34375 -0.875 -0.96875 -1.328125q-0.625 -0.453125 -1.4375 -0.453125q-0.8125 0 -1.4375 0.453125q-0.609375 0.453125 -0.953125 1.328125q-0.34375 0.859375 -0.34375 2.078125q0 1.234375 0.34375 2.109375q0.34375 0.859375 0.953125 1.3125q0.625 0.453125 1.4375 0.453125zm8.823181 0.875q-1.078125 0 -1.921875 -0.5625q-0.84375 -0.578125 -1.328125 -1.65625q-0.46875 -1.078125 -0.46875 -2.53125q0 -1.453125 0.46875 -2.515625q0.484375 -1.078125 1.328125 -1.640625q0.84375 -0.578125 1.921875 -0.578125q1.078125 0 1.921875 0.578125q0.859375 0.5625 1.328125 1.640625q0.484375 1.0625 0.484375 2.515625q0 1.453125 -0.484375 2.53125q-0.46875 1.078125 -1.328125 1.65625q-0.84375 0.5625 -1.921875 0.5625zm0 -0.875q0.8125 0 1.4375 -0.453125q0.625 -0.453125 0.96875 -1.3125q0.34375 -0.875 0.34375 -2.109375q0 -1.21875 -0.34375 -2.078125q-0.34375 -0.875 -0.96875 -1.328125q-0.625 -0.453125 -1.4375 -0.453125q-0.8125 0 -1.4375 0.453125q-0.609375 0.453125 -0.953125 1.328125q-0.34375 0.859375 -0.34375 2.078125q0 1.234375 0.34375 2.109375q0.34375 0.859375 0.953125 1.3125q0.625 0.453125 1.4375 0.453125z" fill-rule="nonzero"/><path fill="#000000" fill-opacity="0.0" d="m116.744095 45.401573l49.007874 0l0 16.503937l-49.007874 0z" fill-rule="evenodd"/><path fill="#f2f2f2" d="m131.31581 54.42229l3.5 0l0 0.828125l-3.5 0l0 -0.828125zm7.435074 -1.46875q2.03125 0 2.953125 0.734375q0.9375 0.71875 0.9375 2.015625q0 0.8125 -0.390625 1.453125q-0.375 0.640625 -1.140625 1.015625q-0.75 0.359375 -1.859375 0.359375q-1.0 0 -1.90625 -0.328125q-0.890625 -0.328125 -1.4375 -0.875l0.46875 -0.75q0.453125 0.46875 1.21875 0.78125q0.765625 0.296875 1.640625 0.296875q1.15625 0 1.78125 -0.515625q0.640625 -0.53125 0.640625 -1.390625q0 -0.96875 -0.71875 -1.453125q-0.703125 -0.5 -2.390625 -0.5l-1.984375 0l0.46875 -4.671875l5.109375 0l0 0.84375l-4.265625 0l-0.3125 2.984375l1.1875 0zm8.809311 5.578125q-1.078125 0 -1.921875 -0.5625q-0.84375 -0.578125 -1.328125 -1.65625q-0.46875 -1.078125 -0.46875 -2.53125q0 -1.453125 0.46875 -2.515625q0.484375 -1.078125 1.328125 -1.640625q0.84375 -0.578125 1.921875 -0.578125q1.078125 0 1.921875 0.578125q0.859375 0.5625 1.328125 1.640625q0.484375 1.0625 0.484375 2.515625q0 1.453125 -0.484375 2.53125q-0.46875 1.078125 -1.328125 1.65625q-0.84375 0.5625 -1.921875 0.5625zm0 -0.875q0.8125 0 1.4375 -0.453125q0.625 -0.453125 0.96875 -1.3125q0.34375 -0.875 0.34375 -2.109375q0 -1.21875 -0.34375 -2.078125q-0.34375 -0.875 -0.96875 -1.328125q-0.625 -0.453125 -1.4375 -0.453125q-0.8125 0 -1.4375 0.453125q-0.609375 0.453125 -0.953125 1.328125q-0.34375 0.859375 -0.34375 2.078125q0 1.234375 0.34375 2.109375q0.34375 0.859375 0.953125 1.3125q0.625 0.453125 1.4375 0.453125z" fill-rule="nonzero"/><path fill="#000000" fill-opacity="0.0" d="m73.49606 67.043304l136.50394 0l0 36.0l-136.50394 0z" fill-rule="evenodd"/><path fill="#f2f2f2" d="m86.26169 78.9008l4.96875 0q1.9375 0 3.328125 0.65625q1.390625 0.65625 2.109375 1.859375q0.71875 1.203125 0.71875 2.796875q0 2.28125 -1.015625 4.046875q-1.0 1.75 -2.84375 2.734375q-1.828125 0.96875 -4.265625 0.96875l-5.609375 0l2.609375 -13.0625zm3.046875 11.875q2.03125 0 3.546875 -0.828125q1.53125 -0.84375 2.328125 -2.3125q0.8125 -1.46875 0.8125 -3.359375q0 -1.9375 -1.25 -3.046875q-1.25 -1.125 -3.671875 -1.125l-3.6875 0l-2.125 10.671875l4.046875 0z" fill-rule="nonzero"/><path fill="#f2f2f2" d="m101.3905 83.47893l-0.65625 3.328125l4.828125 0l-0.15625 0.84375l-4.828125 0l-0.703125 3.453125l5.609375 0l-0.171875 0.859375l-6.578125 0l1.859375 -9.328125l6.40625 0l-0.171875 0.84375l-5.4375 0zm9.760239 0l-3.28125 0l0.171875 -0.84375l7.546875 0l-0.1875 0.84375l-3.28125 0l-1.6875 8.484375l-0.96875 0l1.6875 -8.484375zm8.134689 8.5625q-1.59375 0 -2.484375 -0.796875q-0.890625 -0.796875 -0.890625 -2.234375q0 -0.53125 0.109375 -1.03125l1.0625 -5.34375l0.96875 0l-1.0625 5.3125q-0.109375 0.5625 -0.109375 0.953125q0 1.109375 0.640625 1.6875q0.640625 0.578125 1.84375 0.578125q1.375 0 2.1875 -0.78125q0.828125 -0.78125 1.15625 -2.4375l1.0625 -5.3125l0.96875 0l-1.0625 5.390625q-0.8125 4.015625 -4.390625 4.015625zm16.212082 -9.40625l-1.859375 9.328125l-0.796875 0l-4.46875 -7.734375l-1.546875 7.734375l-0.96875 0l1.859375 -9.328125l0.796875 0l4.46875 7.734375l1.546875 -7.734375l0.96875 0zm3.8513489 0.84375l-0.65625 3.328125l4.828125 0l-0.15625 0.84375l-4.828125 0l-0.703125 3.453125l5.609375 0l-0.171875 0.859375l-6.578125 0l1.859375 -9.328125l6.40625 0l-0.171875 0.84375l-5.4375 0zm14.181656 11.0625q-0.28125 -0.734375 -0.453125 -1.6875q-0.171875 -0.9375 -0.171875 -1.84375q0 -2.4375 0.8125 -4.84375q0.8125 -2.40625 2.1875 -4.09375l0.984375 0q-1.421875 1.78125 -2.25 4.203125q-0.828125 2.421875 -0.828125 4.796875q0 1.75 0.5625 3.46875l-0.84375 0zm6.4161835 -2.515625q-0.984375 0 -1.71875 -0.359375q-0.734375 -0.375 -1.125 -1.046875q-0.390625 -0.671875 -0.390625 -1.5625q0 -1.1875 0.515625 -2.125q0.515625 -0.953125 1.453125 -1.484375q0.9375 -0.546875 2.109375 -0.546875q0.96875 0 1.671875 0.359375q0.703125 0.34375 1.078125 1.03125l-0.796875 0.46875q-0.59375 -1.03125 -2.03125 -1.03125q-0.875 0 -1.578125 0.421875q-0.6875 0.421875 -1.09375 1.171875q-0.390625 0.75 -0.390625 1.6875q0 1.03125 0.609375 1.609375q0.609375 0.578125 1.734375 0.578125q0.671875 0 1.25 -0.265625q0.578125 -0.265625 0.953125 -0.75l0.6875 0.515625q-0.46875 0.625 -1.25 0.984375q-0.78125 0.34375 -1.6875 0.34375zm5.206833 -3.296875q0 0.09375 0 0.28125q0 1.0625 0.59375 1.625q0.609375 0.5625 1.8125 0.5625q0.6875 0 1.296875 -0.234375q0.609375 -0.234375 1.0 -0.65625l0.421875 0.6875q-0.5 0.484375 -1.234375 0.765625q-0.734375 0.265625 -1.5625 0.265625q-1.515625 0 -2.390625 -0.796875q-0.875 -0.796875 -0.875 -2.1875q0 -1.171875 0.5 -2.109375q0.5 -0.953125 1.375 -1.484375q0.890625 -0.546875 2.0 -0.546875q1.40625 0 2.21875 0.796875q0.828125 0.78125 0.828125 2.171875q0 0.390625 -0.09375 0.859375l-5.890625 0zm2.90625 -3.03125q-1.046875 0 -1.796875 0.625q-0.75 0.625 -1.015625 1.703125l5.0 0q0.015625 -0.09375 0.015625 -0.265625q0 -0.984375 -0.609375 -1.515625q-0.59375 -0.546875 -1.59375 -0.546875zm9.081406 -0.796875q1.1875 0 1.84375 0.609375q0.65625 0.609375 0.65625 1.671875q0 0.375 -0.078125 0.796875l-0.796875 3.984375l-0.9375 0l0.796875 -4.0q0.0625 -0.375 0.0625 -0.640625q0 -0.75 -0.46875 -1.15625q-0.453125 -0.40625 -1.34375 -0.40625q-1.140625 0 -1.875 0.625q-0.71875 0.609375 -0.984375 1.8125l-0.734375 3.765625l-0.953125 0l1.390625 -7.015625l0.90625 0l-0.234375 1.125q1.0 -1.171875 2.75 -1.171875zm5.726227 4.9375q-0.046875 0.328125 -0.046875 0.453125q0 0.921875 1.015625 0.921875q0.59375 0 1.078125 -0.359375l0.21875 0.71875q-0.59375 0.453125 -1.546875 0.453125q-0.796875 0 -1.265625 -0.421875q-0.453125 -0.421875 -0.453125 -1.171875q0 -0.296875 0.0625 -0.546875l0.8125 -4.125l-1.25 0l0.15625 -0.8125l1.25 0l0.3125 -1.53125l0.9375 0l-0.296875 1.53125l2.125 0l-0.15625 0.8125l-2.140625 0l-0.8125 4.078125zm5.942444 2.1875q-0.84375 0 -1.609375 -0.234375q-0.765625 -0.234375 -1.1875 -0.609375l0.453125 -0.75q0.40625 0.34375 1.0625 0.5625q0.65625 0.203125 1.375 0.203125q1.0 0 1.53125 -0.3125q0.546875 -0.328125 0.546875 -0.9375q0 -0.328125 -0.234375 -0.53125q-0.21875 -0.203125 -0.53125 -0.296875q-0.3125 -0.109375 -0.9375 -0.25q-0.734375 -0.15625 -1.1875 -0.3125q-0.453125 -0.171875 -0.78125 -0.515625q-0.3125 -0.34375 -0.3125 -0.953125q0 -1.0 0.828125 -1.59375q0.828125 -0.59375 2.21875 -0.59375q0.671875 0 1.3125 0.1875q0.65625 0.171875 1.0625 0.46875l-0.40625 0.75q-0.390625 -0.28125 -0.9375 -0.4375q-0.546875 -0.15625 -1.109375 -0.15625q-0.96875 0 -1.5 0.34375q-0.53125 0.34375 -0.53125 0.9375q0 0.34375 0.21875 0.5625q0.234375 0.203125 0.578125 0.3125q0.34375 0.109375 0.921875 0.234375q0.71875 0.15625 1.15625 0.3125q0.453125 0.140625 0.765625 0.5q0.328125 0.34375 0.328125 0.921875q0 1.03125 -0.84375 1.609375q-0.84375 0.578125 -2.25 0.578125zm3.8143005 2.515625q1.421875 -1.765625 2.234375 -4.1875q0.828125 -2.421875 0.828125 -4.796875q0 -1.75 -0.546875 -3.484375l0.84375 0q0.28125 0.75 0.4375 1.6875q0.171875 0.9375 0.171875 1.84375q0 2.4375 -0.8125 4.859375q-0.8125 2.40625 -2.171875 4.078125l-0.984375 0z" fill-rule="nonzero"/><path fill="#000000" fill-opacity="0.0" d="m328.12598 93.29396l-28.59842 -8.251968l28.59842 -8.251968z" fill-rule="evenodd"/><path stroke="#f2f2f2" stroke-width="2.0" stroke-linejoin="round" stroke-linecap="butt" d="m328.12598 93.29396l-28.59842 -8.251968l28.59842 -8.251968z" fill-rule="evenodd"/><path fill="#000000" fill-opacity="0.0" d="m396.37796 76.79002l28.59842 8.251968l-28.59842 8.251968z" fill-rule="evenodd"/><path stroke="#f2f2f2" stroke-width="2.0" stroke-linejoin="round" stroke-linecap="butt" d="m396.37796 76.79002l28.59842 8.251968l-28.59842 8.251968z" fill-rule="evenodd"/><path fill="#000000" fill-opacity="0.0" d="m328.12598 67.04199l68.25198 0l0 36.0l-68.25198 0z" fill-rule="evenodd"/><path fill="#f2f2f2" d="m349.36227 82.82637l-1.390625 7.015625l-0.90625 0l0.21875 -1.109375q-0.5 0.5625 -1.203125 0.875q-0.6875 0.296875 -1.53125 0.296875q-0.890625 0 -1.59375 -0.359375q-0.6875 -0.359375 -1.078125 -1.03125q-0.375 -0.671875 -0.375 -1.578125q0 -1.1875 0.515625 -2.125q0.515625 -0.953125 1.421875 -1.484375q0.90625 -0.546875 2.015625 -0.546875q1.0 0 1.671875 0.390625q0.6875 0.390625 1.0 1.125l0.296875 -1.46875l0.9375 0zm-4.609375 6.25q0.859375 0 1.546875 -0.421875q0.703125 -0.421875 1.09375 -1.171875q0.390625 -0.765625 0.390625 -1.6875q0 -1.03125 -0.609375 -1.609375q-0.59375 -0.578125 -1.6875 -0.578125q-0.875 0 -1.5625 0.421875q-0.6875 0.421875 -1.09375 1.1875q-0.390625 0.75 -0.390625 1.671875q0 1.03125 0.609375 1.609375q0.609375 0.578125 1.703125 0.578125zm14.223938 -9.125l-1.96875 9.890625l-0.90625 0l0.21875 -1.109375q-0.5 0.5625 -1.203125 0.875q-0.6875 0.296875 -1.53125 0.296875q-0.890625 0 -1.59375 -0.359375q-0.6875 -0.359375 -1.078125 -1.03125q-0.375 -0.671875 -0.375 -1.578125q0 -1.1875 0.515625 -2.125q0.515625 -0.953125 1.421875 -1.484375q0.90625 -0.546875 2.015625 -0.546875q0.984375 0 1.671875 0.390625q0.6875 0.390625 1.0 1.125l0.859375 -4.34375l0.953125 0zm-5.1875 9.125q0.859375 0 1.546875 -0.421875q0.703125 -0.421875 1.09375 -1.171875q0.390625 -0.765625 0.390625 -1.6875q0 -1.03125 -0.609375 -1.609375q-0.59375 -0.578125 -1.6875 -0.578125q-0.875 0 -1.5625 0.421875q-0.6875 0.421875 -1.09375 1.1875q-0.390625 0.75 -0.390625 1.671875q0 1.03125 0.609375 1.609375q0.609375 0.578125 1.703125 0.578125zm4.380188 3.421875q-0.453125 0 -0.828125 -0.125q-0.375 -0.109375 -0.640625 -0.3125l0.4375 -0.734375q0.390625 0.359375 1.046875 0.359375q0.578125 0 0.921875 -0.328125q0.34375 -0.3125 0.484375 -1.015625l1.5 -7.515625l0.953125 0l-1.515625 7.546875q-0.421875 2.125 -2.359375 2.125zm3.9375 -11.203125q-0.28125 0 -0.46875 -0.1875q-0.171875 -0.1875 -0.171875 -0.4375q0 -0.296875 0.203125 -0.5q0.21875 -0.21875 0.53125 -0.21875q0.28125 0 0.46875 0.1875q0.1875 0.171875 0.1875 0.40625q0 0.328125 -0.21875 0.546875q-0.203125 0.203125 -0.53125 0.203125zm8.901886 1.53125l-1.40625 7.015625l-0.90625 0l0.234375 -1.125q-0.984375 1.1875 -2.703125 1.1875q-1.171875 0 -1.84375 -0.59375q-0.65625 -0.609375 -0.65625 -1.6875q0 -0.375 0.078125 -0.796875l0.8125 -4.0l0.9375 0l-0.796875 4.0q-0.0625 0.375 -0.0625 0.625q0 0.78125 0.4375 1.203125q0.453125 0.40625 1.34375 0.40625q1.125 0 1.84375 -0.625q0.734375 -0.640625 1.0 -1.828125l0.734375 -3.78125l0.953125 0zm3.2979126 7.078125q-0.84375 0 -1.609375 -0.234375q-0.765625 -0.234375 -1.1875 -0.609375l0.453125 -0.75q0.40625 0.34375 1.0625 0.5625q0.65625 0.203125 1.375 0.203125q1.0 0 1.53125 -0.3125q0.546875 -0.328125 0.546875 -0.9375q0 -0.328125 -0.234375 -0.53125q-0.21875 -0.203125 -0.53125 -0.296875q-0.3125 -0.109375 -0.9375 -0.25q-0.734375 -0.15625 -1.1875 -0.3125q-0.453125 -0.171875 -0.78125 -0.515625q-0.3125 -0.34375 -0.3125 -0.953125q0 -1.0 0.828125 -1.59375q0.828125 -0.59375 2.21875 -0.59375q0.671875 0 1.3125 0.1875q0.65625 0.171875 1.0625 0.46875l-0.40625 0.75q-0.390625 -0.28125 -0.9375 -0.4375q-0.546875 -0.15625 -1.109375 -0.15625q-0.96875 0 -1.5 0.34375q-0.53125 0.34375 -0.53125 0.9375q0 0.34375 0.21875 0.5625q0.234375 0.203125 0.578125 0.3125q0.34375 0.109375 0.921875 0.234375q0.71875 0.15625 1.15625 0.3125q0.453125 0.140625 0.765625 0.5q0.328125 0.34375 0.328125 0.921875q0 1.03125 -0.84375 1.609375q-0.84375 0.578125 -2.25 0.578125zm5.9861755 -2.1875q-0.046875 0.328125 -0.046875 0.453125q0 0.921875 1.015625 0.921875q0.59375 0 1.078125 -0.359375l0.21875 0.71875q-0.59375 0.453125 -1.546875 0.453125q-0.796875 0 -1.265625 -0.421875q-0.453125 -0.421875 -0.453125 -1.171875q0 -0.296875 0.0625 -0.546875l0.8125 -4.125l-1.25 0l0.15625 -0.8125l1.25 0l0.3125 -1.53125l0.9375 0l-0.296875 1.53125l2.125 0l-0.15625 0.8125l-2.140625 0l-0.8125 4.078125z" fill-rule="nonzero"/></g></svg>