<svg version="1.1" viewBox="0.0 0.0 48.0 96.0" fill="none" stroke="none" stroke-linecap="square" stroke-miterlimit="10" xmlns:xlink="http://www.w3.org/1999/xlink" xmlns="http://www.w3.org/2000/svg"><clipPath id="p.0"><path d="m0 0l48.0 0l0 96.0l-48.0 0l0 -96.0z" clip-rule="nonzero"/></clipPath><g clip-path="url(#p.0)"><path fill="#000000" fill-opacity="0.0" d="m0 0l48.0 0l0 96.0l-48.0 0z" fill-rule="evenodd"/><path fill="#f2f2f2" d="m8.718632 83.51067l0 0c-2.1845984 -5.7757187 2.885704 -13.0476 11.324837 -16.242203l0 0c8.439135 -3.194603 17.051373 -1.1021957 19.23597 4.673523l0 0c2.184597 5.7757263 -2.885704 13.047607 -11.324839 16.242203l0 0c-8.439133 3.194603 -17.051369 1.1021957 -19.235968 -4.673523z" fill-rule="evenodd"/><path stroke="#f2f2f2" stroke-width="1.0" stroke-linejoin="round" stroke-linecap="butt" d="m8.718632 83.51067l0 0c-2.1845984 -5.7757187 2.885704 -13.0476 11.324837 -16.242203l0 0c8.439135 -3.194603 17.051373 -1.1021957 19.23597 4.673523l0 0c2.184597 5.7757263 -2.885704 13.047607 -11.324839 16.242203l0 0c-8.439133 3.194603 -17.051369 1.1021957 -19.235968 -4.673523z" fill-rule="evenodd"/><path fill="#f2f2f2" d="m37.020737 2.03118l3.2240562 0l0 73.12377l-3.2240562 0z" fill-rule="evenodd"/></g></svg>