<svg version="1.1" viewBox="0.0 0.0 19.1994750656168 24.0" fill="none" stroke="none" stroke-linecap="square" stroke-miterlimit="10" xmlns:xlink="http://www.w3.org/1999/xlink" xmlns="http://www.w3.org/2000/svg"><clipPath id="p.0"><path d="m0 0l19.199474 0l0 24.0l-19.199474 0l0 -24.0z" clip-rule="nonzero"/></clipPath><g clip-path="url(#p.0)"><path fill="#000000" fill-opacity="0.0" d="m0 0l19.199474 0l0 24.0l-19.199474 0z" fill-rule="evenodd"/><path fill="#000000" fill-opacity="0.0" d="m16.739471 22.392996l-14.278993 0l0 -20.76194l14.278993 0z" fill-rule="evenodd"/><path stroke="#f2f2f2" stroke-width="1.0" stroke-linejoin="round" stroke-linecap="butt" d="m16.739471 22.392996l-14.278993 0l0 -20.76194l14.278993 0z" fill-rule="evenodd"/><path fill="#000000" fill-opacity="0.0" d="m16.151134 7.1835637l0.5542679 -5.5770454" fill-rule="evenodd"/><path stroke="#f2f2f2" stroke-width="1.0" stroke-linejoin="round" stroke-linecap="butt" d="m16.151134 7.1835637l0.5542679 -5.5770454" fill-rule="evenodd"/><path fill="#000000" fill-opacity="0.0" d="m3.0354564 7.226697l-0.42229915 -5.616693" fill-rule="evenodd"/><path stroke="#f2f2f2" stroke-width="1.0" stroke-linejoin="round" stroke-linecap="butt" d="m3.0354564 7.226697l-0.42229915 -5.616693" fill-rule="evenodd"/><path fill="#000000" fill-opacity="0.0" d="m9.557555 11.051768l0 -2.5770702" fill-rule="evenodd"/><path stroke="#f2f2f2" stroke-width="1.0" stroke-linejoin="round" stroke-linecap="butt" d="m9.557555 11.051768l0 -2.5770702" fill-rule="evenodd"/><path fill="#000000" fill-opacity="0.0" d="m11.097126 18.244274l0 0c0 0.850317 -0.6883316 1.5396347 -1.5374327 1.5396347l0 0c-0.407753 0 -0.7988043 -0.16221237 -1.0871296 -0.45094872c-0.28832436 -0.28873825 -0.45030308 -0.68034935 -0.45030308 -1.088686l0 0c0 -0.850317 0.6883316 -1.5396347 1.5374327 -1.5396347l0 0c0.84910107 0 1.5374327 0.6893177 1.5374327 1.5396347z" fill-rule="evenodd"/><path stroke="#f2f2f2" stroke-width="1.0" stroke-linejoin="round" stroke-linecap="butt" d="m11.097126 18.244274l0 0c0 0.850317 -0.6883316 1.5396347 -1.5374327 1.5396347l0 0c-0.407753 0 -0.7988043 -0.16221237 -1.0871296 -0.45094872c-0.28832436 -0.28873825 -0.45030308 -0.68034935 -0.45030308 -1.088686l0 0c0 -0.850317 0.6883316 -1.5396347 1.5374327 -1.5396347l0 0c0.84910107 0 1.5374327 0.6893177 1.5374327 1.5396347z" fill-rule="evenodd"/><path fill="#000000" fill-opacity="0.0" d="m16.325253 7.1615386l-13.460787 0" fill-rule="evenodd"/><path stroke="#f2f2f2" stroke-width="1.0" stroke-linejoin="round" stroke-linecap="butt" d="m16.325253 7.1615386l-13.460787 0" fill-rule="evenodd"/><path fill="#000000" fill-opacity="0.0" d="m16.434305 22.283787c-0.018175125 -1.4241543 -0.061857224 -6.035408 -0.10905266 -8.544924c-0.047195435 -2.5095148 -0.14509773 -5.4268055 -0.17411804 -6.512166" fill-rule="evenodd"/><path stroke="#f2f2f2" stroke-width="1.0" stroke-linejoin="round" stroke-linecap="butt" d="m16.434305 22.283787c-0.018175125 -1.4241543 -0.061857224 -6.035408 -0.10905266 -8.544924c-0.047195435 -2.5095148 -0.14509773 -5.4268055 -0.17411804 -6.512166" fill-rule="evenodd"/><path fill="#000000" fill-opacity="0.0" d="m2.7733626 22.392996c0.014662743 -1.4532146 0.044293404 -6.191574 0.0879755 -8.719291c0.043682337 -2.5277166 0.14509845 -5.372507 0.17411828 -6.447008" fill-rule="evenodd"/><path stroke="#f2f2f2" stroke-width="1.0" stroke-linejoin="round" stroke-linecap="butt" d="m2.7733626 22.392996c0.014662743 -1.4532146 0.044293404 -6.191574 0.0879755 -8.719291c0.043682337 -2.5277166 0.14509845 -5.372507 0.17411828 -6.447008" fill-rule="evenodd"/></g></svg>