<svg version="1.1" viewBox="0.0 0.0 19.1994750656168 24.0" fill="none" stroke="none" stroke-linecap="square" stroke-miterlimit="10" xmlns:xlink="http://www.w3.org/1999/xlink" xmlns="http://www.w3.org/2000/svg"><clipPath id="p.0"><path d="m0 0l19.199474 0l0 24.0l-19.199474 0l0 -24.0z" clip-rule="nonzero"/></clipPath><g clip-path="url(#p.0)"><path fill="#000000" fill-opacity="0.0" d="m0 0l19.199474 0l0 24.0l-19.199474 0z" fill-rule="evenodd"/><path fill="#000000" fill-opacity="0.0" d="m2.4059324 1.5418952l14.388043 0l0 20.890589l-14.388043 0z" fill-rule="evenodd"/><path stroke="#f2f2f2" stroke-width="1.0" stroke-linejoin="round" stroke-linecap="butt" d="m2.4059324 1.5418952l14.388043 0l0 20.890589l-14.388043 0z" fill-rule="evenodd"/><path fill="#000000" fill-opacity="0.0" d="m2.998762 16.845572l-0.55850077 5.611603" fill-rule="evenodd"/><path stroke="#f2f2f2" stroke-width="1.0" stroke-linejoin="round" stroke-linecap="butt" d="m2.998762 16.845572l-0.55850077 5.611603" fill-rule="evenodd"/><path fill="#000000" fill-opacity="0.0" d="m16.214607 16.802172l0.42552567 5.651495" fill-rule="evenodd"/><path stroke="#f2f2f2" stroke-width="1.0" stroke-linejoin="round" stroke-linecap="butt" d="m16.214607 16.802172l0.42552567 5.651495" fill-rule="evenodd"/><path fill="#000000" fill-opacity="0.0" d="m8.091369 14.247711l0 0c0 -0.85558605 0.6935892 -1.5491753 1.5491753 -1.5491753l0 0c0.41086674 0 0.80490494 0.16321659 1.0954313 0.45374298c0.29052734 0.29052734 0.45374298 0.68456554 0.45374298 1.0954323l0 0c0 0.85558605 -0.6935892 1.5491753 -1.5491743 1.5491753l0 0c-0.85558605 0 -1.5491753 -0.6935892 -1.5491753 -1.5491753z" fill-rule="evenodd"/><path stroke="#f2f2f2" stroke-width="1.0" stroke-linejoin="round" stroke-linecap="butt" d="m8.091369 14.247711l0 0c0 -0.85558605 0.6935892 -1.5491753 1.5491753 -1.5491753l0 0c0.41086674 0 0.80490494 0.16321659 1.0954313 0.45374298c0.29052734 0.29052734 0.45374298 0.68456554 0.45374298 1.0954323l0 0c0 0.85558605 -0.6935892 1.5491753 -1.5491743 1.5491753l0 0c-0.85558605 0 -1.5491753 -0.6935892 -1.5491753 -1.5491753z" fill-rule="evenodd"/><path fill="#000000" fill-opacity="0.0" d="m9.642697 4.465181l0 2.5930395" fill-rule="evenodd"/><path stroke="#f2f2f2" stroke-width="1.0" stroke-linejoin="round" stroke-linecap="butt" d="m9.642697 4.465181l0 2.5930395" fill-rule="evenodd"/><path fill="#000000" fill-opacity="0.0" d="m2.713428 1.651781c0.018314362 1.4329785 0.062330246 6.072807 0.10988593 8.597872c0.047555685 2.5250645 0.14620662 5.460432 0.17544794 6.552519" fill-rule="evenodd"/><path stroke="#f2f2f2" stroke-width="1.0" stroke-linejoin="round" stroke-linecap="butt" d="m2.713428 1.651781c0.018314362 1.4329785 0.062330246 6.072807 0.10988593 8.597872c0.047555685 2.5250645 0.14620662 5.460432 0.17544794 6.552519" fill-rule="evenodd"/><path fill="#000000" fill-opacity="0.0" d="m16.478703 1.5418952c-0.0147743225 1.46222 -0.044631958 6.2299404 -0.08864784 8.77332c-0.044015884 2.5433788 -0.1462059 5.405796 -0.17544746 6.4869566" fill-rule="evenodd"/><path stroke="#f2f2f2" stroke-width="1.0" stroke-linejoin="round" stroke-linecap="butt" d="m16.478703 1.5418952c-0.0147743225 1.46222 -0.044631958 6.2299404 -0.08864784 8.77332c-0.044015884 2.5433788 -0.1462059 5.405796 -0.17544746 6.4869566" fill-rule="evenodd"/><path fill="#000000" fill-opacity="0.0" d="m2.823314 16.867733l13.56359 0" fill-rule="evenodd"/><path stroke="#f2f2f2" stroke-width="1.0" stroke-linejoin="round" stroke-linecap="butt" d="m2.823314 16.867733l13.56359 0" fill-rule="evenodd"/></g></svg>