<svg version="1.1" viewBox="0.0 0.0 216.0 216.0" fill="none" stroke="none" stroke-linecap="square" stroke-miterlimit="10" xmlns:xlink="http://www.w3.org/1999/xlink" xmlns="http://www.w3.org/2000/svg"><clipPath id="p.0"><path d="m0 0l216.0 0l0 216.0l-216.0 0l0 -216.0z" clip-rule="nonzero"/></clipPath><g clip-path="url(#p.0)"><path fill="#000000" fill-opacity="0.0" d="m0 0l216.0 0l0 216.0l-216.0 0z" fill-rule="evenodd"/><path fill="#000000" fill-opacity="0.0" d="m9.950395 108.000534l0 0c0 -54.15113 43.898163 -98.04929 98.049286 -98.04929l0 0c26.004288 0 50.943512 10.330163 69.331314 28.717972c18.387817 18.387806 28.717972 43.32703 28.717972 69.331314l0 0c0 54.151123 -43.898163 98.049286 -98.049286 98.049286l0 0c-54.151123 0 -98.049286 -43.898163 -98.049286 -98.049286z" fill-rule="evenodd"/><path stroke="#f2f2f2" stroke-width="4.0" stroke-linejoin="round" stroke-linecap="butt" d="m9.950395 108.000534l0 0c0 -54.15113 43.898163 -98.04929 98.049286 -98.04929l0 0c26.004288 0 50.943512 10.330163 69.331314 28.717972c18.387817 18.387806 28.717972 43.32703 28.717972 69.331314l0 0c0 54.151123 -43.898163 98.049286 -98.049286 98.049286l0 0c-54.151123 0 -98.049286 -43.898163 -98.049286 -98.049286z" fill-rule="evenodd"/><path fill="#000000" fill-opacity="0.0" d="m47.266354 168.73386l14.015301 -14.015305" fill-rule="evenodd"/><path stroke="#f2f2f2" stroke-width="4.0" stroke-linejoin="round" stroke-linecap="butt" d="m47.266354 168.73386l14.015301 -14.015305" fill-rule="evenodd"/><path fill="#000000" fill-opacity="0.0" d="m168.73302 168.73386l-14.015305 -14.015305" fill-rule="evenodd"/><path stroke="#f2f2f2" stroke-width="4.0" stroke-linejoin="round" stroke-linecap="butt" d="m168.73302 168.73386l-14.015305 -14.015305" fill-rule="evenodd"/><path fill="#000000" fill-opacity="0.0" d="m154.71892 61.52606l14.015305 -14.015301" fill-rule="evenodd"/><path stroke="#f2f2f2" stroke-width="4.0" stroke-linejoin="round" stroke-linecap="butt" d="m154.71892 61.52606l14.015305 -14.015301" fill-rule="evenodd"/><path fill="#000000" fill-opacity="0.0" d="m61.280445 61.52606l-14.015301 -14.015301" fill-rule="evenodd"/><path stroke="#f2f2f2" stroke-width="4.0" stroke-linejoin="round" stroke-linecap="butt" d="m61.280445 61.52606l-14.015301 -14.015301" fill-rule="evenodd"/><path fill="#000000" fill-opacity="0.0" d="m33.83249 108.000534l9.690449 0" fill-rule="evenodd"/><path stroke="#f2f2f2" stroke-width="4.0" stroke-linejoin="round" stroke-linecap="butt" d="m33.83249 108.000534l9.690449 0" fill-rule="evenodd"/><path fill="#000000" fill-opacity="0.0" d="m107.99968 33.83334l0 9.597939" fill-rule="evenodd"/><path stroke="#f2f2f2" stroke-width="4.0" stroke-linejoin="round" stroke-linecap="butt" d="m107.99968 33.83334l0 9.597939" fill-rule="evenodd"/><path fill="#000000" fill-opacity="0.0" d="m172.47643 108.000534l9.690445 0" fill-rule="evenodd"/><path stroke="#f2f2f2" stroke-width="4.0" stroke-linejoin="round" stroke-linecap="butt" d="m172.47643 108.000534l9.690445 0" fill-rule="evenodd"/><path fill="#000000" fill-opacity="0.0" d="m104.14991 108.000534l0 0c0 -2.126709 1.7240295 -3.8507385 3.8507385 -3.8507385l0 0c1.0212784 0 2.0007248 0.40570068 2.7228775 1.1278534c0.7221527 0.7221527 1.127861 1.7015991 1.127861 2.7228851l0 0c0 2.1267014 -1.7240372 3.8507385 -3.8507385 3.8507385l0 0c-2.126709 0 -3.8507385 -1.7240372 -3.8507385 -3.8507385z" fill-rule="evenodd"/><path stroke="#f2f2f2" stroke-width="4.0" stroke-linejoin="round" stroke-linecap="butt" d="m104.14991 108.000534l0 0c0 -2.126709 1.7240295 -3.8507385 3.8507385 -3.8507385l0 0c1.0212784 0 2.0007248 0.40570068 2.7228775 1.1278534c0.7221527 0.7221527 1.127861 1.7015991 1.127861 2.7228851l0 0c0 2.1267014 -1.7240372 3.8507385 -3.8507385 3.8507385l0 0c-2.126709 0 -3.8507385 -1.7240372 -3.8507385 -3.8507385z" fill-rule="evenodd"/><path fill="#000000" fill-opacity="0.0" d="m19.513641 108.000534l0 0c0 -48.869495 39.61655 -88.486046 88.48604 -88.486046l0 0c23.467957 0 45.97473 9.322609 62.569077 25.91696c16.59436 16.594353 25.916962 39.10112 25.916962 62.569084l0 0c0 48.86949 -39.616547 88.48604 -88.48604 88.48604l0 0c-48.869488 0 -88.48604 -39.616547 -88.48604 -88.48604z" fill-rule="evenodd"/><path stroke="#f2f2f2" stroke-width="4.0" stroke-linejoin="round" stroke-linecap="butt" d="m19.513641 108.000534l0 0c0 -48.869495 39.61655 -88.486046 88.48604 -88.486046l0 0c23.467957 0 45.97473 9.322609 62.569077 25.91696c16.59436 16.594353 25.916962 39.10112 25.916962 62.569084l0 0c0 48.86949 -39.616547 88.48604 -88.48604 88.48604l0 0c-48.869488 0 -88.48604 -39.616547 -88.48604 -88.48604z" fill-rule="evenodd"/><path fill="#000000" fill-opacity="0.0" d="m123.03658 58.200153l39.30709 0l0 24.692913l-39.30709 0z" fill-rule="evenodd"/><path fill="#f2f2f2" d="m136.18849 66.83349l0 7.453125l-1.734375 0l0 -6.078125l-1.484375 0l0 -1.375l3.21875 0zm2.2710419 7.53125q-0.4375 0 -0.734375 -0.296875q-0.296875 -0.296875 -0.296875 -0.734375q0 -0.46875 0.296875 -0.75q0.296875 -0.28125 0.734375 -0.28125q0.4375 0 0.734375 0.28125q0.296875 0.28125 0.296875 0.75q0 0.4375 -0.296875 0.734375q-0.296875 0.296875 -0.734375 0.296875zm7.3857117 -1.484375l0 1.40625l-5.625 0l0 -1.125l2.875 -2.71875q0.453125 -0.421875 0.609375 -0.734375q0.15625 -0.328125 0.15625 -0.640625q0 -0.4375 -0.296875 -0.671875q-0.296875 -0.25 -0.890625 -0.25q-0.484375 0 -0.890625 0.1875q-0.390625 0.1875 -0.65625 0.5625l-1.25 -0.8125q0.4375 -0.65625 1.203125 -1.015625q0.765625 -0.375 1.75 -0.375q0.828125 0 1.453125 0.28125q0.625 0.265625 0.96875 0.765625q0.359375 0.5 0.359375 1.171875q0 0.59375 -0.265625 1.140625q-0.25 0.53125 -0.984375 1.203125l-1.71875 1.625l3.203125 0zm3.2716217 -3.25q1.578125 0 2.328125 0.625q0.75 0.625 0.75 1.6875q0 0.6875 -0.34375 1.25q-0.328125 0.546875 -1.03125 0.890625q-0.703125 0.328125 -1.71875 0.328125q-0.796875 0 -1.5625 -0.203125q-0.75 -0.203125 -1.28125 -0.59375l0.671875 -1.328125q0.4375 0.328125 0.984375 0.5q0.5625 0.171875 1.140625 0.171875q0.65625 0 1.03125 -0.25q0.375 -0.25 0.375 -0.71875q0 -0.46875 -0.390625 -0.71875q-0.390625 -0.25 -1.359375 -0.25l-1.90625 0l0.390625 -4.1875l4.546875 0l0 1.375l-3.109375 0l-0.125 1.421875l0.609375 0z" fill-rule="nonzero"/><path fill="#000000" fill-opacity="0.0" d="m141.99261 95.78362l37.196854 0l0 24.692917l-37.196854 0z" fill-rule="evenodd"/><path fill="#f2f2f2" d="m158.86555 110.46383l0 1.40625l-5.625 0l0 -1.125l2.875 -2.71875q0.453125 -0.421875 0.609375 -0.734375q0.15625 -0.328125 0.15625 -0.640625q0 -0.4375 -0.296875 -0.671875q-0.296875 -0.25 -0.890625 -0.25q-0.484375 0 -0.890625 0.1875q-0.390625 0.1875 -0.65625 0.5625l-1.25 -0.8125q0.4375 -0.65625 1.203125 -1.015625q0.765625 -0.375 1.75 -0.375q0.828125 0 1.453125 0.28125q0.625 0.265625 0.96875 0.765625q0.359375 0.5 0.359375 1.171875q0 0.59375 -0.265625 1.140625q-0.25 0.53125 -0.984375 1.203125l-1.71875 1.625l3.203125 0zm1.6934967 1.484375q-0.4375 0 -0.734375 -0.296875q-0.296875 -0.296875 -0.296875 -0.734375q0 -0.46875 0.296875 -0.75q0.296875 -0.28125 0.734375 -0.28125q0.4375 0 0.734375 0.28125q0.296875 0.28125 0.296875 0.75q0 0.4375 -0.296875 0.734375q-0.296875 0.296875 -0.734375 0.296875zm4.3700867 -4.734375q1.578125 0 2.328125 0.625q0.75 0.625 0.75 1.6875q0 0.6875 -0.34375 1.25q-0.328125 0.546875 -1.03125 0.890625q-0.703125 0.328125 -1.71875 0.328125q-0.796875 0 -1.5625 -0.203125q-0.75 -0.203125 -1.28125 -0.59375l0.671875 -1.328125q0.4375 0.328125 0.984375 0.5q0.5625 0.171875 1.140625 0.171875q0.65625 0 1.03125 -0.25q0.375 -0.25 0.375 -0.71875q0 -0.46875 -0.390625 -0.71875q-0.390625 -0.25 -1.359375 -0.25l-1.90625 0l0.390625 -4.1875l4.546875 0l0 1.375l-3.109375 0l-0.125 1.421875l0.609375 0z" fill-rule="nonzero"/><path fill="#000000" fill-opacity="0.0" d="m55.040195 136.2836l25.322834 0l0 24.692902l-25.322834 0z" fill-rule="evenodd"/><path fill="#f2f2f2" d="m67.69315 152.49506q-0.921875 0 -1.65625 -0.453125q-0.71875 -0.453125 -1.125 -1.328125q-0.40625 -0.875 -0.40625 -2.078125q0 -1.203125 0.40625 -2.0625q0.40625 -0.875 1.125 -1.328125q0.734375 -0.46875 1.65625 -0.46875q0.9375 0 1.65625 0.46875q0.71875 0.453125 1.125 1.328125q0.421875 0.859375 0.421875 2.0625q0 1.203125 -0.421875 2.078125q-0.40625 0.875 -1.125 1.328125q-0.71875 0.453125 -1.65625 0.453125zm0 -1.453125q0.6875 0 1.078125 -0.578125q0.390625 -0.59375 0.390625 -1.828125q0 -1.21875 -0.390625 -1.796875q-0.390625 -0.59375 -1.078125 -0.59375q-0.671875 0 -1.0625 0.59375q-0.390625 0.578125 -0.390625 1.796875q0 1.234375 0.390625 1.828125q0.390625 0.578125 1.0625 0.578125z" fill-rule="nonzero"/><path fill="#000000" fill-opacity="0.0" d="m38.3844 95.7841l85.76378 0l0 24.692917l-85.76378 0z" fill-rule="evenodd"/><path fill="#f2f2f2" d="m48.775024 111.948685q-0.4375 0 -0.734375 -0.296875q-0.296875 -0.296875 -0.296875 -0.734375q0 -0.46875 0.296875 -0.75q0.296875 -0.28125 0.734375 -0.28125q0.4375 0 0.734375 0.28125q0.296875 0.28125 0.296875 0.75q0 0.4375 -0.296875 0.734375q-0.296875 0.296875 -0.734375 0.296875zm4.6982117 -7.53125l0 7.453125l-1.734375 0l0 -6.078125l-1.484375 0l0 -1.375l3.21875 0zm3.8491669 2.796875q1.578125 0 2.328125 0.625q0.75 0.625 0.75 1.6875q0 0.6875 -0.34375 1.25q-0.328125 0.546875 -1.03125 0.890625q-0.703125 0.328125 -1.71875 0.328125q-0.796875 0 -1.5625 -0.203125q-0.75 -0.203125 -1.28125 -0.59375l0.671875 -1.328125q0.4375 0.328125 0.984375 0.5q0.5625 0.171875 1.140625 0.171875q0.65625 0 1.03125 -0.25q0.375 -0.25 0.375 -0.71875q0 -0.46875 -0.390625 -0.71875q-0.390625 -0.25 -1.359375 -0.25l-1.90625 0l0.390625 -4.1875l4.546875 0l0 1.375l-3.109375 0l-0.125 1.421875l0.609375 0zm7.3717804 -0.015625q0.71875 0 1.296875 0.28125q0.59375 0.28125 0.9375 0.8125q0.34375 0.53125 0.34375 1.21875q0 0.75 -0.375 1.3125q-0.375 0.5625 -1.015625 0.875q-0.640625 0.296875 -1.4375 0.296875q-1.5625 0 -2.453125 -0.953125q-0.875 -0.96875 -0.875 -2.734375q0 -1.28125 0.46875 -2.1875q0.484375 -0.90625 1.34375 -1.375q0.859375 -0.46875 1.984375 -0.46875q0.59375 0 1.140625 0.140625q0.5625 0.125 0.9375 0.375l-0.640625 1.265625q-0.546875 -0.375 -1.390625 -0.375q-0.953125 0 -1.515625 0.5625q-0.546875 0.546875 -0.59375 1.609375q0.671875 -0.65625 1.84375 -0.65625zm-0.34375 3.515625q0.546875 0 0.890625 -0.296875q0.359375 -0.3125 0.359375 -0.8125q0 -0.515625 -0.359375 -0.8125q-0.34375 -0.3125 -0.90625 -0.3125q-0.578125 0 -0.9375 0.3125q-0.359375 0.3125 -0.359375 0.8125q0 0.484375 0.34375 0.796875q0.359375 0.3125 0.96875 0.3125zm9.116226 -0.25l0 1.40625l-5.625 0l0 -1.125l2.875 -2.71875q0.453125 -0.421875 0.609375 -0.734375q0.15625 -0.328125 0.15625 -0.640625q0 -0.4375 -0.296875 -0.671875q-0.296875 -0.25 -0.890625 -0.25q-0.484375 0 -0.890625 0.1875q-0.390625 0.1875 -0.65625 0.5625l-1.25 -0.8125q0.4375 -0.65625 1.203125 -1.015625q0.765625 -0.375 1.75 -0.375q0.828125 0 1.453125 0.28125q0.625 0.265625 0.96875 0.765625q0.359375 0.5 0.359375 1.171875q0 0.59375 -0.265625 1.140625q-0.25 0.53125 -0.984375 1.203125l-1.71875 1.625l3.203125 0zm3.2716217 -3.25q1.578125 0 2.328125 0.625q0.75 0.625 0.75 1.6875q0 0.6875 -0.34375 1.25q-0.328125 0.546875 -1.03125 0.890625q-0.703125 0.328125 -1.71875 0.328125q-0.796875 0 -1.5625 -0.203125q-0.75 -0.203125 -1.28125 -0.59375l0.671875 -1.328125q0.4375 0.328125 0.984375 0.5q0.5625 0.171875 1.140625 0.171875q0.65625 0 1.03125 -0.25q0.375 -0.25 0.375 -0.71875q0 -0.46875 -0.390625 -0.71875q-0.390625 -0.25 -1.359375 -0.25l-1.90625 0l0.390625 -4.1875l4.546875 0l0 1.375l-3.109375 0l-0.125 1.421875l0.609375 0z" fill-rule="nonzero"/><path fill="#000000" fill-opacity="0.0" d="m84.53764 39.433475l46.92914 0l0 24.692913l-46.92914 0z" fill-rule="evenodd"/><path fill="#f2f2f2" d="m98.28892 55.598057q-0.4375 0 -0.734375 -0.296875q-0.296875 -0.296875 -0.296875 -0.734375q0 -0.46875 0.296875 -0.75q0.296875 -0.28125 0.734375 -0.28125q0.4375 0 0.734375 0.28125q0.296875 0.28125 0.296875 0.75q0 0.4375 -0.296875 0.734375q-0.296875 0.296875 -0.734375 0.296875zm5.4013367 -4.75q0.71875 0 1.296875 0.28125q0.59375 0.28125 0.9375 0.8125q0.34375 0.53125 0.34375 1.21875q0 0.75 -0.375 1.3125q-0.375 0.5625 -1.015625 0.875q-0.640625 0.296875 -1.4375 0.296875q-1.5625 0 -2.453125 -0.953125q-0.875 -0.96875 -0.875 -2.734375q0 -1.28125 0.46875 -2.1875q0.484375 -0.90625 1.34375 -1.375q0.859375 -0.46875 1.984375 -0.46875q0.59375 0 1.140625 0.140625q0.5625 0.125 0.9375 0.375l-0.640625 1.265625q-0.546875 -0.375 -1.390625 -0.375q-0.953125 0 -1.515625 0.5625q-0.546875 0.546875 -0.59375 1.609375q0.671875 -0.65625 1.84375 -0.65625zm-0.34375 3.515625q0.546875 0 0.890625 -0.296875q0.359375 -0.3125 0.359375 -0.8125q0 -0.515625 -0.359375 -0.8125q-0.34375 -0.3125 -0.90625 -0.3125q-0.578125 0 -0.9375 0.3125q-0.359375 0.3125 -0.359375 0.8125q0 0.484375 0.34375 0.796875q0.359375 0.3125 0.96875 0.3125zm9.116226 -0.25l0 1.40625l-5.625 0l0 -1.125l2.875 -2.71875q0.453125 -0.421875 0.609375 -0.734375q0.15625 -0.328125 0.15625 -0.640625q0 -0.4375 -0.296875 -0.671875q-0.296875 -0.25 -0.890625 -0.25q-0.484375 0 -0.890625 0.1875q-0.390625 0.1875 -0.65625 0.5625l-1.25 -0.8125q0.4375 -0.65625 1.203125 -1.015625q0.765625 -0.375 1.75 -0.375q0.828125 0 1.453125 0.28125q0.625 0.265625 0.96875 0.765625q0.359375 0.5 0.359375 1.171875q0 0.59375 -0.265625 1.140625q-0.25 0.53125 -0.984375 1.203125l-1.71875 1.625l3.203125 0zm3.2716217 -3.25q1.578125 0 2.328125 0.625q0.75 0.625 0.75 1.6875q0 0.6875 -0.34375 1.25q-0.328125 0.546875 -1.03125 0.890625q-0.703125 0.328125 -1.71875 0.328125q-0.796875 0 -1.5625 -0.203125q-0.75 -0.203125 -1.28125 -0.59375l0.671875 -1.328125q0.4375 0.328125 0.984375 0.5q0.5625 0.171875 1.140625 0.171875q0.65625 0 1.03125 -0.25q0.375 -0.25 0.375 -0.71875q0 -0.46875 -0.390625 -0.71875q-0.390625 -0.25 -1.359375 -0.25l-1.90625 0l0.390625 -4.1875l4.546875 0l0 1.375l-3.109375 0l-0.125 1.421875l0.609375 0z" fill-rule="nonzero"/><path fill="#000000" fill-opacity="0.0" d="m84.53677 140.889l46.92581 0l0 24.677109l-46.92581 0z" fill-rule="evenodd"/><path fill="#f2f2f2" d="m102.19162 158.02756l-1.796875 -2.59375l-0.109375 0l-1.875 0l0 2.59375l-2.15625 0l0 -9.328125l4.03125 0q1.25 0 2.15625 0.421875q0.90625 0.40625 1.40625 1.171875q0.5 0.75 0.5 1.796875q0 1.03125 -0.5 1.78125q-0.5 0.75 -1.421875 1.15625l2.09375 3.0l-2.328125 0zm-0.03125 -5.9375q0 -0.796875 -0.515625 -1.21875q-0.5 -0.421875 -1.46875 -0.421875l-1.765625 0l0 3.265625l1.765625 0q0.96875 0 1.46875 -0.421875q0.515625 -0.4375 0.515625 -1.203125zm10.764893 2.375q0 0.046875 -0.046875 0.5625l-5.421875 0q0.15625 0.671875 0.703125 1.0625q0.546875 0.375 1.359375 0.375q0.546875 0 0.984375 -0.15625q0.4375 -0.171875 0.8125 -0.53125l1.109375 1.203125q-1.015625 1.15625 -2.96875 1.15625q-1.203125 0 -2.140625 -0.46875q-0.9375 -0.484375 -1.453125 -1.3125q-0.5 -0.84375 -0.5 -1.90625q0 -1.0625 0.5 -1.90625q0.5 -0.84375 1.375 -1.3125q0.875 -0.484375 1.953125 -0.484375q1.046875 0 1.90625 0.453125q0.859375 0.453125 1.34375 1.3125q0.484375 0.84375 0.484375 1.953125zm-3.71875 -2.140625q-0.703125 0 -1.1875 0.40625q-0.484375 0.390625 -0.578125 1.078125l3.53125 0q-0.109375 -0.671875 -0.59375 -1.078125q-0.484375 -0.40625 -1.171875 -0.40625zm5.097519 -4.1875l2.078125 0l0 9.890625l-2.078125 0l0 -9.890625zm4.8086243 10.0q-0.546875 0 -0.921875 -0.375q-0.375 -0.375 -0.375 -0.9375q0 -0.5625 0.375 -0.921875q0.375 -0.359375 0.921875 -0.359375q0.546875 0 0.90625 0.359375q0.375 0.359375 0.375 0.921875q0 0.5625 -0.375 0.9375q-0.359375 0.375 -0.90625 0.375z" fill-rule="nonzero"/><path fill="#000000" fill-opacity="0.0" d="m88.341255 152.3834l39.31685 0l0 24.677094l-39.31685 0z" fill-rule="evenodd"/><path fill="#f2f2f2" d="m107.77351 163.02695q0.796875 0 1.265625 0.484375q0.484375 0.46875 0.484375 1.421875l0 2.46875l-1.25 0l0 -2.265625q0 -0.515625 -0.21875 -0.765625q-0.203125 -0.25 -0.59375 -0.25q-0.4375 0 -0.703125 0.28125q-0.25 0.28125 -0.25 0.84375l0 2.15625l-1.25 0l0 -2.265625q0 -1.015625 -0.8125 -1.015625q-0.421875 0 -0.6875 0.28125q-0.25 0.28125 -0.25 0.84375l0 2.15625l-1.25 0l0 -4.296875l1.1875 0l0 0.484375q0.25 -0.265625 0.59375 -0.40625q0.34375 -0.15625 0.765625 -0.15625q0.453125 0 0.8125 0.1875q0.375 0.171875 0.59375 0.53125q0.265625 -0.34375 0.671875 -0.53125q0.40625 -0.1875 0.890625 -0.1875zm4.3293915 4.4375q-0.546875 0 -1.0625 -0.125q-0.5 -0.140625 -0.8125 -0.34375l0.421875 -0.890625q0.28125 0.1875 0.6875 0.3125q0.421875 0.109375 0.8125 0.109375q0.78125 0 0.78125 -0.390625q0 -0.1875 -0.21875 -0.265625q-0.203125 -0.078125 -0.65625 -0.140625q-0.53125 -0.078125 -0.875 -0.171875q-0.34375 -0.109375 -0.59375 -0.375q-0.25 -0.265625 -0.25 -0.75q0 -0.421875 0.234375 -0.734375q0.234375 -0.3125 0.6875 -0.484375q0.453125 -0.1875 1.0625 -0.1875q0.46875 0 0.90625 0.109375q0.453125 0.09375 0.75 0.28125l-0.40625 0.875q-0.578125 -0.3125 -1.25 -0.3125q-0.390625 0 -0.59375 0.109375q-0.203125 0.109375 -0.203125 0.28125q0 0.203125 0.21875 0.296875q0.21875 0.078125 0.6875 0.140625q0.53125 0.09375 0.859375 0.203125q0.34375 0.09375 0.59375 0.359375q0.25 0.25 0.25 0.734375q0 0.390625 -0.25 0.703125q-0.234375 0.3125 -0.703125 0.484375q-0.453125 0.171875 -1.078125 0.171875z" fill-rule="nonzero"/><path fill="#000000" fill-opacity="0.0" d="m134.35922 135.18214l30.330719 0l0 24.692902l-30.330719 0z" fill-rule="evenodd"/><path fill="#f2f2f2" d="m149.32307 146.61235q1.578125 0 2.328125 0.625q0.75 0.625 0.75 1.6875q0 0.6875 -0.34375 1.25q-0.328125 0.546875 -1.03125 0.890625q-0.703125 0.328125 -1.71875 0.328125q-0.796875 0 -1.5625 -0.203125q-0.75 -0.203125 -1.28125 -0.59375l0.671875 -1.328125q0.4375 0.328125 0.984375 0.5q0.5625 0.171875 1.140625 0.171875q0.65625 0 1.03125 -0.25q0.375 -0.25 0.375 -0.71875q0 -0.46875 -0.390625 -0.71875q-0.390625 -0.25 -1.359375 -0.25l-1.90625 0l0.390625 -4.1875l4.546875 0l0 1.375l-3.109375 0l-0.125 1.421875l0.609375 0z" fill-rule="nonzero"/><path fill="#000000" fill-opacity="0.0" d="m52.15164 57.898533l68.31496 0l0 24.692913l-68.31496 0z" fill-rule="evenodd"/><path fill="#f2f2f2" d="m62.542267 74.06311q-0.4375 0 -0.734375 -0.296875q-0.296875 -0.296875 -0.296875 -0.734375q0 -0.46875 0.296875 -0.75q0.296875 -0.28125 0.734375 -0.28125q0.4375 0 0.734375 0.28125q0.296875 0.28125 0.296875 0.75q0 0.4375 -0.296875 0.734375q-0.296875 0.296875 -0.734375 0.296875zm5.3075867 -4.5q0.96875 0.15625 1.484375 0.734375q0.53125 0.5625 0.53125 1.40625q0 0.65625 -0.34375 1.203125q-0.328125 0.546875 -1.03125 0.875q-0.703125 0.328125 -1.71875 0.328125q-0.78125 0 -1.546875 -0.203125q-0.765625 -0.203125 -1.296875 -0.59375l0.671875 -1.328125q0.4375 0.328125 0.984375 0.5q0.5625 0.171875 1.15625 0.171875q0.640625 0 1.015625 -0.25q0.375 -0.25 0.375 -0.703125q0 -0.921875 -1.390625 -0.921875l-0.796875 0l0 -1.140625l1.53125 -1.734375l-3.171875 0l0 -1.375l5.21875 0l0 1.109375l-1.671875 1.921875zm5.699188 -3.03125l0 7.453125l-1.734375 0l0 -6.078125l-1.484375 0l0 -1.375l3.21875 0zm6.864792 6.046875l0 1.40625l-5.625 0l0 -1.125l2.875 -2.71875q0.453125 -0.421875 0.609375 -0.734375q0.15625 -0.328125 0.15625 -0.640625q0 -0.4375 -0.296875 -0.671875q-0.296875 -0.25 -0.890625 -0.25q-0.484375 0 -0.890625 0.1875q-0.390625 0.1875 -0.65625 0.5625l-1.25 -0.8125q0.4375 -0.65625 1.203125 -1.015625q0.765625 -0.375 1.75 -0.375q0.828125 0 1.453125 0.28125q0.625 0.265625 0.96875 0.765625q0.359375 0.5 0.359375 1.171875q0 0.59375 -0.265625 1.140625q-0.25 0.53125 -0.984375 1.203125l-1.71875 1.625l3.203125 0zm3.2716217 -3.25q1.578125 0 2.328125 0.625q0.75 0.625 0.75 1.6875q0 0.6875 -0.34375 1.25q-0.328125 0.546875 -1.03125 0.890625q-0.703125 0.328125 -1.71875 0.328125q-0.796875 0 -1.5625 -0.203125q-0.75 -0.203125 -1.28125 -0.59375l0.671875 -1.328125q0.4375 0.328125 0.984375 0.5q0.5625 0.171875 1.140625 0.171875q0.65625 0 1.03125 -0.25q0.375 -0.25 0.375 -0.71875q0 -0.46875 -0.390625 -0.71875q-0.390625 -0.25 -1.359375 -0.25l-1.90625 0l0.390625 -4.1875l4.546875 0l0 1.375l-3.109375 0l-0.125 1.421875l0.609375 0z" fill-rule="nonzero"/></g></svg>