<svg version="1.1" viewBox="0.0 0.0 384.0 384.0" fill="none" stroke="none" stroke-linecap="square" stroke-miterlimit="10" xmlns:xlink="http://www.w3.org/1999/xlink" xmlns="http://www.w3.org/2000/svg"><clipPath id="p.0"><path d="m0 0l384.0 0l0 384.0l-384.0 0l0 -384.0z" clip-rule="nonzero"/></clipPath><g clip-path="url(#p.0)"><path fill="#000000" fill-opacity="0.0" d="m0 0l384.0 0l0 384.0l-384.0 0z" fill-rule="evenodd"/><path fill="#000000" fill-opacity="0.0" d="m61.91889 116.89527l0 0c41.47789 -71.8405 133.3406 -96.45427 205.18112 -54.97638l0 0c34.499023 19.918388 59.672516 52.725647 69.982574 91.20457c10.310059 38.478928 4.9121704 79.47751 -15.006195 113.97655l0 0c-41.477905 71.840485 -133.3406 96.454254 -205.18112 54.97638l0 0c-71.8405 -41.477905 -96.45427 -133.3406 -54.97638 -205.18112z" fill-rule="evenodd"/><path stroke="#f2f2f2" stroke-width="12.0" stroke-linejoin="round" stroke-linecap="butt" d="m61.91889 116.89527l0 0c41.47789 -71.8405 133.3406 -96.45427 205.18112 -54.97638l0 0c34.499023 19.918388 59.672516 52.725647 69.982574 91.20457c10.310059 38.478928 4.9121704 79.47751 -15.006195 113.97655l0 0c-41.477905 71.840485 -133.3406 96.454254 -205.18112 54.97638l0 0c-71.8405 -41.477905 -96.45427 -133.3406 -54.97638 -205.18112z" fill-rule="evenodd"/><path fill="#000000" fill-opacity="0.0" d="m106.401375 126.692505l185.00787 106.74016l-13.763763 23.874008l-185.00787 -106.74014z" fill-rule="evenodd"/><path stroke="#f2f2f2" stroke-width="8.0" stroke-linejoin="round" stroke-linecap="butt" d="m106.401375 126.692505l185.00787 106.74016l-13.763763 23.874008l-185.00787 -106.74014z" fill-rule="evenodd"/><path fill="#000000" fill-opacity="0.0" d="m173.87729 119.89255l89.63779 51.74803l-17.984238 31.149597l-89.6378 -51.74803z" fill-rule="evenodd"/><path fill="#f2f2f2" d="m178.02692 151.45943l0.7578125 -1.3125763q0.60894775 0.35154724 1.0211792 0.48127747q0.41223145 0.12973022 0.7324066 0.043945312q0.3279724 -0.09933472 0.6357269 -0.44487q0.31556702 -0.35908508 0.6671295 -0.9680023l5.8281403 -10.09462l1.8132782 1.046814l-5.8437653 10.121674q-0.65625 1.1366577 -1.3138885 1.713211q-0.65763855 0.5765686 -1.4832306 0.56903076q-0.8120575 2.89917E-4 -1.9352112 -0.6481018l-0.87957764 -0.507782zm18.175781 10.258362q-0.5547943 -0.32029724 -0.7019806 -0.7841339q-0.12582397 -0.46955872 0.0023956299 -0.97288513q0.13601685 -0.5168457 0.39382935 -0.96339417l4.3672028 -7.5641937l1.7185516 0.99212646l-4.0625 7.0364532q-0.2890625 0.5006714 -0.3042755 0.8707733q-0.015213013 0.37010193 0.43133545 0.62789917q0.29769897 0.17185974 0.7026825 0.18914795q0.41281128 0.003768921 0.85113525 -0.06793213l4.34375 -7.52359l1.7320862 0.9999237l-5.390625 9.336838l-1.7320862 -0.99993896l0.53125 -0.92015076q-0.6965637 0.17521667 -1.4581146 0.15052795q-0.7480316 -0.01687622 -1.4246368 -0.4074707zm19.020996 10.98085q-1.136673 -0.6562195 -1.4262695 -1.7796173q-0.26826477 -1.1291199 0.31671143 -2.3610535l1.6843872 0.3950653q-0.38031006 0.97120667 -0.34042358 1.5896149q0.06123352 0.61268616 0.6566467 0.95640564q0.47361755 0.27342224 0.8656311 0.15693665q0.3998108 -0.13000488 0.6654358 -0.5900879q0.2265625 -0.39241028 0.22462463 -0.8265381q0.011581421 -0.4263153 -0.18553162 -0.99116516l-0.8134308 -2.309845q-0.23143005 -0.6929016 -0.2728424 -1.4024048q-0.027893066 -0.7016907 0.44866943 -1.5271301q0.4296875 -0.7442322 1.016449 -1.0730438q0.594574 -0.34233093 1.2921143 -0.30049133q0.697525 0.04185486 1.4147186 0.45588684q1.1231384 0.6483917 1.2831421 1.7150116q0.18135071 1.0609131 -0.32341003 2.1226501l-1.4137421 -0.23881531q0.21359253 -0.52619934 0.2892151 -0.9696655q0.089141846 -0.43566895 -0.03152466 -0.7579193q-0.09931946 -0.32795715 -0.47821045 -0.5466919q-0.41949463 -0.24217224 -0.8406677 -0.10644531q-0.39982605 0.13002014 -0.62638855 0.5224304q-0.140625 0.24357605 -0.17298889 0.54963684q-0.024551392 0.2925415 0.107543945 0.6574707l0.76808167 2.4821472q0.16642761 0.49299622 0.2531891 1.0302124q0.09458923 0.52368164 0.0184021 1.0931244q-0.05482483 0.56373596 -0.39857483 1.1591187q-0.453125 0.7848358 -1.0903931 1.1386108q-0.62945557 0.34025574 -1.3675842 0.27496338q-0.73812866 -0.0652771 -1.5229797 -0.5183716zm17.467468 10.083984q-0.7171936 -0.41403198 -1.0074921 -0.9424591q-0.28248596 -0.54196167 -0.19641113 -1.1598053q0.08609009 -0.6178589 0.4767151 -1.2944336l3.515625 -6.0892487l-0.98783875 -0.5702667l0.66407776 -1.1501923l0.9878235 0.5702667l1.578125 -2.7333832l1.7320862 0.99993896l-1.578125 2.7333832l1.5020447 0.8671417l-0.6640625 1.150177l-1.5020447 -0.86712646l-3.4453125 5.967453q-0.3203125 0.5547943 -0.28501892 0.89993286q0.04309082 0.33158875 0.54377747 0.620636q0.13531494 0.07810974 0.30551147 0.1583252q0.19154358 0.07449341 0.3617401 0.15470886l-0.734375 1.2719727q-0.35601807 -0.13336182 -0.6558075 -0.27035522q-0.28627014 -0.12916565 -0.6110382 -0.31666565z" fill-rule="nonzero"/><path fill="#000000" fill-opacity="0.0" d="m132.8104 173.76233l104.566925 60.37796l-17.984253 31.149597l-104.56693 -60.377945z" fill-rule="evenodd"/><path fill="#f2f2f2" d="m137.84012 205.6227q-1.1231079 -0.64849854 -1.5996094 -1.5731659q-0.46296692 -0.91685486 -0.3631897 -1.9959412q0.09977722 -1.079071 0.7019043 -2.2469788l1.8602295 0.49674988q-0.34431458 0.72135925 -0.5569458 1.4646454q-0.19908142 0.7510834 -0.05458069 1.3757935q0.15802002 0.63253784 0.8481293 1.0310059q0.7171478 0.41409302 1.3090668 0.2326355q0.5919037 -0.18147278 1.0215912 -0.92570496q0.515625 -0.8930969 0.42218018 -1.668747q-0.093429565 -0.7756653 -0.40338135 -1.6763306l-1.0748749 -3.2007446q-0.32138062 -0.9433594 -0.24978638 -1.7861176q0.092941284 -0.84846497 0.6632538 -1.8362732q0.828125 -1.4343567 2.106659 -1.7425995q1.2863464 -0.32176208 2.707138 0.49861145q0.771286 0.44534302 1.2359314 0.98428345q0.4860077 0.5332184 0.63623047 1.1792755q0.16374207 0.6538849 0.01878357 1.4362183q-0.13716125 0.7688141 -0.54815674 1.6681824l-1.7847595 -0.47120667q0.32087708 -0.6807709 0.4845276 -1.3079834q0.17718506 -0.6194 -6.5612793E-4 -1.1551056q-0.17002869 -0.5492554 -0.84658813 -0.9399109q-0.6765747 -0.39065552 -1.2663879 -0.24406433q-0.58981323 0.14659119 -1.0038757 0.86376953q-0.34375 0.59539795 -0.38087463 1.0971985q-0.015777588 0.4960785 0.20991516 1.1676636l1.0884094 3.2085724q0.36921692 1.0792389 0.41409302 2.3140106q0.0526886 1.2212372 -0.6504364 2.439087q-0.5625 0.9742737 -1.3746796 1.4435272q-0.8121948 0.46925354 -1.7345734 0.44184875q-0.91456604 -0.040924072 -1.8346863 -0.5722046zm14.106445 11.068115l0.765625 -1.3261108q0.6224518 0.35940552 1.019043 0.51623535q0.41012573 0.16464233 0.6662445 0.09602356q0.24832153 -0.055099487 0.40457153 -0.32572937q0.0859375 -0.14884949 0.2532196 -0.7198334q0.18081665 -0.56318665 0.387146 -1.201828l2.7050934 -9.0290985l1.7455444 1.0078888l-2.7728424 7.708954l5.249069 -6.2791595l1.7455292 1.007904l-7.920166 8.561874q-0.5394592 0.5906372 -1.158432 0.7564697q-0.61325073 0.18717957 -1.3237305 0.011505127q-0.69692993 -0.16786194 -1.5629425 -0.6679077l-0.20297241 -0.1171875zm18.919601 7.8029633l5.390625 -9.3368225l1.7320099 1.0000763l-0.53125 0.92015076q0.72358704 -0.15956116 1.4580688 -0.15045166q0.7480011 0.016921997 1.4380951 0.41539q0.55477905 0.32034302 0.68058777 0.789917q0.14715576 0.4638672 -0.0023956299 0.97291565q-0.1282196 0.5033417 -0.3860321 0.9498749l-4.3671875 7.5641937l-1.7184753 -0.9922638l4.078125 -7.0635223q0.2890625 -0.5006714 0.296463 -0.85723877q0.0074005127 -0.35658264 -0.43911743 -0.6144104q-0.29769897 -0.17189026 -0.71047974 -0.17567444q-0.40496826 -0.017333984 -0.843277 0.054351807l-4.3437653 7.52359l-1.7319946 -1.0000763zm20.603699 12.077209q-0.7171631 -0.41409302 -1.0074463 -0.9425659q-0.2824707 -0.5419922 -0.19638062 -1.1598663q0.08609009 -0.6178589 0.4767151 -1.2944489l3.5156403 -6.0892334l-0.98779297 -0.5703583l0.6640625 -1.1501923l0.98779297 0.5703583l1.578125 -2.7333984l1.7320099 1.0000763l-1.5781403 2.7333984l1.5019836 0.86724854l-0.6640625 1.1501923l-1.5019836 -0.86724854l-3.4453125 5.967453q-0.3203125 0.5547943 -0.28503418 0.89993286q0.04310608 0.33161926 0.5437622 0.620697q0.13531494 0.078125 0.30549622 0.15835571q0.19152832 0.07450867 0.36172485 0.15473938l-0.734375 1.2719727q-0.3560028 -0.13339233 -0.65579224 -0.270401q-0.28623962 -0.12919617 -0.61099243 -0.31671143zm13.718063 7.740509l7.5547028 -13.085098l1.7319946 1.0000763l-2.7265625 4.7225494q0.72569275 -0.19442749 1.4950409 -0.18322754q0.76934814 0.011199951 1.486496 0.42529297q0.5547943 0.32034302 0.680603 0.78993225q0.13362122 0.4560547 -0.0024108887 0.97291565q-0.1282196 0.5033264 -0.3860321 0.9498749l-4.3671875 7.5641785l-1.7320099 -1.0000763l4.0781403 -7.063507q0.2890625 -0.5006714 0.296463 -0.857254q0.0074005127 -0.35658264 -0.4391327 -0.6144104q-0.31121826 -0.17970276 -0.75105286 -0.19911194q-0.4263153 -0.0116119385 -0.85891724 0.0814209l-4.328125 7.496521l-1.7320099 -1.0000763z" fill-rule="nonzero"/></g></svg>