<svg version="1.1" viewBox="0.0 0.0 240.0 240.0" fill="none" stroke="none" stroke-linecap="square" stroke-miterlimit="10" xmlns:xlink="http://www.w3.org/1999/xlink" xmlns="http://www.w3.org/2000/svg"><clipPath id="p.0"><path d="m0 0l240.0 0l0 240.0l-240.0 0l0 -240.0z" clip-rule="nonzero"/></clipPath><g clip-path="url(#p.0)"><path fill="#000000" fill-opacity="0.0" d="m0 0l240.0 0l0 240.0l-240.0 0z" fill-rule="evenodd"/><path fill="#000000" fill-opacity="0.0" d="m10.007223 119.999306l0 0c0 -60.74698 49.245155 -109.99213 109.99213 -109.99213l0 0c29.17173 0 57.148643 11.588424 77.77618 32.21595c20.627518 20.627525 32.215942 48.60445 32.215942 77.776184l0 0c0 60.74697 -49.245148 109.99212 -109.99212 109.99212l0 0c-60.746975 0 -109.99213 -49.245148 -109.99213 -109.99212z" fill-rule="evenodd"/><path stroke="#f2f2f2" stroke-width="4.0" stroke-linejoin="round" stroke-linecap="butt" d="m10.007223 119.999306l0 0c0 -60.74698 49.245155 -109.99213 109.99213 -109.99213l0 0c29.17173 0 57.148643 11.588424 77.77618 32.21595c20.627518 20.627525 32.215942 48.60445 32.215942 77.776184l0 0c0 60.74697 -49.245148 109.99212 -109.99212 109.99212l0 0c-60.746975 0 -109.99213 -49.245148 -109.99213 -109.99212z" fill-rule="evenodd"/><path fill="#000000" fill-opacity="0.0" d="m19.910212 120.031815l0 0c0 -55.295662 44.82599 -100.12165 100.12166 -100.12165l0 0c26.553917 0 52.02024 10.548502 70.7967 29.324955c18.776443 18.776455 29.324951 44.242786 29.324951 70.79669l0 0c0 55.29567 -44.82599 100.12166 -100.12165 100.12166l0 0c-55.29567 0 -100.12166 -44.82599 -100.12166 -100.12166z" fill-rule="evenodd"/><path stroke="#f2f2f2" stroke-width="4.0" stroke-linejoin="round" stroke-linecap="butt" d="m19.910212 120.031815l0 0c0 -55.295662 44.82599 -100.12165 100.12166 -100.12165l0 0c26.553917 0 52.02024 10.548502 70.7967 29.324955c18.776443 18.776455 29.324951 44.242786 29.324951 70.79669l0 0c0 55.29567 -44.82599 100.12166 -100.12165 100.12166l0 0c-55.29567 0 -100.12166 -44.82599 -100.12166 -100.12166z" fill-rule="evenodd"/><path fill="#000000" fill-opacity="0.0" d="m110.64397 20.511824c-0.09690857 14.910208 14.409424 74.55104 -0.5814209 89.46125c-14.990852 14.91021 -74.46973 0 -89.36368 0" fill-rule="evenodd"/><path stroke="#f2f2f2" stroke-width="4.0" stroke-linejoin="round" stroke-linecap="butt" d="m110.64397 20.511824c-0.09690857 14.910208 14.409424 74.55104 -0.5814209 89.46125c-14.990852 14.91021 -74.46973 0 -89.36368 0" fill-rule="evenodd"/><path fill="#000000" fill-opacity="0.0" d="m219.5156 110.64391c-14.910202 -0.09690094 -74.55104 14.409431 -89.46126 -0.58141327c-14.910202 -14.990852 0 -74.46973 0 -89.36368" fill-rule="evenodd"/><path stroke="#f2f2f2" stroke-width="4.0" stroke-linejoin="round" stroke-linecap="butt" d="m219.5156 110.64391c-14.910202 -0.09690094 -74.55104 14.409431 -89.46126 -0.58141327c-14.910202 -14.990852 0 -74.46973 0 -89.36368" fill-rule="evenodd"/><path fill="#000000" fill-opacity="0.0" d="m129.3835 219.51555c0.09690857 -14.910202 -14.409424 -74.55104 0.5814209 -89.46126c14.990845 -14.910202 74.46973 0 89.36368 0" fill-rule="evenodd"/><path stroke="#f2f2f2" stroke-width="4.0" stroke-linejoin="round" stroke-linecap="butt" d="m129.3835 219.51555c0.09690857 -14.910202 -14.409424 -74.55104 0.5814209 -89.46126c14.990845 -14.910202 74.46973 0 89.36368 0" fill-rule="evenodd"/><path fill="#000000" fill-opacity="0.0" d="m20.684645 129.38345c14.910208 0.09690857 74.55104 -14.409424 89.46125 0.5814209c14.91021 14.990845 0 74.46973 0 89.36368" fill-rule="evenodd"/><path stroke="#f2f2f2" stroke-width="4.0" stroke-linejoin="round" stroke-linecap="butt" d="m20.684645 129.38345c14.910208 0.09690857 74.55104 -14.409424 89.46125 0.5814209c14.91021 14.990845 0 74.46973 0 89.36368" fill-rule="evenodd"/><path fill="#000000" fill-opacity="0.0" d="m112.64706 119.995834l0 0c0 -4.058647 3.290184 -7.3488235 7.3488235 -7.3488235l0 0c1.949028 0 3.8182297 0.77425385 5.196396 2.15242c1.3781738 1.3781738 2.15242 3.2473755 2.15242 5.1964035l0 0c0 4.0586395 -3.2901764 7.348816 -7.348816 7.348816l0 0c-4.0586395 0 -7.3488235 -3.2901764 -7.3488235 -7.348816z" fill-rule="evenodd"/><path stroke="#f2f2f2" stroke-width="4.0" stroke-linejoin="round" stroke-linecap="butt" d="m112.64706 119.995834l0 0c0 -4.058647 3.290184 -7.3488235 7.3488235 -7.3488235l0 0c1.949028 0 3.8182297 0.77425385 5.196396 2.15242c1.3781738 1.3781738 2.15242 3.2473755 2.15242 5.1964035l0 0c0 4.0586395 -3.2901764 7.348816 -7.348816 7.348816l0 0c-4.0586395 0 -7.3488235 -3.2901764 -7.3488235 -7.348816z" fill-rule="evenodd"/></g></svg>