<svg version="1.1" viewBox="0.0 0.0 144.0 432.0" fill="none" stroke="none" stroke-linecap="square" stroke-miterlimit="10" xmlns:xlink="http://www.w3.org/1999/xlink" xmlns="http://www.w3.org/2000/svg"><clipPath id="p.0"><path d="m0 0l144.0 0l0 432.0l-144.0 0l0 -432.0z" clip-rule="nonzero"/></clipPath><g clip-path="url(#p.0)"><path fill="#000000" fill-opacity="0.0" d="m0 0l144.0 0l0 432.0l-144.0 0z" fill-rule="evenodd"/><path fill="#000000" fill-opacity="0.0" d="m22.142927 23.93735l93.03937 0l0 384.12598l-93.03937 0z" fill-rule="evenodd"/><path stroke="#f2f2f2" stroke-width="4.0" stroke-linejoin="round" stroke-linecap="butt" d="m22.142927 23.93735l93.03937 0l0 384.12598l-93.03937 0z" fill-rule="evenodd"/><path fill="#000000" fill-opacity="0.0" d="m48.641617 39.93735l53.543304 0l0 297.6378l-53.543304 0z" fill-rule="evenodd"/><path stroke="#f2f2f2" stroke-width="4.0" stroke-linejoin="round" stroke-linecap="butt" d="m48.641617 39.93735l53.543304 0l0 297.6378l-53.543304 0z" fill-rule="evenodd"/><path fill="#f2f2f2" d="m71.64949 188.75624l0 0c0 -2.0786743 1.6850967 -3.7637787 3.7637787 -3.7637787l0 0c0.9982147 0 1.9555511 0.3965454 2.6613922 1.1023865c0.7058487 0.7058563 1.1023865 1.6631775 1.1023865 2.6613922l0 0c0 2.0786896 -1.6851044 3.7637787 -3.7637787 3.7637787l0 0c-2.078682 0 -3.7637787 -1.6850891 -3.7637787 -3.7637787z" fill-rule="evenodd"/><path fill="#000000" fill-opacity="0.0" d="m61.64949 188.75624l-13.007874 0" fill-rule="evenodd"/><path stroke="#f2f2f2" stroke-width="4.0" stroke-linejoin="round" stroke-linecap="butt" d="m61.64949 188.75624l-13.007874 0" fill-rule="evenodd"/><path fill="#000000" fill-opacity="0.0" d="m102.18492 188.75624l-13.007874 0" fill-rule="evenodd"/><path stroke="#f2f2f2" stroke-width="4.0" stroke-linejoin="round" stroke-linecap="butt" d="m102.18492 188.75624l-13.007874 0" fill-rule="evenodd"/><path fill="#f2f2f2" d="m71.64949 162.81924l0 0c0 -2.0786896 1.6850967 -3.7637787 3.7637787 -3.7637787l0 0c0.9982147 0 1.9555511 0.39653015 2.6613922 1.1023865c0.7058487 0.70584106 1.1023865 1.6631775 1.1023865 2.6613922l0 0c0 2.0786743 -1.6851044 3.7637787 -3.7637787 3.7637787l0 0c-2.078682 0 -3.7637787 -1.6851044 -3.7637787 -3.7637787z" fill-rule="evenodd"/><path fill="#000000" fill-opacity="0.0" d="m61.64949 162.81924l-13.007874 0" fill-rule="evenodd"/><path stroke="#f2f2f2" stroke-width="4.0" stroke-linejoin="round" stroke-linecap="butt" d="m61.64949 162.81924l-13.007874 0" fill-rule="evenodd"/><path fill="#000000" fill-opacity="0.0" d="m102.18492 162.81924l-13.007874 0" fill-rule="evenodd"/><path stroke="#f2f2f2" stroke-width="4.0" stroke-linejoin="round" stroke-linecap="butt" d="m102.18492 162.81924l-13.007874 0" fill-rule="evenodd"/><path fill="#f2f2f2" d="m71.64949 136.88223l0 0c0 -2.0786743 1.6850967 -3.7637787 3.7637787 -3.7637787l0 0c0.9982147 0 1.9555511 0.39653015 2.6613922 1.1023865c0.7058487 0.70584106 1.1023865 1.6631775 1.1023865 2.6613922l0 0c0 2.0786743 -1.6851044 3.7637787 -3.7637787 3.7637787l0 0c-2.078682 0 -3.7637787 -1.6851044 -3.7637787 -3.7637787z" fill-rule="evenodd"/><path fill="#000000" fill-opacity="0.0" d="m61.64949 136.88223l-13.007874 0" fill-rule="evenodd"/><path stroke="#f2f2f2" stroke-width="4.0" stroke-linejoin="round" stroke-linecap="butt" d="m61.64949 136.88223l-13.007874 0" fill-rule="evenodd"/><path fill="#000000" fill-opacity="0.0" d="m102.18492 136.88223l-13.007874 0" fill-rule="evenodd"/><path stroke="#f2f2f2" stroke-width="4.0" stroke-linejoin="round" stroke-linecap="butt" d="m102.18492 136.88223l-13.007874 0" fill-rule="evenodd"/><path fill="#f2f2f2" d="m71.64949 110.88272l0 0c0 -2.0786743 1.6850967 -3.7637787 3.7637787 -3.7637787l0 0c0.9982147 0 1.9555511 0.39653778 2.6613922 1.1023865c0.7058487 0.7058487 1.1023865 1.6631775 1.1023865 2.6613922l0 0c0 2.078682 -1.6851044 3.7637787 -3.7637787 3.7637787l0 0c-2.078682 0 -3.7637787 -1.6850967 -3.7637787 -3.7637787z" fill-rule="evenodd"/><path fill="#000000" fill-opacity="0.0" d="m61.64949 110.88272l-13.007874 0" fill-rule="evenodd"/><path stroke="#f2f2f2" stroke-width="4.0" stroke-linejoin="round" stroke-linecap="butt" d="m61.64949 110.88272l-13.007874 0" fill-rule="evenodd"/><path fill="#000000" fill-opacity="0.0" d="m102.18492 110.88272l-13.007874 0" fill-rule="evenodd"/><path stroke="#f2f2f2" stroke-width="4.0" stroke-linejoin="round" stroke-linecap="butt" d="m102.18492 110.88272l-13.007874 0" fill-rule="evenodd"/><path fill="#f2f2f2" d="m71.64949 84.92291l0 0c0 -2.0786743 1.6850967 -3.7637787 3.7637787 -3.7637787l0 0c0.9982147 0 1.9555511 0.39653778 2.6613922 1.1023865c0.7058487 0.70584106 1.1023865 1.6631775 1.1023865 2.6613922l0 0c0 2.078682 -1.6851044 3.7637787 -3.7637787 3.7637787l0 0c-2.078682 0 -3.7637787 -1.6850967 -3.7637787 -3.7637787z" fill-rule="evenodd"/><path fill="#000000" fill-opacity="0.0" d="m61.64949 84.92291l-13.007874 0" fill-rule="evenodd"/><path stroke="#f2f2f2" stroke-width="4.0" stroke-linejoin="round" stroke-linecap="butt" d="m61.64949 84.92291l-13.007874 0" fill-rule="evenodd"/><path fill="#000000" fill-opacity="0.0" d="m102.18492 84.92291l-13.007874 0" fill-rule="evenodd"/><path stroke="#f2f2f2" stroke-width="4.0" stroke-linejoin="round" stroke-linecap="butt" d="m102.18492 84.92291l-13.007874 0" fill-rule="evenodd"/><path fill="#f2f2f2" d="m71.64949 58.90241l0 0c0 -2.0786781 1.6850967 -3.7637787 3.7637787 -3.7637787l0 0c0.9982147 0 1.9555511 0.39653778 2.6613922 1.1023827c0.7058487 0.7058487 1.1023865 1.6631813 1.1023865 2.661396l0 0c0 2.0786781 -1.6851044 3.7637787 -3.7637787 3.7637787l0 0c-2.078682 0 -3.7637787 -1.6851006 -3.7637787 -3.7637787z" fill-rule="evenodd"/><path fill="#000000" fill-opacity="0.0" d="m61.64949 58.90241l-13.007874 0" fill-rule="evenodd"/><path stroke="#f2f2f2" stroke-width="4.0" stroke-linejoin="round" stroke-linecap="butt" d="m61.64949 58.90241l-13.007874 0" fill-rule="evenodd"/><path fill="#000000" fill-opacity="0.0" d="m102.18492 58.90241l-13.007874 0" fill-rule="evenodd"/><path stroke="#f2f2f2" stroke-width="4.0" stroke-linejoin="round" stroke-linecap="butt" d="m102.18492 58.90241l-13.007874 0" fill-rule="evenodd"/><path fill="#f2f2f2" d="m71.64949 318.60925l0 0c0 -2.0786743 1.6850967 -3.7637634 3.7637787 -3.7637634l0 0c0.9982147 0 1.9555511 0.3965454 2.6613922 1.1023865c0.7058487 0.70584106 1.1023865 1.6631775 1.1023865 2.661377l0 0c0 2.0787048 -1.6851044 3.763794 -3.7637787 3.763794l0 0c-2.078682 0 -3.7637787 -1.6850891 -3.7637787 -3.763794z" fill-rule="evenodd"/><path fill="#000000" fill-opacity="0.0" d="m61.64949 318.60925l-13.007874 0" fill-rule="evenodd"/><path stroke="#f2f2f2" stroke-width="4.0" stroke-linejoin="round" stroke-linecap="butt" d="m61.64949 318.60925l-13.007874 0" fill-rule="evenodd"/><path fill="#000000" fill-opacity="0.0" d="m102.18492 318.60925l-13.007874 0" fill-rule="evenodd"/><path stroke="#f2f2f2" stroke-width="4.0" stroke-linejoin="round" stroke-linecap="butt" d="m102.18492 318.60925l-13.007874 0" fill-rule="evenodd"/><path fill="#f2f2f2" d="m71.64949 292.67227l0 0c0 -2.0787048 1.6850967 -3.763794 3.7637787 -3.763794l0 0c0.9982147 0 1.9555511 0.3965454 2.6613922 1.1023865c0.7058487 0.70584106 1.1023865 1.6631775 1.1023865 2.6614075l0 0c0 2.0786743 -1.6851044 3.7637634 -3.7637787 3.7637634l0 0c-2.078682 0 -3.7637787 -1.6850891 -3.7637787 -3.7637634z" fill-rule="evenodd"/><path fill="#000000" fill-opacity="0.0" d="m61.64949 292.67227l-13.007874 0" fill-rule="evenodd"/><path stroke="#f2f2f2" stroke-width="4.0" stroke-linejoin="round" stroke-linecap="butt" d="m61.64949 292.67227l-13.007874 0" fill-rule="evenodd"/><path fill="#000000" fill-opacity="0.0" d="m102.18492 292.67227l-13.007874 0" fill-rule="evenodd"/><path stroke="#f2f2f2" stroke-width="4.0" stroke-linejoin="round" stroke-linecap="butt" d="m102.18492 292.67227l-13.007874 0" fill-rule="evenodd"/><path fill="#f2f2f2" d="m71.64949 266.67276l0 0c0 -2.0786743 1.6850967 -3.763794 3.7637787 -3.763794l0 0c0.9982147 0 1.9555511 0.3965454 2.6613922 1.1023865c0.7058487 0.70584106 1.1023865 1.6631775 1.1023865 2.6614075l0 0c0 2.0786743 -1.6851044 3.7637634 -3.7637787 3.7637634l0 0c-2.078682 0 -3.7637787 -1.6850891 -3.7637787 -3.7637634z" fill-rule="evenodd"/><path fill="#000000" fill-opacity="0.0" d="m61.64949 266.67276l-13.007874 0" fill-rule="evenodd"/><path stroke="#f2f2f2" stroke-width="4.0" stroke-linejoin="round" stroke-linecap="butt" d="m61.64949 266.67276l-13.007874 0" fill-rule="evenodd"/><path fill="#000000" fill-opacity="0.0" d="m102.18492 266.67276l-13.007874 0" fill-rule="evenodd"/><path stroke="#f2f2f2" stroke-width="4.0" stroke-linejoin="round" stroke-linecap="butt" d="m102.18492 266.67276l-13.007874 0" fill-rule="evenodd"/><path fill="#f2f2f2" d="m71.64949 240.71294l0 0c0 -2.0786743 1.6850967 -3.7637787 3.7637787 -3.7637787l0 0c0.9982147 0 1.9555511 0.3965454 2.6613922 1.1023865c0.7058487 0.70584106 1.1023865 1.6631775 1.1023865 2.6613922l0 0c0 2.0786743 -1.6851044 3.7637787 -3.7637787 3.7637787l0 0c-2.078682 0 -3.7637787 -1.6851044 -3.7637787 -3.7637787z" fill-rule="evenodd"/><path fill="#000000" fill-opacity="0.0" d="m61.64949 240.71294l-13.007874 0" fill-rule="evenodd"/><path stroke="#f2f2f2" stroke-width="4.0" stroke-linejoin="round" stroke-linecap="butt" d="m61.64949 240.71294l-13.007874 0" fill-rule="evenodd"/><path fill="#000000" fill-opacity="0.0" d="m102.18492 240.71294l-13.007874 0" fill-rule="evenodd"/><path stroke="#f2f2f2" stroke-width="4.0" stroke-linejoin="round" stroke-linecap="butt" d="m102.18492 240.71294l-13.007874 0" fill-rule="evenodd"/><path fill="#f2f2f2" d="m71.64949 214.69243l0 0c0 -2.0786743 1.6850967 -3.7637787 3.7637787 -3.7637787l0 0c0.9982147 0 1.9555511 0.3965454 2.6613922 1.1023865c0.7058487 0.7058563 1.1023865 1.6631775 1.1023865 2.6613922l0 0c0 2.0786896 -1.6851044 3.7637787 -3.7637787 3.7637787l0 0c-2.078682 0 -3.7637787 -1.6850891 -3.7637787 -3.7637787z" fill-rule="evenodd"/><path fill="#000000" fill-opacity="0.0" d="m61.64949 214.69243l-13.007874 0" fill-rule="evenodd"/><path stroke="#f2f2f2" stroke-width="4.0" stroke-linejoin="round" stroke-linecap="butt" d="m61.64949 214.69243l-13.007874 0" fill-rule="evenodd"/><path fill="#000000" fill-opacity="0.0" d="m102.18492 214.69243l-13.007874 0" fill-rule="evenodd"/><path stroke="#f2f2f2" stroke-width="4.0" stroke-linejoin="round" stroke-linecap="butt" d="m102.18492 214.69243l-13.007874 0" fill-rule="evenodd"/><path fill="#000000" fill-opacity="0.0" d="m-3.1772823 45.470158l57.259842 0l0 26.866138l-57.259842 0z" fill-rule="evenodd"/><path fill="#f2f2f2" d="m29.751612 55.190105l0 7.453125l-0.765625 0l0 -6.78125l-1.765625 0l0 -0.671875l2.53125 0zm4.753187 7.515625q-0.859375 0 -1.546875 -0.453125q-0.671875 -0.46875 -1.0624981 -1.3125q-0.375 -0.859375 -0.375 -2.03125q0 -1.15625 0.375 -2.015625q0.3906231 -0.859375 1.0624981 -1.3125q0.6875 -0.453125 1.546875 -0.453125q0.859375 0 1.53125 0.453125q0.6875 0.453125 1.0625 1.3125q0.390625 0.859375 0.390625 2.015625q0 1.171875 -0.390625 2.03125q-0.375 0.84375 -1.0625 1.3125q-0.671875 0.453125 -1.53125 0.453125zm0 -0.703125q0.640625 0 1.140625 -0.359375q0.5 -0.359375 0.765625 -1.046875q0.28125 -0.703125 0.28125 -1.6875q0 -0.96875 -0.28125 -1.65625q-0.265625 -0.703125 -0.765625 -1.0625q-0.5 -0.359375 -1.140625 -0.359375q-0.65625 0 -1.15625 0.359375q-0.484375 0.359375 -0.765625 1.0625q-0.28125 0.6875 -0.28125 1.65625q0 0.984375 0.28125 1.6875q0.28125 0.6875 0.765625 1.046875q0.5 0.359375 1.15625 0.359375zm7.0545044 0.703125q-0.859375 0 -1.546875 -0.453125q-0.671875 -0.46875 -1.0625 -1.3125q-0.375 -0.859375 -0.375 -2.03125q0 -1.15625 0.375 -2.015625q0.390625 -0.859375 1.0625 -1.3125q0.6875 -0.453125 1.546875 -0.453125q0.859375 0 1.53125 0.453125q0.6875 0.453125 1.0625 1.3125q0.390625 0.859375 0.390625 2.015625q0 1.171875 -0.390625 2.03125q-0.375 0.84375 -1.0625 1.3125q-0.671875 0.453125 -1.53125 0.453125zm0 -0.703125q0.640625 0 1.140625 -0.359375q0.5 -0.359375 0.765625 -1.046875q0.28125 -0.703125 0.28125 -1.6875q0 -0.96875 -0.28125 -1.65625q-0.265625 -0.703125 -0.765625 -1.0625q-0.5 -0.359375 -1.140625 -0.359375q-0.65625 0 -1.15625 0.359375q-0.484375 0.359375 -0.765625 1.0625q-0.28125 0.6875 -0.28125 1.65625q0 0.984375 0.28125 1.6875q0.28125 0.6875 0.765625 1.046875q0.5 0.359375 1.15625 0.359375z" fill-rule="nonzero"/><path fill="#000000" fill-opacity="0.0" d="m-3.1772823 71.459656l57.259842 0l0 26.866142l-57.259842 0z" fill-rule="evenodd"/><path fill="#f2f2f2" d="m34.413338 81.1171q1.484375 0 2.265625 0.96875q0.796875 0.96875 0.796875 2.75q0 1.25 -0.4375 2.109375q-0.421875 0.859375 -1.1875 1.3125q-0.765625 0.4375 -1.78125 0.4375q-1.109375 0 -1.78125 -0.40625l0.3125 -0.609375q0.53125 0.34375 1.453125 0.34375q1.234375 0 1.9375 -0.78125q0.703125 -0.78125 0.703125 -2.28125q0 -0.265625 -0.03125 -0.59375q-0.28125 0.59375 -0.890625 0.9375q-0.59375 0.328125 -1.390625 0.328125q-0.734375 0 -1.3125 -0.265625q-0.5625 -0.28125 -0.890625 -0.78125q-0.3124981 -0.515625 -0.3124981 -1.1875q0 -0.6875 0.3281231 -1.203125q0.328125 -0.515625 0.90625 -0.796875q0.59375 -0.28125 1.3125 -0.28125zm0.09375 3.875q0.5625 0 0.984375 -0.21875q0.4375 -0.21875 0.671875 -0.578125q0.25 -0.375 0.25 -0.84375q0 -0.421875 -0.234375 -0.78125q-0.21875 -0.359375 -0.671875 -0.578125q-0.4375 -0.234375 -1.0625 -0.234375q-0.8125 0 -1.3125 0.453125q-0.5 0.4375 -0.5 1.171875q0 0.734375 0.5 1.171875q0.5 0.4375 1.375 0.4375zm7.0522156 3.703125q-0.859375 0 -1.546875 -0.453125q-0.671875 -0.46875 -1.0625 -1.3125q-0.375 -0.859375 -0.375 -2.03125q0 -1.15625 0.375 -2.015625q0.390625 -0.859375 1.0625 -1.3125q0.6875 -0.453125 1.546875 -0.453125q0.859375 0 1.53125 0.453125q0.6875 0.453125 1.0625 1.3125q0.390625 0.859375 0.390625 2.015625q0 1.171875 -0.390625 2.03125q-0.375 0.84375 -1.0625 1.3125q-0.671875 0.453125 -1.53125 0.453125zm0 -0.703125q0.640625 0 1.140625 -0.359375q0.5 -0.359375 0.765625 -1.046875q0.28125 -0.703125 0.28125 -1.6875q0 -0.96875 -0.28125 -1.65625q-0.265625 -0.703125 -0.765625 -1.0625q-0.5 -0.359375 -1.140625 -0.359375q-0.65625 0 -1.15625 0.359375q-0.484375 0.359375 -0.765625 1.0625q-0.28125 0.6875 -0.28125 1.65625q0 0.984375 0.28125 1.6875q0.28125 0.6875 0.765625 1.046875q0.5 0.359375 1.15625 0.359375z" fill-rule="nonzero"/><path fill="#000000" fill-opacity="0.0" d="m-3.1815495 97.47113l57.259842 0l0 26.866142l-57.259842 0z" fill-rule="evenodd"/><path fill="#f2f2f2" d="m36.05316 110.73795q0.703125 0.234375 1.078125 0.703125q0.375 0.46875 0.375 1.125q0 0.65625 -0.359375 1.140625q-0.34375 0.484375 -1.0 0.75q-0.65625 0.25 -1.53125 0.25q-1.34375 0 -2.109375 -0.578125q-0.765625 -0.578125 -0.765625 -1.5625q0 -0.671875 0.359375 -1.125q0.375 -0.46875 1.078125 -0.703125q-0.578125 -0.234375 -0.875 -0.640625q-0.296875 -0.421875 -0.296875 -1.0q0 -0.90625 0.703125 -1.4375q0.703125 -0.53125 1.90625 -0.53125q0.78125 0 1.375 0.234375q0.59375 0.234375 0.921875 0.6875q0.328125 0.4375 0.328125 1.046875q0 0.578125 -0.3125 1.0q-0.296875 0.40625 -0.875 0.640625zm-3.28125 -1.625q0 0.625 0.484375 0.984375q0.5 0.359375 1.359375 0.359375q0.859375 0 1.359375 -0.359375q0.5 -0.359375 0.5 -0.96875q0 -0.640625 -0.515625 -1.0q-0.5 -0.359375 -1.34375 -0.359375q-0.859375 0 -1.359375 0.359375q-0.484375 0.359375 -0.484375 0.984375zm1.84375 4.9375q0.984375 0 1.546875 -0.390625q0.5625 -0.40625 0.5625 -1.109375q0 -0.6875 -0.5625 -1.078125q-0.5625 -0.40625 -1.546875 -0.40625q-0.984375 0 -1.546875 0.40625q-0.546875 0.390625 -0.546875 1.078125q0 0.703125 0.546875 1.109375q0.546875 0.390625 1.546875 0.390625zm6.939377 0.65625q-0.859375 0 -1.546875 -0.453125q-0.671875 -0.46875 -1.0625 -1.3125q-0.375 -0.859375 -0.375 -2.03125q0 -1.15625 0.375 -2.015625q0.390625 -0.859375 1.0625 -1.3125q0.6875 -0.453125 1.546875 -0.453125q0.859375 0 1.53125 0.453125q0.6875 0.453125 1.0625 1.3125q0.390625 0.859375 0.390625 2.015625q0 1.171875 -0.390625 2.03125q-0.375 0.84375 -1.0625 1.3125q-0.671875 0.453125 -1.53125 0.453125zm0 -0.703125q0.640625 0 1.140625 -0.359375q0.5 -0.359375 0.765625 -1.046875q0.28125 -0.703125 0.28125 -1.6875q0 -0.96875 -0.28125 -1.65625q-0.265625 -0.703125 -0.765625 -1.0625q-0.5 -0.359375 -1.140625 -0.359375q-0.65625 0 -1.15625 0.359375q-0.484375 0.359375 -0.765625 1.0625q-0.28125 0.6875 -0.28125 1.65625q0 0.984375 0.28125 1.6875q0.28125 0.6875 0.765625 1.046875q0.5 0.359375 1.15625 0.359375z" fill-rule="nonzero"/><path fill="#000000" fill-opacity="0.0" d="m-3.1772823 123.41766l57.259842 0l0 26.86615l-57.259842 0z" fill-rule="evenodd"/><path fill="#f2f2f2" d="m37.563957 133.1376l0 0.53125l-3.109375 6.921875l-0.84375 0l3.078125 -6.78125l-3.84375 0l0 1.40625l-0.75 0l0 -2.078125l5.46875 0zm3.995346 7.515625q-0.859375 0 -1.546875 -0.453125q-0.671875 -0.46875 -1.0625 -1.3125q-0.375 -0.859375 -0.375 -2.03125q0 -1.15625 0.375 -2.015625q0.390625 -0.859375 1.0625 -1.3125q0.6875 -0.453125 1.546875 -0.453125q0.859375 0 1.53125 0.453125q0.6875 0.453125 1.0625 1.3125q0.390625 0.859375 0.390625 2.015625q0 1.171875 -0.390625 2.03125q-0.375 0.84375 -1.0625 1.3125q-0.671875 0.453125 -1.53125 0.453125zm0 -0.703125q0.640625 0 1.140625 -0.359375q0.5 -0.359375 0.765625 -1.046875q0.28125 -0.703125 0.28125 -1.6875q0 -0.96875 -0.28125 -1.65625q-0.265625 -0.703125 -0.765625 -1.0625q-0.5 -0.359375 -1.140625 -0.359375q-0.65625 0 -1.15625 0.359375q-0.484375 0.359375 -0.765625 1.0625q-0.28125 0.6875 -0.28125 1.65625q0 0.984375 0.28125 1.6875q0.28125 0.6875 0.765625 1.046875q0.5 0.359375 1.15625 0.359375z" fill-rule="nonzero"/><path fill="#000000" fill-opacity="0.0" d="m-3.1772823 149.38617l57.259842 0l0 26.866135l-57.259842 0z" fill-rule="evenodd"/><path fill="#f2f2f2" d="m35.178963 162.09048q0.734375 0 1.296875 0.28125q0.578125 0.28125 0.890625 0.78125q0.328125 0.5 0.328125 1.171875q0 0.6875 -0.328125 1.21875q-0.328125 0.515625 -0.90625 0.796875q-0.578125 0.28125 -1.3125 0.28125q-1.484375 0 -2.28125 -0.96875q-0.78125 -0.984375 -0.78125 -2.765625q0 -1.234375 0.421875 -2.09375q0.4375 -0.875 1.203125 -1.3125q0.765625 -0.4375 1.796875 -0.4375q1.109375 0 1.765625 0.390625l-0.3125 0.625q-0.53125 -0.359375 -1.453125 -0.359375q-1.234375 0 -1.9375 0.796875q-0.703125 0.78125 -0.703125 2.265625q0 0.265625 0.03125 0.609375q0.28125 -0.609375 0.890625 -0.9375q0.609375 -0.34375 1.390625 -0.34375zm-0.0625 3.875q0.8125 0 1.3125 -0.4375q0.515625 -0.4375 0.515625 -1.171875q0 -0.734375 -0.515625 -1.171875q-0.5 -0.4375 -1.359375 -0.4375q-0.5625 0 -1.0 0.21875q-0.4375 0.203125 -0.6875 0.578125q-0.234375 0.375 -0.234375 0.828125q0 0.421875 0.21875 0.796875q0.234375 0.359375 0.6875 0.578125q0.453125 0.21875 1.0625 0.21875zm6.4428406 0.65625q-0.859375 0 -1.546875 -0.453125q-0.671875 -0.46875 -1.0625 -1.3125q-0.375 -0.859375 -0.375 -2.03125q0 -1.15625 0.375 -2.015625q0.390625 -0.859375 1.0625 -1.3125q0.6875 -0.453125 1.546875 -0.453125q0.859375 0 1.53125 0.453125q0.6875 0.453125 1.0625 1.3125q0.390625 0.859375 0.390625 2.015625q0 1.171875 -0.390625 2.03125q-0.375 0.84375 -1.0625 1.3125q-0.671875 0.453125 -1.53125 0.453125zm0 -0.703125q0.640625 0 1.140625 -0.359375q0.5 -0.359375 0.765625 -1.046875q0.28125 -0.703125 0.28125 -1.6875q0 -0.96875 -0.28125 -1.65625q-0.265625 -0.703125 -0.765625 -1.0625q-0.5 -0.359375 -1.140625 -0.359375q-0.65625 0 -1.15625 0.359375q-0.484375 0.359375 -0.765625 1.0625q-0.28125 0.6875 -0.28125 1.65625q0 0.984375 0.28125 1.6875q0.28125 0.6875 0.765625 1.046875q0.5 0.359375 1.15625 0.359375z" fill-rule="nonzero"/><path fill="#000000" fill-opacity="0.0" d="m-3.1772823 175.32318l57.259842 0l0 26.866135l-57.259842 0z" fill-rule="evenodd"/><path fill="#f2f2f2" d="m34.512184 188.09q1.625 0 2.359375 0.59375q0.734375 0.578125 0.734375 1.625q0 0.640625 -0.296875 1.15625q-0.296875 0.515625 -0.90625 0.8125q-0.609375 0.28125 -1.5 0.28125q-0.796875 0 -1.515625 -0.25q-0.71875 -0.265625 -1.15625 -0.703125l0.375 -0.609375q0.375 0.375 0.96875 0.625q0.609375 0.234375 1.328125 0.234375q0.921875 0 1.421875 -0.40625q0.515625 -0.421875 0.515625 -1.109375q0 -0.78125 -0.578125 -1.171875q-0.5625 -0.390625 -1.921875 -0.390625l-1.59375 0l0.390625 -3.734375l4.078125 0l0 0.671875l-3.40625 0l-0.25 2.375l0.953125 0zm7.047119 4.46875q-0.859375 0 -1.546875 -0.453125q-0.671875 -0.46875 -1.0625 -1.3125q-0.375 -0.859375 -0.375 -2.03125q0 -1.15625 0.375 -2.015625q0.390625 -0.859375 1.0625 -1.3125q0.6875 -0.453125 1.546875 -0.453125q0.859375 0 1.53125 0.453125q0.6875 0.453125 1.0625 1.3125q0.390625 0.859375 0.390625 2.015625q0 1.171875 -0.390625 2.03125q-0.375 0.84375 -1.0625 1.3125q-0.671875 0.453125 -1.53125 0.453125zm0 -0.703125q0.640625 0 1.140625 -0.359375q0.5 -0.359375 0.765625 -1.046875q0.28125 -0.703125 0.28125 -1.6875q0 -0.96875 -0.28125 -1.65625q-0.265625 -0.703125 -0.765625 -1.0625q-0.5 -0.359375 -1.140625 -0.359375q-0.65625 0 -1.15625 0.359375q-0.484375 0.359375 -0.765625 1.0625q-0.28125 0.6875 -0.28125 1.65625q0 0.984375 0.28125 1.6875q0.28125 0.6875 0.765625 1.046875q0.5 0.359375 1.15625 0.359375z" fill-rule="nonzero"/><path fill="#000000" fill-opacity="0.0" d="m-3.1772823 201.30219l57.259842 0l0 26.866135l-57.259842 0z" fill-rule="evenodd"/><path fill="#f2f2f2" d="m37.874825 216.52213l-1.484375 0l0 1.953125l-0.765625 0l0 -1.953125l-4.218748 0l0 -0.5625l3.953123 -4.9375l0.859375 0l-3.8125 4.8125l3.234375 0l0 -1.734375l0.75 0l0 1.734375l1.484375 0l0 0.6875zm3.6844788 2.015625q-0.859375 0 -1.546875 -0.453125q-0.671875 -0.46875 -1.0625 -1.3125q-0.375 -0.859375 -0.375 -2.03125q0 -1.15625 0.375 -2.015625q0.390625 -0.859375 1.0625 -1.3125q0.6875 -0.453125 1.546875 -0.453125q0.859375 0 1.53125 0.453125q0.6875 0.453125 1.0625 1.3125q0.390625 0.859375 0.390625 2.015625q0 1.171875 -0.390625 2.03125q-0.375 0.84375 -1.0625 1.3125q-0.671875 0.453125 -1.53125 0.453125zm0 -0.703125q0.640625 0 1.140625 -0.359375q0.5 -0.359375 0.765625 -1.046875q0.28125 -0.703125 0.28125 -1.6875q0 -0.96875 -0.28125 -1.65625q-0.265625 -0.703125 -0.765625 -1.0625q-0.5 -0.359375 -1.140625 -0.359375q-0.65625 0 -1.15625 0.359375q-0.484375 0.359375 -0.765625 1.0625q-0.28125 0.6875 -0.28125 1.65625q0 0.984375 0.28125 1.6875q0.28125 0.6875 0.765625 1.046875q0.5 0.359375 1.15625 0.359375z" fill-rule="nonzero"/><path fill="#000000" fill-opacity="0.0" d="m-3.17597 227.24968l57.259842 0l0 26.86615l-57.259842 0z" fill-rule="evenodd"/><path fill="#f2f2f2" d="m35.112923 240.15714q1.171875 0.0625 1.78125 0.640625q0.609375 0.5625 0.609375 1.484375q0 0.640625 -0.3125 1.140625q-0.296875 0.484375 -0.90625 0.78125q-0.609375 0.28125 -1.484375 0.28125q-0.8125 0 -1.53125 -0.25q-0.71875 -0.265625 -1.15625 -0.703125l0.375 -0.609375q0.375 0.375 0.984375 0.625q0.625 0.234375 1.328125 0.234375q0.921875 0 1.421875 -0.390625q0.5 -0.40625 0.5 -1.109375q0 -0.6875 -0.5 -1.078125q-0.5 -0.40625 -1.515625 -0.40625l-0.53125 0l0 -0.5625l2.0625 -2.59375l-3.8125 0l0 -0.671875l4.796875 0l0 0.53125l-2.109375 2.65625zm6.447693 4.328125q-0.859375 0 -1.546875 -0.453125q-0.671875 -0.46875 -1.0625 -1.3125q-0.375 -0.859375 -0.375 -2.03125q0 -1.15625 0.375 -2.015625q0.390625 -0.859375 1.0625 -1.3125q0.6875 -0.453125 1.546875 -0.453125q0.859375 0 1.53125 0.453125q0.6875 0.453125 1.0625 1.3125q0.390625 0.859375 0.390625 2.015625q0 1.171875 -0.390625 2.03125q-0.375 0.84375 -1.0625 1.3125q-0.671875 0.453125 -1.53125 0.453125zm0 -0.703125q0.640625 0 1.140625 -0.359375q0.5 -0.359375 0.765625 -1.046875q0.28125 -0.703125 0.28125 -1.6875q0 -0.96875 -0.28125 -1.65625q-0.265625 -0.703125 -0.765625 -1.0625q-0.5 -0.359375 -1.140625 -0.359375q-0.65625 0 -1.15625 0.359375q-0.484375 0.359375 -0.765625 1.0625q-0.28125 0.6875 -0.28125 1.65625q0 0.984375 0.28125 1.6875q0.28125 0.6875 0.765625 1.046875q0.5 0.359375 1.15625 0.359375z" fill-rule="nonzero"/><path fill="#000000" fill-opacity="0.0" d="m-3.17597 253.26018l57.259842 0l0 26.866135l-57.259842 0z" fill-rule="evenodd"/><path fill="#f2f2f2" d="m37.61718 269.74576l0 0.6875l-5.21875 0l0 -0.546875l3.09375 -3.03125q0.59375 -0.578125 0.796875 -1.0q0.203125 -0.421875 0.203125 -0.84375q0 -0.65625 -0.453125 -1.015625q-0.453125 -0.375 -1.296875 -0.375q-1.3125 0 -2.03125 0.828125l-0.546875 -0.46875q0.4375 -0.515625 1.109375 -0.78125q0.6875 -0.28125 1.53125 -0.28125q1.140625 0 1.8125 0.53125q0.671875 0.53125 0.671875 1.46875q0 0.578125 -0.265625 1.109375q-0.25 0.53125 -0.96875 1.234375l-2.53125 2.484375l4.09375 0zm3.9434357 0.75q-0.859375 0 -1.546875 -0.453125q-0.671875 -0.46875 -1.0625 -1.3125q-0.375 -0.859375 -0.375 -2.03125q0 -1.15625 0.375 -2.015625q0.390625 -0.859375 1.0625 -1.3125q0.6875 -0.453125 1.546875 -0.453125q0.859375 0 1.53125 0.453125q0.6875 0.453125 1.0625 1.3125q0.390625 0.859375 0.390625 2.015625q0 1.171875 -0.390625 2.03125q-0.375 0.84375 -1.0625 1.3125q-0.671875 0.453125 -1.53125 0.453125zm0 -0.703125q0.640625 0 1.140625 -0.359375q0.5 -0.359375 0.765625 -1.046875q0.28125 -0.703125 0.28125 -1.6875q0 -0.96875 -0.28125 -1.65625q-0.265625 -0.703125 -0.765625 -1.0625q-0.5 -0.359375 -1.140625 -0.359375q-0.65625 0 -1.15625 0.359375q-0.484375 0.359375 -0.765625 1.0625q-0.28125 0.6875 -0.28125 1.65625q0 0.984375 0.28125 1.6875q0.28125 0.6875 0.765625 1.046875q0.5 0.359375 1.15625 0.359375z" fill-rule="nonzero"/><path fill="#000000" fill-opacity="0.0" d="m-3.17597 279.2077l57.259842 0l0 26.86612l-57.259842 0z" fill-rule="evenodd"/><path fill="#f2f2f2" d="m36.807426 288.92764l0 7.453125l-0.765625 0l0 -6.78125l-1.765625 0l0 -0.671875l2.53125 0zm4.753189 7.515625q-0.859375 0 -1.546875 -0.453125q-0.671875 -0.46875 -1.0625 -1.3125q-0.375 -0.859375 -0.375 -2.03125q0 -1.15625 0.375 -2.015625q0.390625 -0.859375 1.0625 -1.3125q0.6875 -0.453125 1.546875 -0.453125q0.859375 0 1.53125 0.453125q0.6875 0.453125 1.0625 1.3125q0.390625 0.859375 0.390625 2.015625q0 1.171875 -0.390625 2.03125q-0.375 0.84375 -1.0625 1.3125q-0.671875 0.453125 -1.53125 0.453125zm0 -0.703125q0.640625 0 1.140625 -0.359375q0.5 -0.359375 0.765625 -1.046875q0.28125 -0.703125 0.28125 -1.6875q0 -0.96875 -0.28125 -1.65625q-0.265625 -0.703125 -0.765625 -1.0625q-0.5 -0.359375 -1.140625 -0.359375q-0.65625 0 -1.15625 0.359375q-0.484375 0.359375 -0.765625 1.0625q-0.28125 0.6875 -0.28125 1.65625q0 0.984375 0.28125 1.6875q0.28125 0.6875 0.765625 1.046875q0.5 0.359375 1.15625 0.359375z" fill-rule="nonzero"/><path fill="#000000" fill-opacity="0.0" d="m-3.17597 305.2182l57.259842 0l0 26.86612l-57.259842 0z" fill-rule="evenodd"/><path fill="#f2f2f2" d="m41.560616 322.45377q-0.859375 0 -1.546875 -0.453125q-0.671875 -0.46875 -1.0625 -1.3125q-0.375 -0.859375 -0.375 -2.03125q0 -1.15625 0.375 -2.015625q0.390625 -0.859375 1.0625 -1.3125q0.6875 -0.453125 1.546875 -0.453125q0.859375 0 1.53125 0.453125q0.6875 0.453125 1.0625 1.3125q0.390625 0.859375 0.390625 2.015625q0 1.171875 -0.390625 2.03125q-0.375 0.84375 -1.0625 1.3125q-0.671875 0.453125 -1.53125 0.453125zm0 -0.703125q0.640625 0 1.140625 -0.359375q0.5 -0.359375 0.765625 -1.046875q0.28125 -0.703125 0.28125 -1.6875q0 -0.96875 -0.28125 -1.65625q-0.265625 -0.703125 -0.765625 -1.0625q-0.5 -0.359375 -1.140625 -0.359375q-0.65625 0 -1.15625 0.359375q-0.484375 0.359375 -0.765625 1.0625q-0.28125 0.6875 -0.28125 1.65625q0 0.984375 0.28125 1.6875q0.28125 0.6875 0.765625 1.046875q0.5 0.359375 1.15625 0.359375z" fill-rule="nonzero"/><path fill="#000000" fill-opacity="0.0" d="m36.709858 343.13025l63.905514 0l0 33.606323l-63.905514 0z" fill-rule="evenodd"/><path fill="#f2f2f2" d="m54.74939 367.07217q-1.546875 0 -3.0 -0.40625q-1.4375 -0.421875 -2.328125 -1.09375l1.03125 -2.28125q0.84375 0.609375 2.0 0.984375q1.15625 0.375 2.3125 0.375q1.28125 0 1.890625 -0.375q0.625 -0.390625 0.625 -1.015625q0 -0.46875 -0.359375 -0.78125q-0.359375 -0.3125 -0.9375 -0.5q-0.5625 -0.1875 -1.53125 -0.40625q-1.5 -0.359375 -2.453125 -0.703125q-0.953125 -0.359375 -1.640625 -1.140625q-0.671875 -0.78125 -0.671875 -2.09375q0 -1.140625 0.609375 -2.0625q0.625 -0.921875 1.859375 -1.453125q1.25 -0.546875 3.03125 -0.546875q1.25 0 2.4375 0.296875q1.203125 0.296875 2.109375 0.859375l-0.9375 2.296875q-1.8125 -1.03125 -3.625 -1.03125q-1.265625 0 -1.875 0.421875q-0.609375 0.40625 -0.609375 1.078125q0 0.671875 0.703125 1.0q0.703125 0.3125 2.140625 0.640625q1.484375 0.34375 2.4375 0.703125q0.953125 0.359375 1.625 1.125q0.6875 0.765625 0.6875 2.0625q0 1.125 -0.625 2.046875q-0.625 0.921875 -1.875 1.46875q-1.25 0.53125 -3.03125 0.53125zm17.51207 -10.25l0 10.03125l-2.765625 0l0 -1.1875q-0.578125 0.640625 -1.375 1.0q-0.796875 0.34375 -1.734375 0.34375q-1.984375 0 -3.140625 -1.140625q-1.15625 -1.140625 -1.15625 -3.375l0 -5.671875l2.921875 0l0 5.234375q0 2.421875 2.03125 2.421875q1.046875 0 1.671875 -0.671875q0.640625 -0.6875 0.640625 -2.03125l0 -4.953125l2.90625 0zm6.0824738 10.1875q-1.25 0 -2.453125 -0.3125q-1.1875 -0.3125 -1.890625 -0.78125l0.96875 -2.078125q0.671875 0.421875 1.625 0.703125q0.953125 0.265625 1.859375 0.265625q1.84375 0 1.84375 -0.921875q0 -0.421875 -0.5 -0.609375q-0.5 -0.1875 -1.546875 -0.328125q-1.234375 -0.171875 -2.03125 -0.421875q-0.796875 -0.25 -1.390625 -0.859375q-0.59375 -0.609375 -0.59375 -1.75q0 -0.953125 0.546875 -1.6875q0.5625 -0.734375 1.609375 -1.140625q1.0625 -0.421875 2.5 -0.421875q1.0625 0 2.109375 0.234375q1.0625 0.234375 1.75 0.640625l-0.96875 2.078125q-1.328125 -0.75 -2.890625 -0.75q-0.9375 0 -1.40625 0.265625q-0.46875 0.25 -0.46875 0.671875q0 0.46875 0.5 0.65625q0.515625 0.171875 1.609375 0.34375q1.234375 0.203125 2.015625 0.4375q0.78125 0.234375 1.359375 0.859375q0.578125 0.609375 0.578125 1.703125q0 0.9375 -0.5625 1.671875q-0.546875 0.71875 -1.625 1.125q-1.078125 0.40625 -2.546875 0.40625zm7.6252136 0q-0.765625 0 -1.28125 -0.515625q-0.515625 -0.53125 -0.515625 -1.3125q0 -0.8125 0.515625 -1.296875q0.515625 -0.5 1.28125 -0.5q0.765625 0 1.28125 0.5q0.53125 0.484375 0.53125 1.296875q0 0.78125 -0.53125 1.3125q-0.515625 0.515625 -1.28125 0.515625z" fill-rule="nonzero"/><path fill="#000000" fill-opacity="0.0" d="m22.142927 360.78513l93.03937 0l0 33.606293l-93.03937 0z" fill-rule="evenodd"/><path fill="#f2f2f2" d="m39.92881 377.94952q-1.140625 0 -1.859375 -0.765625q-0.703125 -0.78125 -0.703125 -2.0625q0 -1.296875 0.703125 -2.0625q0.71875 -0.765625 1.859375 -0.765625q1.125 0 1.828125 0.765625q0.703125 0.765625 0.703125 2.0625q0 1.28125 -0.703125 2.0625q-0.703125 0.765625 -1.828125 0.765625zm6.109375 -5.546875l1.734375 0l-7.0 10.265625l-1.75 0l7.015625 -10.265625zm-6.109375 4.34375q0.484375 0 0.765625 -0.40625q0.296875 -0.40625 0.296875 -1.21875q0 -0.8125 -0.296875 -1.21875q-0.28125 -0.40625 -0.765625 -0.40625q-0.484375 0 -0.78125 0.421875q-0.296875 0.40625 -0.296875 1.203125q0 0.796875 0.296875 1.21875q0.296875 0.40625 0.78125 0.40625zm6.953125 6.046875q-0.734375 0 -1.3125 -0.34375q-0.578125 -0.359375 -0.90625 -1.0q-0.3125 -0.640625 -0.3125 -1.5q0 -0.84375 0.3125 -1.484375q0.328125 -0.640625 0.90625 -0.984375q0.578125 -0.359375 1.3125 -0.359375q1.125 0 1.828125 0.78125q0.71875 0.765625 0.71875 2.046875q0 1.296875 -0.71875 2.078125q-0.703125 0.765625 -1.828125 0.765625zm0 -1.203125q0.5 0 0.78125 -0.421875q0.296875 -0.421875 0.296875 -1.21875q0 -0.78125 -0.296875 -1.203125q-0.28125 -0.421875 -0.78125 -0.421875q-0.484375 0 -0.78125 0.421875q-0.28125 0.40625 -0.28125 1.203125q0 0.8125 0.28125 1.234375q0.296875 0.40625 0.78125 0.40625z" fill-rule="nonzero"/><path fill="#f2f2f2" d="m58.586372 382.7464q-1.125 0 -2.015625 -0.5q-0.890625 -0.515625 -1.40625 -1.40625q-0.515625 -0.890625 -0.515625 -2.03125q0 -1.125 0.515625 -2.015625q0.515625 -0.890625 1.40625 -1.390625q0.890625 -0.5 2.015625 -0.5q1.109375 0 2.0 0.5q0.890625 0.5 1.390625 1.390625q0.515625 0.890625 0.515625 2.015625q0 1.140625 -0.515625 2.03125q-0.5 0.890625 -1.390625 1.40625q-0.890625 0.5 -2.0 0.5zm0 -0.921875q0.8125 0 1.46875 -0.375q0.65625 -0.375 1.015625 -1.0625q0.359375 -0.6875 0.359375 -1.578125q0 -0.875 -0.359375 -1.5625q-0.359375 -0.6875 -1.015625 -1.0625q-0.65625 -0.375 -1.46875 -0.375q-0.828125 0 -1.484375 0.375q-0.640625 0.375 -1.015625 1.0625q-0.375 0.6875 -0.375 1.5625q0 0.890625 0.375 1.578125q0.375 0.6875 1.015625 1.0625q0.65625 0.375 1.484375 0.375zm8.580124 -9.21875q-0.671875 0 -1.015625 0.359375q-0.34375 0.359375 -0.34375 1.078125l0 0.921875l2.375 0l0 0.875l-2.34375 0l0 6.828125l-1.046875 0l0 -6.828125l-1.375 0l0 -0.875l1.375 0l0 -0.953125q0 -1.0625 0.609375 -1.671875q0.609375 -0.625 1.71875 -0.625q0.4375 0 0.84375 0.125q0.421875 0.125 0.703125 0.359375l-0.359375 0.78125q-0.453125 -0.375 -1.140625 -0.375zm12.917816 7.328125l-5.71875 0l-1.234375 2.734375l-1.125 0l4.6875 -10.265625l1.078125 0l4.6875 10.265625l-1.140625 0l-1.234375 -2.734375zm-0.40625 -0.890625l-2.453125 -5.5l-2.46875 5.5l4.921875 0zm8.321075 3.15625q-0.296875 0.265625 -0.734375 0.40625q-0.421875 0.140625 -0.890625 0.140625q-1.09375 0 -1.6875 -0.578125q-0.578125 -0.59375 -0.578125 -1.671875l0 -4.65625l-1.375 0l0 -0.875l1.375 0l0 -1.6875l1.046875 0l0 1.6875l2.34375 0l0 0.875l-2.34375 0l0 4.59375q0 0.703125 0.34375 1.0625q0.34375 0.34375 0.984375 0.34375q0.328125 0 0.625 -0.09375q0.296875 -0.109375 0.515625 -0.296875l0.375 0.75zm4.7473297 -3.40625l-1.828125 1.671875l0 2.203125l-1.03125 0l0 -10.875l1.03125 0l0 7.375l4.609375 -4.203125l1.296875 0l-3.3125 3.140625l3.609375 4.5625l-1.265625 0l-3.109375 -3.875zm6.042816 3.953125q-0.3125 0 -0.546875 -0.234375q-0.21875 -0.234375 -0.21875 -0.578125q0 -0.328125 0.21875 -0.5625q0.234375 -0.234375 0.546875 -0.234375q0.328125 0 0.5625 0.234375q0.234375 0.234375 0.234375 0.5625q0 0.34375 -0.234375 0.578125q-0.234375 0.234375 -0.5625 0.234375z" fill-rule="nonzero"/></g></svg>